<svg xmlns="http://www.w3.org/2000/svg" width="48" height="47" viewBox="0 0 48 47" fill="none"><path d="M47 23.5C47 10.7975 36.7025 0.5 24 0.5C11.2975 0.5 1 10.7975 1 23.5C1 36.2025 11.2975 46.5 24 46.5C36.7025 46.5 47 36.2025 47 23.5Z" stroke="white" stroke-opacity="0.15" stroke-width="0.836364"></path><path d="M40.5322 23.1567C40.54 13.8139 32.9724 6.23373 23.6296 6.22597C14.2867 6.21821 6.7066 13.7858 6.69884 23.1286C6.69108 32.4714 14.2586 40.0516 23.6015 40.0593C32.9443 40.0671 40.5244 32.4995 40.5322 23.1567Z" fill="url(#paint0_linear_97_6504)" fill-opacity="0.15"></path><path d="M40.5322 23.1567C40.54 13.8139 32.9724 6.23373 23.6296 6.22597C14.2867 6.21821 6.7066 13.7858 6.69884 23.1286C6.69108 32.4714 14.2586 40.0516 23.6015 40.0593C32.9443 40.0671 40.5244 32.4995 40.5322 23.1567Z" stroke="url(#paint1_linear_97_6504)" stroke-opacity="0.15" stroke-width="0.867522"></path><path d="M40.5322 23.1567C40.54 13.8139 32.9724 6.23373 23.6296 6.22597C14.2867 6.21821 6.7066 13.7858 6.69884 23.1286C6.69108 32.4714 14.2586 40.0516 23.6015 40.0593C32.9443 40.0671 40.5244 32.4995 40.5322 23.1567Z" stroke="url(#paint2_radial_97_6504)" stroke-width="0.867522"></path><path d="M40.5322 23.1567C40.54 13.8139 32.9724 6.23373 23.6296 6.22597C14.2867 6.21821 6.7066 13.7858 6.69884 23.1286C6.69108 32.4714 14.2586 40.0516 23.6015 40.0593C32.9443 40.0671 40.5244 32.4995 40.5322 23.1567Z" stroke="url(#paint3_radial_97_6504)" stroke-width="0.867522"></path><path d="M30 16.4998H31V17.4998C31 17.765 31.1054 18.0193 31.2929 18.2069C31.4804 18.3944 31.7348 18.4998 32 18.4998C32.2652 18.4998 32.5196 18.3944 32.7071 18.2069C32.8946 18.0193 33 17.765 33 17.4998V16.4998H34C34.2652 16.4998 34.5196 16.3944 34.7071 16.2069C34.8946 16.0193 35 15.765 35 15.4998C35 15.2346 34.8946 14.9802 34.7071 14.7927C34.5196 14.6051 34.2652 14.4998 34 14.4998H33V13.4998C33 13.2346 32.8946 12.9802 32.7071 12.7927C32.5196 12.6051 32.2652 12.4998 32 12.4998C31.7348 12.4998 31.4804 12.6051 31.2929 12.7927C31.1054 12.9802 31 13.2346 31 13.4998V14.4998H30C29.7348 14.4998 29.4804 14.6051 29.2929 14.7927C29.1054 14.9802 29 15.2346 29 15.4998C29 15.765 29.1054 16.0193 29.2929 16.2069C29.4804 16.3944 29.7348 16.4998 30 16.4998ZM23 20.4998C23 20.765 23.1054 21.0193 23.2929 21.2069C23.4804 21.3944 23.7348 21.4998 24 21.4998C24.2652 21.4998 24.5196 21.3944 24.7071 21.2069C24.8946 21.0193 25 20.765 25 20.4998C25 20.2346 25.1054 19.9802 25.2929 19.7927C25.4804 19.6051 25.7348 19.4998 26 19.4998H27C27.2652 19.4998 27.5196 19.6051 27.7071 19.7927C27.8946 19.9802 28 20.2346 28 20.4998V21.4998C28 21.765 27.8946 22.0193 27.7071 22.2069C27.5196 22.3944 27.2652 22.4998 27 22.4998H26.5C26.2348 22.4998 25.9804 22.6051 25.7929 22.7927C25.6054 22.9802 25.5 23.2346 25.5 23.4998C25.5 23.765 25.6054 24.0193 25.7929 24.2069C25.9804 24.3944 26.2348 24.4998 26.5 24.4998H27C27.2652 24.4998 27.5196 24.6051 27.7071 24.7927C27.8946 24.9802 28 25.2346 28 25.4998V26.4998C28 26.765 27.8946 27.0193 27.7071 27.2069C27.5196 27.3944 27.2652 27.4998 27 27.4998H26C25.7348 27.4998 25.4804 27.3944 25.2929 27.2069C25.1054 27.0193 25 26.765 25 26.4998C25 26.2346 24.8946 25.9802 24.7071 25.7927C24.5196 25.6051 24.2652 25.4998 24 25.4998C23.7348 25.4998 23.4804 25.6051 23.2929 25.7927C23.1054 25.9802 23 26.2346 23 26.4998C23 27.2954 23.3161 28.0585 23.8787 28.6211C24.4413 29.1837 25.2044 29.4998 26 29.4998H27C27.7957 29.4998 28.5587 29.1837 29.1213 28.6211C29.6839 28.0585 30 27.2954 30 26.4998V25.4998C29.9956 24.7597 29.7178 24.0474 29.22 23.4998C29.7178 22.9521 29.9956 22.2398 30 21.4998V20.4998C30 19.7041 29.6839 18.9411 29.1213 18.3785C28.5587 17.8158 27.7957 17.4998 27 17.4998H26C25.2044 17.4998 24.4413 17.8158 23.8787 18.3785C23.3161 18.9411 23 19.7041 23 20.4998ZM19 18.4998V28.4998C19 28.765 19.1054 29.0193 19.2929 29.2069C19.4804 29.3944 19.7348 29.4998 20 29.4998C20.2652 29.4998 20.5196 29.3944 20.7071 29.2069C20.8946 29.0193 21 28.765 21 28.4998V18.4998C21 18.2346 20.8946 17.9802 20.7071 17.7927C20.5196 17.6051 20.2652 17.4998 20 17.4998C19.7348 17.4998 19.4804 17.6051 19.2929 17.7927C19.1054 17.9802 19 18.2346 19 18.4998ZM33.6 20.4998C33.4713 20.526 33.349 20.5774 33.2402 20.6509C33.1313 20.7244 33.038 20.8186 32.9656 20.9282C32.8931 21.0378 32.843 21.1605 32.818 21.2895C32.793 21.4185 32.7937 21.5511 32.82 21.6798C33.2104 23.576 32.979 25.5475 32.1601 27.3018C31.3412 29.0561 29.9785 30.4995 28.2741 31.4178C26.5698 32.3362 24.6148 32.6805 22.6993 32.3996C20.7838 32.1188 19.0099 31.2278 17.641 29.8588C16.272 28.4899 15.381 26.716 15.1001 24.8005C14.8193 22.885 15.1636 20.93 16.0819 19.2256C17.0003 17.5213 18.4437 16.1586 20.198 15.3397C21.9522 14.5208 23.9238 14.2893 25.82 14.6798C26.0852 14.7328 26.3606 14.6783 26.5857 14.5283C26.8107 14.3783 26.967 14.145 27.02 13.8798C27.073 13.6146 27.0186 13.3391 26.8685 13.1141C26.7185 12.889 26.4852 12.7328 26.22 12.6798C25.4882 12.5434 24.7442 12.4831 24 12.4998C21.8244 12.4998 19.6977 13.1449 17.8887 14.3536C16.0798 15.5623 14.6699 17.2803 13.8373 19.2903C13.0048 21.3002 12.7869 23.512 13.2114 25.6458C13.6358 27.7796 14.6835 29.7396 16.2218 31.278C17.7602 32.8163 19.7202 33.864 21.854 34.2884C23.9878 34.7129 26.1995 34.495 28.2095 33.6625C30.2195 32.8299 31.9375 31.42 33.1462 29.6111C34.3549 27.8021 35 25.6754 35 23.4998C35.0021 22.7609 34.9284 22.0237 34.78 21.2998C34.7561 21.1693 34.7064 21.0448 34.6338 20.9337C34.5613 20.8226 34.4674 20.727 34.3576 20.6526C34.2478 20.5781 34.1242 20.5263 33.9942 20.5C33.8641 20.4738 33.7301 20.4737 33.6 20.4998Z" fill="black"></path><path d="M30 16.4998H31V17.4998C31 17.765 31.1054 18.0193 31.2929 18.2069C31.4804 18.3944 31.7348 18.4998 32 18.4998C32.2652 18.4998 32.5196 18.3944 32.7071 18.2069C32.8946 18.0193 33 17.765 33 17.4998V16.4998H34C34.2652 16.4998 34.5196 16.3944 34.7071 16.2069C34.8946 16.0193 35 15.765 35 15.4998C35 15.2346 34.8946 14.9802 34.7071 14.7927C34.5196 14.6051 34.2652 14.4998 34 14.4998H33V13.4998C33 13.2346 32.8946 12.9802 32.7071 12.7927C32.5196 12.6051 32.2652 12.4998 32 12.4998C31.7348 12.4998 31.4804 12.6051 31.2929 12.7927C31.1054 12.9802 31 13.2346 31 13.4998V14.4998H30C29.7348 14.4998 29.4804 14.6051 29.2929 14.7927C29.1054 14.9802 29 15.2346 29 15.4998C29 15.765 29.1054 16.0193 29.2929 16.2069C29.4804 16.3944 29.7348 16.4998 30 16.4998ZM23 20.4998C23 20.765 23.1054 21.0193 23.2929 21.2069C23.4804 21.3944 23.7348 21.4998 24 21.4998C24.2652 21.4998 24.5196 21.3944 24.7071 21.2069C24.8946 21.0193 25 20.765 25 20.4998C25 20.2346 25.1054 19.9802 25.2929 19.7927C25.4804 19.6051 25.7348 19.4998 26 19.4998H27C27.2652 19.4998 27.5196 19.6051 27.7071 19.7927C27.8946 19.9802 28 20.2346 28 20.4998V21.4998C28 21.765 27.8946 22.0193 27.7071 22.2069C27.5196 22.3944 27.2652 22.4998 27 22.4998H26.5C26.2348 22.4998 25.9804 22.6051 25.7929 22.7927C25.6054 22.9802 25.5 23.2346 25.5 23.4998C25.5 23.765 25.6054 24.0193 25.7929 24.2069C25.9804 24.3944 26.2348 24.4998 26.5 24.4998H27C27.2652 24.4998 27.5196 24.6051 27.7071 24.7927C27.8946 24.9802 28 25.2346 28 25.4998V26.4998C28 26.765 27.8946 27.0193 27.7071 27.2069C27.5196 27.3944 27.2652 27.4998 27 27.4998H26C25.7348 27.4998 25.4804 27.3944 25.2929 27.2069C25.1054 27.0193 25 26.765 25 26.4998C25 26.2346 24.8946 25.9802 24.7071 25.7927C24.5196 25.6051 24.2652 25.4998 24 25.4998C23.7348 25.4998 23.4804 25.6051 23.2929 25.7927C23.1054 25.9802 23 26.2346 23 26.4998C23 27.2954 23.3161 28.0585 23.8787 28.6211C24.4413 29.1837 25.2044 29.4998 26 29.4998H27C27.7957 29.4998 28.5587 29.1837 29.1213 28.6211C29.6839 28.0585 30 27.2954 30 26.4998V25.4998C29.9956 24.7597 29.7178 24.0474 29.22 23.4998C29.7178 22.9521 29.9956 22.2398 30 21.4998V20.4998C30 19.7041 29.6839 18.9411 29.1213 18.3785C28.5587 17.8158 27.7957 17.4998 27 17.4998H26C25.2044 17.4998 24.4413 17.8158 23.8787 18.3785C23.3161 18.9411 23 19.7041 23 20.4998ZM19 18.4998V28.4998C19 28.765 19.1054 29.0193 19.2929 29.2069C19.4804 29.3944 19.7348 29.4998 20 29.4998C20.2652 29.4998 20.5196 29.3944 20.7071 29.2069C20.8946 29.0193 21 28.765 21 28.4998V18.4998C21 18.2346 20.8946 17.9802 20.7071 17.7927C20.5196 17.6051 20.2652 17.4998 20 17.4998C19.7348 17.4998 19.4804 17.6051 19.2929 17.7927C19.1054 17.9802 19 18.2346 19 18.4998ZM33.6 20.4998C33.4713 20.526 33.349 20.5774 33.2402 20.6509C33.1313 20.7244 33.038 20.8186 32.9656 20.9282C32.8931 21.0378 32.843 21.1605 32.818 21.2895C32.793 21.4185 32.7937 21.5511 32.82 21.6798C33.2104 23.576 32.979 25.5475 32.1601 27.3018C31.3412 29.0561 29.9785 30.4995 28.2741 31.4178C26.5698 32.3362 24.6148 32.6805 22.6993 32.3996C20.7838 32.1188 19.0099 31.2278 17.641 29.8588C16.272 28.4899 15.381 26.716 15.1001 24.8005C14.8193 22.885 15.1636 20.93 16.0819 19.2256C17.0003 17.5213 18.4437 16.1586 20.198 15.3397C21.9522 14.5208 23.9238 14.2893 25.82 14.6798C26.0852 14.7328 26.3606 14.6783 26.5857 14.5283C26.8107 14.3783 26.967 14.145 27.02 13.8798C27.073 13.6146 27.0186 13.3391 26.8685 13.1141C26.7185 12.889 26.4852 12.7328 26.22 12.6798C25.4882 12.5434 24.7442 12.4831 24 12.4998C21.8244 12.4998 19.6977 13.1449 17.8887 14.3536C16.0798 15.5623 14.6699 17.2803 13.8373 19.2903C13.0048 21.3002 12.7869 23.512 13.2114 25.6458C13.6358 27.7796 14.6835 29.7396 16.2218 31.278C17.7602 32.8163 19.7202 33.864 21.854 34.2884C23.9878 34.7129 26.1995 34.495 28.2095 33.6625C30.2195 32.8299 31.9375 31.42 33.1462 29.6111C34.3549 27.8021 35 25.6754 35 23.4998C35.0021 22.7609 34.9284 22.0237 34.78 21.2998C34.7561 21.1693 34.7064 21.0448 34.6338 20.9337C34.5613 20.8226 34.4674 20.727 34.3576 20.6526C34.2478 20.5781 34.1242 20.5263 33.9942 20.5C33.8641 20.4738 33.7301 20.4737 33.6 20.4998Z" fill="url(#paint4_linear_97_6504)"></path><path d="M30 16.4998H31V17.4998C31 17.765 31.1054 18.0193 31.2929 18.2069C31.4804 18.3944 31.7348 18.4998 32 18.4998C32.2652 18.4998 32.5196 18.3944 32.7071 18.2069C32.8946 18.0193 33 17.765 33 17.4998V16.4998H34C34.2652 16.4998 34.5196 16.3944 34.7071 16.2069C34.8946 16.0193 35 15.765 35 15.4998C35 15.2346 34.8946 14.9802 34.7071 14.7927C34.5196 14.6051 34.2652 14.4998 34 14.4998H33V13.4998C33 13.2346 32.8946 12.9802 32.7071 12.7927C32.5196 12.6051 32.2652 12.4998 32 12.4998C31.7348 12.4998 31.4804 12.6051 31.2929 12.7927C31.1054 12.9802 31 13.2346 31 13.4998V14.4998H30C29.7348 14.4998 29.4804 14.6051 29.2929 14.7927C29.1054 14.9802 29 15.2346 29 15.4998C29 15.765 29.1054 16.0193 29.2929 16.2069C29.4804 16.3944 29.7348 16.4998 30 16.4998ZM23 20.4998C23 20.765 23.1054 21.0193 23.2929 21.2069C23.4804 21.3944 23.7348 21.4998 24 21.4998C24.2652 21.4998 24.5196 21.3944 24.7071 21.2069C24.8946 21.0193 25 20.765 25 20.4998C25 20.2346 25.1054 19.9802 25.2929 19.7927C25.4804 19.6051 25.7348 19.4998 26 19.4998H27C27.2652 19.4998 27.5196 19.6051 27.7071 19.7927C27.8946 19.9802 28 20.2346 28 20.4998V21.4998C28 21.765 27.8946 22.0193 27.7071 22.2069C27.5196 22.3944 27.2652 22.4998 27 22.4998H26.5C26.2348 22.4998 25.9804 22.6051 25.7929 22.7927C25.6054 22.9802 25.5 23.2346 25.5 23.4998C25.5 23.765 25.6054 24.0193 25.7929 24.2069C25.9804 24.3944 26.2348 24.4998 26.5 24.4998H27C27.2652 24.4998 27.5196 24.6051 27.7071 24.7927C27.8946 24.9802 28 25.2346 28 25.4998V26.4998C28 26.765 27.8946 27.0193 27.7071 27.2069C27.5196 27.3944 27.2652 27.4998 27 27.4998H26C25.7348 27.4998 25.4804 27.3944 25.2929 27.2069C25.1054 27.0193 25 26.765 25 26.4998C25 26.2346 24.8946 25.9802 24.7071 25.7927C24.5196 25.6051 24.2652 25.4998 24 25.4998C23.7348 25.4998 23.4804 25.6051 23.2929 25.7927C23.1054 25.9802 23 26.2346 23 26.4998C23 27.2954 23.3161 28.0585 23.8787 28.6211C24.4413 29.1837 25.2044 29.4998 26 29.4998H27C27.7957 29.4998 28.5587 29.1837 29.1213 28.6211C29.6839 28.0585 30 27.2954 30 26.4998V25.4998C29.9956 24.7597 29.7178 24.0474 29.22 23.4998C29.7178 22.9521 29.9956 22.2398 30 21.4998V20.4998C30 19.7041 29.6839 18.9411 29.1213 18.3785C28.5587 17.8158 27.7957 17.4998 27 17.4998H26C25.2044 17.4998 24.4413 17.8158 23.8787 18.3785C23.3161 18.9411 23 19.7041 23 20.4998ZM19 18.4998V28.4998C19 28.765 19.1054 29.0193 19.2929 29.2069C19.4804 29.3944 19.7348 29.4998 20 29.4998C20.2652 29.4998 20.5196 29.3944 20.7071 29.2069C20.8946 29.0193 21 28.765 21 28.4998V18.4998C21 18.2346 20.8946 17.9802 20.7071 17.7927C20.5196 17.6051 20.2652 17.4998 20 17.4998C19.7348 17.4998 19.4804 17.6051 19.2929 17.7927C19.1054 17.9802 19 18.2346 19 18.4998ZM33.6 20.4998C33.4713 20.526 33.349 20.5774 33.2402 20.6509C33.1313 20.7244 33.038 20.8186 32.9656 20.9282C32.8931 21.0378 32.843 21.1605 32.818 21.2895C32.793 21.4185 32.7937 21.5511 32.82 21.6798C33.2104 23.576 32.979 25.5475 32.1601 27.3018C31.3412 29.0561 29.9785 30.4995 28.2741 31.4178C26.5698 32.3362 24.6148 32.6805 22.6993 32.3996C20.7838 32.1188 19.0099 31.2278 17.641 29.8588C16.272 28.4899 15.381 26.716 15.1001 24.8005C14.8193 22.885 15.1636 20.93 16.0819 19.2256C17.0003 17.5213 18.4437 16.1586 20.198 15.3397C21.9522 14.5208 23.9238 14.2893 25.82 14.6798C26.0852 14.7328 26.3606 14.6783 26.5857 14.5283C26.8107 14.3783 26.967 14.145 27.02 13.8798C27.073 13.6146 27.0186 13.3391 26.8685 13.1141C26.7185 12.889 26.4852 12.7328 26.22 12.6798C25.4882 12.5434 24.7442 12.4831 24 12.4998C21.8244 12.4998 19.6977 13.1449 17.8887 14.3536C16.0798 15.5623 14.6699 17.2803 13.8373 19.2903C13.0048 21.3002 12.7869 23.512 13.2114 25.6458C13.6358 27.7796 14.6835 29.7396 16.2218 31.278C17.7602 32.8163 19.7202 33.864 21.854 34.2884C23.9878 34.7129 26.1995 34.495 28.2095 33.6625C30.2195 32.8299 31.9375 31.42 33.1462 29.6111C34.3549 27.8021 35 25.6754 35 23.4998C35.0021 22.7609 34.9284 22.0237 34.78 21.2998C34.7561 21.1693 34.7064 21.0448 34.6338 20.9337C34.5613 20.8226 34.4674 20.727 34.3576 20.6526C34.2478 20.5781 34.1242 20.5263 33.9942 20.5C33.8641 20.4738 33.7301 20.4737 33.6 20.4998Z" fill="url(#paint5_linear_97_6504)"></path><defs><linearGradient id="paint0_linear_97_6504" x1="23.6299" y1="5.79221" x2="23.6011" y2="40.4931" gradientUnits="userSpaceOnUse"><stop stop-color="white"></stop><stop offset="1" stop-color="white" stop-opacity="0"></stop></linearGradient><linearGradient id="paint1_linear_97_6504" x1="23.6299" y1="5.79221" x2="23.6011" y2="40.4931" gradientUnits="userSpaceOnUse"><stop stop-color="white" stop-opacity="0"></stop><stop offset="1" stop-color="white"></stop></linearGradient><radialGradient id="paint2_radial_97_6504" cx="0" cy="0" r="1" gradientUnits="userSpaceOnUse" gradientTransform="translate(17.99 7.0888) rotate(80.4646) scale(33.8722 46.2084)"><stop stop-color="#7595FF"></stop><stop offset="0.201" stop-color="#7595FF" stop-opacity="0"></stop></radialGradient><radialGradient id="paint3_radial_97_6504" cx="0" cy="0" r="1" gradientUnits="userSpaceOnUse" gradientTransform="translate(33.724 37.4656) rotate(-121.56) scale(33.1053 30.0747)"><stop stop-color="#7595FF"></stop><stop offset="0.293" stop-color="#7595FF" stop-opacity="0"></stop></radialGradient><linearGradient id="paint4_linear_97_6504" x1="-3.81895" y1="-4.45141" x2="27.3945" y2="-20.8864" gradientUnits="userSpaceOnUse"><stop stop-color="#00F9FD"></stop><stop offset="0.563101" stop-color="#8376FF"></stop><stop offset="0.885" stop-color="#E40EFF"></stop></linearGradient><linearGradient id="paint5_linear_97_6504" x1="13.5145" y1="2.64415" x2="25.4283" y2="4.22521" gradientUnits="userSpaceOnUse"><stop stop-color="white" stop-opacity="0.9"></stop><stop offset="1" stop-color="white" stop-opacity="0"></stop></linearGradient></defs></svg>