<svg xmlns="http://www.w3.org/2000/svg" width="278" height="67" viewBox="0 0 278 67" fill="none"><path d="M17.239 66.4884V60.679C14.1708 60.2766 11.4044 59.3964 8.93981 58.0384C6.52551 56.6803 4.61419 54.8445 3.20584 52.5307C1.7975 50.1667 1.04303 47.3501 0.942433 44.0807H11.1278C11.2284 45.992 11.8068 47.677 12.8631 49.1356C13.9193 50.5943 15.378 51.6254 17.239 52.229V36.8378L16.56 36.6114C13.0894 35.4546 10.2979 34.1217 8.18534 32.6127C6.07283 31.0535 4.53874 29.3434 3.58308 27.4823C2.67771 25.6213 2.22503 23.5843 2.22503 21.3711C2.22503 18.3533 2.87891 15.7881 4.18665 13.6755C5.4944 11.563 7.27998 9.9032 9.54339 8.69605C11.8068 7.43859 14.372 6.68412 17.239 6.43263V0.321429H22.4448V6.43263C25.3621 6.68412 27.9776 7.43859 30.2913 8.69605C32.605 9.95349 34.466 11.6636 35.8744 13.8264C37.2827 15.939 38.0121 18.5042 38.0624 21.522H27.7261C27.6758 20.0131 27.198 18.655 26.2926 17.4479C25.3873 16.1904 24.1047 15.3102 22.4448 14.8072V28.8404L25.0855 29.7458C26.3932 30.1984 27.8519 30.7769 29.4614 31.481C31.1212 32.1852 32.7056 33.1409 34.2146 34.348C35.7235 35.5049 36.9558 36.9887 37.9115 38.7994C38.9174 40.5598 39.4204 42.7478 39.4204 45.3633C39.4204 48.4315 38.6659 51.0973 37.157 53.3607C35.6983 55.5738 33.6864 57.3342 31.1212 58.642C28.6063 59.8994 25.7142 60.6287 22.4448 60.8299V66.4884H17.239ZM22.4448 52.6816C24.507 52.4302 26.1417 51.726 27.3489 50.5691C28.556 49.4123 29.1596 47.9033 29.1596 46.0423C29.1596 44.9357 28.9836 43.9801 28.6315 43.1753C28.2794 42.3203 27.6255 41.5406 26.6699 40.8365C25.7142 40.1323 24.3059 39.4281 22.4448 38.7239V52.6816ZM17.239 26.6524V14.7318C15.8306 15.0839 14.6486 15.7629 13.693 16.7689C12.7876 17.7748 12.3349 19.0826 12.3349 20.6921C12.3349 22.0502 12.7625 23.207 13.6175 24.1627C14.5229 25.068 15.73 25.898 17.239 26.6524ZM63.8534 60.9054C59.9805 60.9054 56.686 60.176 53.9699 58.7174C51.3041 57.2085 49.1413 55.2217 47.4814 52.7571C45.9222 50.2422 44.7653 47.4758 44.0109 44.4579C43.2564 41.3897 42.8792 38.2713 42.8792 35.1025C42.8792 29.1673 43.6839 24.0621 45.2935 19.7867C46.9533 15.4611 49.2922 12.1415 52.31 9.82775C53.819 8.6206 55.504 7.74038 57.365 7.1871C59.226 6.58353 61.2379 6.28174 63.4008 6.28174C67.1228 6.28174 70.2413 7.06136 72.7562 8.6206C75.2711 10.1295 77.2327 12.066 78.641 14.43C79.3452 15.6372 79.8733 16.8946 80.2254 18.2024C80.6278 19.4598 80.8542 20.7424 80.9045 22.0502H70.1155C69.7132 20.1388 68.9838 18.655 67.9276 17.5988C66.9216 16.4922 65.3875 15.939 63.3253 15.939C61.3637 15.939 59.729 16.5677 58.4213 17.8251C57.1638 19.0826 56.2333 20.9185 55.6297 23.3328C55.0261 25.7471 54.6992 28.7146 54.6489 32.2355C55.8058 30.3745 57.365 28.8152 59.3266 27.5578C61.3385 26.3003 63.6522 25.6716 66.2677 25.6716C68.7826 25.6716 71.2472 26.3758 73.6615 27.7841C76.1261 29.1925 78.0626 31.1792 79.471 33.7444C80.9296 36.3096 81.6589 39.3778 81.6589 42.949C81.6589 46.2183 80.9045 49.2111 79.3955 51.9272C77.8866 54.6433 75.7992 56.8312 73.1334 58.4911C70.367 60.1006 67.2737 60.9054 63.8534 60.9054ZM63.2499 50.7955C64.5576 50.7955 65.7396 50.4937 66.7959 49.8901C67.9024 49.2865 68.7826 48.4315 69.4365 47.3249C70.1407 46.2183 70.4928 44.8855 70.4928 43.3262C70.4928 41.0125 69.7886 39.1515 68.3803 37.7431C66.9719 36.3348 65.1612 35.6306 62.9481 35.6306C61.6906 35.6306 60.5086 35.9576 59.4021 36.6114C58.2955 37.215 57.3901 38.0701 56.686 39.1766C55.9818 40.2832 55.6297 41.5658 55.6297 43.0244C55.6297 44.5837 55.9567 45.9417 56.6105 47.0986C57.3147 48.2554 58.2452 49.1608 59.4021 49.8147C60.5589 50.4685 61.8415 50.7955 63.2499 50.7955ZM90.0766 60L110.07 17.297H83.06V7.1871H122.745V15.4863L102.299 60H90.0766ZM161.565 60.9054C156.636 60.9054 152.587 59.9246 149.418 57.9629C146.249 56.0013 143.91 53.3858 142.401 50.1164C140.892 46.8471 140.138 43.2256 140.138 39.2521V7.1871H151.983V39.3275C151.983 42.7478 152.813 45.3884 154.473 47.2495C156.133 49.0602 158.572 49.9656 161.791 49.9656C164.96 49.9656 167.4 49.0602 169.11 47.2495C170.87 45.3884 171.75 42.7478 171.75 39.3275V7.1871H183.595V39.2521C183.595 43.3765 182.916 46.8219 181.558 49.5883C180.2 52.3547 178.415 54.5678 176.202 56.2277C174.039 57.8875 171.65 59.0946 169.034 59.8491C166.469 60.5533 163.979 60.9054 161.565 60.9054ZM207.743 60.9054C204.021 60.9054 200.626 60.3018 197.558 59.0946C194.54 57.8372 192.101 55.9762 190.24 53.5116C188.429 50.9967 187.448 47.8279 187.297 44.0052H199.821C200.022 45.7657 200.727 47.3501 201.934 48.7584C203.191 50.1667 205.077 50.8709 207.592 50.8709C209.755 50.8709 211.365 50.3931 212.421 49.4374C213.527 48.4818 214.081 47.2243 214.081 45.6651C214.081 44.9609 213.955 44.307 213.704 43.7034C213.502 43.0999 213.075 42.5214 212.421 41.9682C211.767 41.3646 210.761 40.761 209.403 40.1574C208.095 39.5539 206.335 38.9 204.122 38.1958C199.997 36.8881 196.778 35.354 194.465 33.5936C192.151 31.8331 190.516 29.9469 189.56 27.935C188.655 25.9231 188.202 23.8609 188.202 21.7484C188.253 18.3281 189.108 15.4863 190.768 13.2229C192.427 10.9092 194.641 9.17388 197.407 8.01702C200.173 6.86017 203.267 6.28174 206.687 6.28174C210.107 6.28174 213.226 6.88532 216.042 8.09247C218.909 9.24932 221.223 10.9846 222.984 13.2983C224.744 15.612 225.649 18.479 225.7 21.8993H212.874C212.823 20.5412 212.245 19.2586 211.138 18.0515C210.032 16.8443 208.397 16.2407 206.234 16.2407C204.675 16.291 203.342 16.7437 202.236 17.5988C201.179 18.4036 200.651 19.5604 200.651 21.0694C200.651 22.3771 201.204 23.5088 202.311 24.4645C203.418 25.4201 204.977 26.3003 206.989 27.1051C209.051 27.9099 211.44 28.7649 214.156 29.6703C216.218 30.3745 218.029 31.2044 219.588 32.1601C221.198 33.0654 222.531 34.1468 223.587 35.4043C224.643 36.6114 225.448 37.9946 226.001 39.5539C226.555 41.1131 226.831 42.8735 226.831 44.8352C226.831 48.0542 226.001 50.8709 224.342 53.2852C222.732 55.6995 220.494 57.5857 217.627 58.9437C214.76 60.2515 211.465 60.9054 207.743 60.9054ZM230.843 60V7.1871H250.082C256.42 7.1871 261.575 8.34396 265.549 10.6577C269.572 12.9211 272.515 16.0396 274.376 20.0131C276.237 23.9363 277.167 28.438 277.167 33.5181C277.167 39.3024 276.061 44.1813 273.848 48.1548C271.685 52.0781 268.566 55.0456 264.492 57.0576C260.468 59.0192 255.665 60 250.082 60H230.843ZM242.764 49.6638H249.478C253.603 49.6638 256.772 48.9847 258.985 47.6267C261.248 46.2686 262.807 44.3825 263.662 41.9682C264.568 39.5539 265.02 36.7372 265.02 33.5181C265.02 27.8344 263.713 23.7351 261.097 21.2202C258.532 18.655 254.659 17.3725 249.478 17.3725H242.764V49.6638Z" fill="url(#paint0_linear_110_7206)"></path><defs><linearGradient id="paint0_linear_110_7206" x1="-2" y1="33.5" x2="280" y2="33.5" gradientUnits="userSpaceOnUse"><stop stop-color="#08041F"></stop><stop offset="1" stop-color="#2D1964"></stop></linearGradient></defs></svg>