<svg xmlns="http://www.w3.org/2000/svg" width="48" height="47" viewBox="0 0 48 47" fill="none"><path d="M47 23.5C47 10.7975 36.7025 0.5 24 0.5C11.2975 0.5 1 10.7975 1 23.5C1 36.2025 11.2975 46.5 24 46.5C36.7025 46.5 47 36.2025 47 23.5Z" stroke="white" stroke-opacity="0.15" stroke-width="0.836364"></path><path d="M40.5322 23.1567C40.54 13.8139 32.9724 6.23373 23.6296 6.22597C14.2867 6.21821 6.7066 13.7858 6.69884 23.1286C6.69108 32.4714 14.2586 40.0516 23.6015 40.0593C32.9443 40.0671 40.5244 32.4995 40.5322 23.1567Z" fill="url(#paint0_linear_97_6544)" fill-opacity="0.15"></path><path d="M40.5322 23.1567C40.54 13.8139 32.9724 6.23373 23.6296 6.22597C14.2867 6.21821 6.7066 13.7858 6.69884 23.1286C6.69108 32.4714 14.2586 40.0516 23.6015 40.0593C32.9443 40.0671 40.5244 32.4995 40.5322 23.1567Z" stroke="url(#paint1_linear_97_6544)" stroke-opacity="0.15" stroke-width="0.867522"></path><path d="M40.5322 23.1567C40.54 13.8139 32.9724 6.23373 23.6296 6.22597C14.2867 6.21821 6.7066 13.7858 6.69884 23.1286C6.69108 32.4714 14.2586 40.0516 23.6015 40.0593C32.9443 40.0671 40.5244 32.4995 40.5322 23.1567Z" stroke="url(#paint2_radial_97_6544)" stroke-width="0.867522"></path><path d="M40.5322 23.1567C40.54 13.8139 32.9724 6.23373 23.6296 6.22597C14.2867 6.21821 6.7066 13.7858 6.69884 23.1286C6.69108 32.4714 14.2586 40.0516 23.6015 40.0593C32.9443 40.0671 40.5244 32.4995 40.5322 23.1567Z" stroke="url(#paint3_radial_97_6544)" stroke-width="0.867522"></path><path d="M17.931 18.436L19.206 22.685M24.813 28.294L29.064 29.569M23.683 23.817L29.442 18.058M16 17C16 17.197 16.0388 17.392 16.1142 17.574C16.1896 17.756 16.3001 17.9214 16.4393 18.0607C16.5786 18.1999 16.744 18.3104 16.926 18.3858C17.108 18.4612 17.303 18.5 17.5 18.5C17.697 18.5 17.892 18.4612 18.074 18.3858C18.256 18.3104 18.4214 18.1999 18.5607 18.0607C18.6999 17.9214 18.8104 17.756 18.8858 17.574C18.9612 17.392 19 17.197 19 17C19 16.803 18.9612 16.608 18.8858 16.426C18.8104 16.244 18.6999 16.0786 18.5607 15.9393C18.4214 15.8001 18.256 15.6896 18.074 15.6142C17.892 15.5388 17.697 15.5 17.5 15.5C17.303 15.5 17.108 15.5388 16.926 15.6142C16.744 15.6896 16.5786 15.8001 16.4393 15.9393C16.3001 16.0786 16.1896 16.244 16.1142 16.426C16.0388 16.608 16 16.803 16 17ZM29 17C29 17.3978 29.158 17.7794 29.4393 18.0607C29.7206 18.342 30.1022 18.5 30.5 18.5C30.8978 18.5 31.2794 18.342 31.5607 18.0607C31.842 17.7794 32 17.3978 32 17C32 16.6022 31.842 16.2206 31.5607 15.9393C31.2794 15.658 30.8978 15.5 30.5 15.5C30.1022 15.5 29.7206 15.658 29.4393 15.9393C29.158 16.2206 29 16.6022 29 17ZM29 30C29 30.3978 29.158 30.7794 29.4393 31.0607C29.7206 31.342 30.1022 31.5 30.5 31.5C30.8978 31.5 31.2794 31.342 31.5607 31.0607C31.842 30.7794 32 30.3978 32 30C32 29.6022 31.842 29.2206 31.5607 28.9393C31.2794 28.658 30.8978 28.5 30.5 28.5C30.1022 28.5 29.7206 28.658 29.4393 28.9393C29.158 29.2206 29 29.6022 29 30ZM16 27C16 28.1935 16.4741 29.3381 17.318 30.182C18.1619 31.0259 19.3065 31.5 20.5 31.5C21.6935 31.5 22.8381 31.0259 23.682 30.182C24.5259 29.3381 25 28.1935 25 27C25 25.8065 24.5259 24.6619 23.682 23.818C22.8381 22.9741 21.6935 22.5 20.5 22.5C19.3065 22.5 18.1619 22.9741 17.318 23.818C16.4741 24.6619 16 25.8065 16 27Z" stroke="black" stroke-width="1.8" stroke-linecap="round" stroke-linejoin="round"></path><path d="M17.931 18.436L19.206 22.685M24.813 28.294L29.064 29.569M23.683 23.817L29.442 18.058M16 17C16 17.197 16.0388 17.392 16.1142 17.574C16.1896 17.756 16.3001 17.9214 16.4393 18.0607C16.5786 18.1999 16.744 18.3104 16.926 18.3858C17.108 18.4612 17.303 18.5 17.5 18.5C17.697 18.5 17.892 18.4612 18.074 18.3858C18.256 18.3104 18.4214 18.1999 18.5607 18.0607C18.6999 17.9214 18.8104 17.756 18.8858 17.574C18.9612 17.392 19 17.197 19 17C19 16.803 18.9612 16.608 18.8858 16.426C18.8104 16.244 18.6999 16.0786 18.5607 15.9393C18.4214 15.8001 18.256 15.6896 18.074 15.6142C17.892 15.5388 17.697 15.5 17.5 15.5C17.303 15.5 17.108 15.5388 16.926 15.6142C16.744 15.6896 16.5786 15.8001 16.4393 15.9393C16.3001 16.0786 16.1896 16.244 16.1142 16.426C16.0388 16.608 16 16.803 16 17ZM29 17C29 17.3978 29.158 17.7794 29.4393 18.0607C29.7206 18.342 30.1022 18.5 30.5 18.5C30.8978 18.5 31.2794 18.342 31.5607 18.0607C31.842 17.7794 32 17.3978 32 17C32 16.6022 31.842 16.2206 31.5607 15.9393C31.2794 15.658 30.8978 15.5 30.5 15.5C30.1022 15.5 29.7206 15.658 29.4393 15.9393C29.158 16.2206 29 16.6022 29 17ZM29 30C29 30.3978 29.158 30.7794 29.4393 31.0607C29.7206 31.342 30.1022 31.5 30.5 31.5C30.8978 31.5 31.2794 31.342 31.5607 31.0607C31.842 30.7794 32 30.3978 32 30C32 29.6022 31.842 29.2206 31.5607 28.9393C31.2794 28.658 30.8978 28.5 30.5 28.5C30.1022 28.5 29.7206 28.658 29.4393 28.9393C29.158 29.2206 29 29.6022 29 30ZM16 27C16 28.1935 16.4741 29.3381 17.318 30.182C18.1619 31.0259 19.3065 31.5 20.5 31.5C21.6935 31.5 22.8381 31.0259 23.682 30.182C24.5259 29.3381 25 28.1935 25 27C25 25.8065 24.5259 24.6619 23.682 23.818C22.8381 22.9741 21.6935 22.5 20.5 22.5C19.3065 22.5 18.1619 22.9741 17.318 23.818C16.4741 24.6619 16 25.8065 16 27Z" stroke="url(#paint4_linear_97_6544)" stroke-width="1.8" stroke-linecap="round" stroke-linejoin="round"></path><path d="M17.931 18.436L19.206 22.685M24.813 28.294L29.064 29.569M23.683 23.817L29.442 18.058M16 17C16 17.197 16.0388 17.392 16.1142 17.574C16.1896 17.756 16.3001 17.9214 16.4393 18.0607C16.5786 18.1999 16.744 18.3104 16.926 18.3858C17.108 18.4612 17.303 18.5 17.5 18.5C17.697 18.5 17.892 18.4612 18.074 18.3858C18.256 18.3104 18.4214 18.1999 18.5607 18.0607C18.6999 17.9214 18.8104 17.756 18.8858 17.574C18.9612 17.392 19 17.197 19 17C19 16.803 18.9612 16.608 18.8858 16.426C18.8104 16.244 18.6999 16.0786 18.5607 15.9393C18.4214 15.8001 18.256 15.6896 18.074 15.6142C17.892 15.5388 17.697 15.5 17.5 15.5C17.303 15.5 17.108 15.5388 16.926 15.6142C16.744 15.6896 16.5786 15.8001 16.4393 15.9393C16.3001 16.0786 16.1896 16.244 16.1142 16.426C16.0388 16.608 16 16.803 16 17ZM29 17C29 17.3978 29.158 17.7794 29.4393 18.0607C29.7206 18.342 30.1022 18.5 30.5 18.5C30.8978 18.5 31.2794 18.342 31.5607 18.0607C31.842 17.7794 32 17.3978 32 17C32 16.6022 31.842 16.2206 31.5607 15.9393C31.2794 15.658 30.8978 15.5 30.5 15.5C30.1022 15.5 29.7206 15.658 29.4393 15.9393C29.158 16.2206 29 16.6022 29 17ZM29 30C29 30.3978 29.158 30.7794 29.4393 31.0607C29.7206 31.342 30.1022 31.5 30.5 31.5C30.8978 31.5 31.2794 31.342 31.5607 31.0607C31.842 30.7794 32 30.3978 32 30C32 29.6022 31.842 29.2206 31.5607 28.9393C31.2794 28.658 30.8978 28.5 30.5 28.5C30.1022 28.5 29.7206 28.658 29.4393 28.9393C29.158 29.2206 29 29.6022 29 30ZM16 27C16 28.1935 16.4741 29.3381 17.318 30.182C18.1619 31.0259 19.3065 31.5 20.5 31.5C21.6935 31.5 22.8381 31.0259 23.682 30.182C24.5259 29.3381 25 28.1935 25 27C25 25.8065 24.5259 24.6619 23.682 23.818C22.8381 22.9741 21.6935 22.5 20.5 22.5C19.3065 22.5 18.1619 22.9741 17.318 23.818C16.4741 24.6619 16 25.8065 16 27Z" stroke="url(#paint5_linear_97_6544)" stroke-width="1.8" stroke-linecap="round" stroke-linejoin="round"></path><defs><linearGradient id="paint0_linear_97_6544" x1="23.6299" y1="5.79221" x2="23.6011" y2="40.4931" gradientUnits="userSpaceOnUse"><stop stop-color="white"></stop><stop offset="1" stop-color="white" stop-opacity="0"></stop></linearGradient><linearGradient id="paint1_linear_97_6544" x1="23.6299" y1="5.79221" x2="23.6011" y2="40.4931" gradientUnits="userSpaceOnUse"><stop stop-color="white" stop-opacity="0"></stop><stop offset="1" stop-color="white"></stop></linearGradient><radialGradient id="paint2_radial_97_6544" cx="0" cy="0" r="1" gradientUnits="userSpaceOnUse" gradientTransform="translate(17.99 7.0888) rotate(80.4646) scale(33.8722 46.2084)"><stop stop-color="#7595FF"></stop><stop offset="0.201" stop-color="#7595FF" stop-opacity="0"></stop></radialGradient><radialGradient id="paint3_radial_97_6544" cx="0" cy="0" r="1" gradientUnits="userSpaceOnUse" gradientTransform="translate(33.724 37.4656) rotate(-121.56) scale(33.1053 30.0747)"><stop stop-color="#7595FF"></stop><stop offset="0.293" stop-color="#7595FF" stop-opacity="0"></stop></radialGradient><linearGradient id="paint4_linear_97_6544" x1="3.76806" y1="3.17535" x2="26.4675" y2="-8.77818" gradientUnits="userSpaceOnUse"><stop stop-color="#00F9FD"></stop><stop offset="0.563101" stop-color="#8376FF"></stop><stop offset="0.885" stop-color="#E40EFF"></stop></linearGradient><linearGradient id="paint5_linear_97_6544" x1="16.3742" y1="8.33512" x2="25.0387" y2="9.48511" gradientUnits="userSpaceOnUse"><stop stop-color="white" stop-opacity="0.9"></stop><stop offset="1" stop-color="white" stop-opacity="0"></stop></linearGradient></defs></svg>