<svg xmlns="http://www.w3.org/2000/svg" width="334" height="332" viewBox="0 0 334 332" fill="none"><path d="M133.464 0L103.84 86.5951H106.574C125.716 61.0723 139.389 54.6917 189.979 54.6917H282.955C252.119 89.2549 222.165 124.196 195.294 159H227.569C253.446 106.482 288.12 54.2575 334 1.82306V0H133.464Z" fill="white"></path><path d="M133.464 0L103.84 86.5951H106.574C125.716 61.0723 139.389 54.6917 189.979 54.6917H282.955C252.119 89.2549 222.165 124.196 195.294 159H227.569C253.446 106.482 288.12 54.2575 334 1.82306V0H133.464Z" fill="url(#paint0_linear_207_8376)"></path><path d="M133.464 0L103.84 86.5951H106.574C125.716 61.0723 139.389 54.6917 189.979 54.6917H282.955C252.119 89.2549 222.165 124.196 195.294 159H227.569C253.446 106.482 288.12 54.2575 334 1.82306V0H133.464Z" fill="url(#paint1_linear_207_8376)" fill-opacity="0.9"></path><path d="M133.464 0L103.84 86.5951H106.574C125.716 61.0723 139.389 54.6917 189.979 54.6917H282.955C252.119 89.2549 222.165 124.196 195.294 159H227.569C253.446 106.482 288.12 54.2575 334 1.82306V0H133.464Z" fill="url(#paint2_linear_207_8376)"></path><path d="M189.048 257H129.155C114.975 282.348 103.652 307.351 96.0918 331.796H171.293C175.782 306.698 181.618 281.783 189.048 257Z" fill="white"></path><path d="M189.048 257H129.155C114.975 282.348 103.652 307.351 96.0918 331.796H171.293C175.782 306.698 181.618 281.783 189.048 257Z" fill="url(#paint3_linear_207_8376)"></path><path d="M189.048 257H129.155C114.975 282.348 103.652 307.351 96.0918 331.796H171.293C175.782 306.698 181.618 281.783 189.048 257Z" fill="url(#paint4_linear_207_8376)" fill-opacity="0.9"></path><path d="M189.048 257H129.155C114.975 282.348 103.652 307.351 96.0918 331.796H171.293C175.782 306.698 181.618 281.783 189.048 257Z" fill="url(#paint5_linear_207_8376)"></path><path d="M2.00507 162.607V132.745H12.8837C16.4672 132.745 19.3824 133.399 21.6292 134.707C23.9044 135.987 25.5682 137.75 26.6205 139.997C27.6728 142.215 28.199 144.761 28.199 147.633C28.199 150.904 27.5733 153.663 26.3219 155.91C25.0989 158.128 23.3356 159.806 21.0319 160.944C18.7567 162.053 16.0406 162.607 12.8837 162.607H2.00507ZM8.74553 156.763H12.5424C14.8745 156.763 16.6663 156.379 17.9177 155.611C19.1975 154.843 20.0792 153.777 20.5627 152.411C21.0746 151.046 21.3306 149.454 21.3306 147.633C21.3306 144.42 20.5911 142.102 19.1122 140.68C17.6617 139.229 15.4718 138.504 12.5424 138.504H8.74553V156.763ZM31.4189 162.607V132.745H38.1594V162.607H31.4189ZM29.7125 131.081V126.473L39.8231 121.397V126.729L29.7125 131.081ZM40.2884 162.607L51.1243 132.745H58.846L69.7246 162.607H62.6002L60.5098 156.422H49.4179L47.2848 162.607H40.2884ZM51.295 151.046H58.6753L54.9212 140.168L51.295 151.046ZM80.9948 163.119C78.8902 163.119 76.9704 162.778 75.2355 162.095C73.5291 161.384 72.1497 160.332 71.0974 158.939C70.0735 157.517 69.5189 155.725 69.4336 153.563H76.5153C76.6291 154.559 77.0273 155.455 77.7099 156.251C78.4209 157.047 79.4874 157.445 80.9094 157.445C82.1324 157.445 83.0425 157.175 83.6398 156.635C84.2654 156.094 84.5783 155.383 84.5783 154.502C84.5783 154.104 84.5072 153.734 84.365 153.393C84.2512 153.051 84.0095 152.724 83.6398 152.411C83.27 152.07 82.7012 151.729 81.9333 151.388C81.1939 151.046 80.1984 150.677 78.947 150.278C76.6149 149.539 74.7947 148.671 73.4864 147.676C72.1781 146.681 71.2538 145.614 70.7134 144.476C70.2015 143.339 69.9455 142.173 69.9455 140.978C69.974 139.044 70.4575 137.437 71.396 136.158C72.3346 134.849 73.586 133.868 75.1502 133.214C76.7144 132.56 78.4635 132.233 80.3975 132.233C82.3315 132.233 84.0948 132.574 85.6875 133.257C87.3086 133.911 88.6169 134.892 89.6123 136.2C90.6077 137.508 91.1197 139.13 91.1481 141.064H83.8957C83.8673 140.296 83.5402 139.57 82.9145 138.888C82.2888 138.205 81.3645 137.864 80.1415 137.864C79.2599 137.892 78.5062 138.148 77.8805 138.632C77.2832 139.087 76.9846 139.741 76.9846 140.594C76.9846 141.334 77.2975 141.974 77.9232 142.514C78.5489 143.054 79.4305 143.552 80.5682 144.007C81.7342 144.462 83.0852 144.946 84.621 145.458C85.787 145.856 86.8109 146.325 87.6926 146.865C88.6027 147.377 89.3563 147.989 89.9536 148.7C90.5509 149.382 91.0059 150.165 91.3188 151.046C91.6316 151.928 91.788 152.923 91.788 154.033C91.788 155.853 91.3188 157.445 90.3802 158.811C89.4701 160.176 88.2045 161.242 86.5834 162.01C84.9622 162.75 83.0994 163.119 80.9948 163.119ZM103.867 162.607V132.745H114.745C118.329 132.745 121.244 133.399 123.491 134.707C125.766 135.987 127.43 137.75 128.482 139.997C129.535 142.215 130.061 144.761 130.061 147.633C130.061 150.904 129.435 153.663 128.184 155.91C126.961 158.128 125.197 159.806 122.894 160.944C120.618 162.053 117.902 162.607 114.745 162.607H103.867ZM110.607 156.763H114.404C116.736 156.763 118.528 156.379 119.779 155.611C121.059 154.843 121.941 153.777 122.424 152.411C122.936 151.046 123.192 149.454 123.192 147.633C123.192 144.42 122.453 142.102 120.974 140.68C119.523 139.229 117.333 138.504 114.404 138.504H110.607V156.763ZM133.238 162.607V132.745H152.862V138.547H139.978V143.965H150.857V149.766H139.978V156.806H152.862V162.607H133.238ZM15.23 203.119C12.4144 203.119 9.94004 202.494 7.80698 201.242C5.70237 199.962 4.06703 198.185 2.90096 195.91C1.73488 193.634 1.15185 190.975 1.15185 187.932C1.15185 185.003 1.72066 182.358 2.85829 179.997C4.02436 177.636 5.73081 175.759 7.97763 174.366C10.2529 172.944 13.0543 172.233 16.3819 172.233C19.9654 172.233 22.9232 173.086 25.2554 174.792C27.616 176.499 29.1518 178.874 29.8628 181.917H22.4397C21.9847 180.808 21.2595 179.954 20.264 179.357C19.2686 178.731 17.9745 178.419 16.3819 178.419C14.7607 178.419 13.3245 178.803 12.0731 179.57C10.8217 180.31 9.82627 181.391 9.08682 182.813C8.3758 184.235 8.02029 185.97 8.02029 188.017C8.02029 190.008 8.3758 191.686 9.08682 193.051C9.79783 194.416 10.7506 195.44 11.9451 196.123C13.1681 196.806 14.519 197.147 15.9979 197.147C18.131 197.147 19.7948 196.692 20.9893 195.782C22.1838 194.843 23.0086 193.634 23.4636 192.155H14.8034V186.354H30.4174V202.607H24.2315L23.7196 199.323C22.8379 200.545 21.7003 201.484 20.3067 202.138C18.9415 202.792 17.2493 203.119 15.23 203.119ZM32.0811 202.607L42.9171 172.745H50.6387L61.5173 202.607H54.3929L52.3025 196.422H41.2106L39.0776 202.607H32.0811ZM43.0877 191.046H50.4681L46.7139 180.168L43.0877 191.046ZM63.5387 202.607V172.745H74.9292C76.977 172.745 78.7829 173.1 80.3472 173.811C81.9114 174.522 83.1344 175.546 84.016 176.883C84.8977 178.191 85.3385 179.755 85.3385 181.575C85.3385 183.566 84.7982 185.23 83.7174 186.567C82.6367 187.904 81.1435 188.856 79.238 189.425L87.3863 202.607H79.6219L72.4975 190.449H70.2792V202.607H63.5387ZM70.2792 184.732H74.8012C75.8535 184.732 76.6357 184.576 77.1476 184.263C77.688 183.922 78.0577 183.509 78.2568 183.026C78.4559 182.542 78.5554 182.059 78.5554 181.575C78.5554 181.092 78.4559 180.623 78.2568 180.168C78.0577 179.684 77.688 179.286 77.1476 178.973C76.6357 178.66 75.8535 178.504 74.8012 178.504H70.2792V184.732ZM87.6572 202.607L98.4932 172.745H106.215L117.093 202.607H109.969L107.879 196.422H96.7867L94.6537 202.607H87.6572ZM98.6638 191.046H106.044L102.29 180.168L98.6638 191.046ZM118.032 202.607V172.745H124.772L137.528 191.558V172.745H144.268V202.607H137.528L124.772 183.879V202.607H118.032ZM155.231 202.607V178.547H146.657V172.745H170.547V178.547H161.929V202.607H155.231ZM173.067 202.607V172.745H179.808V202.607H173.067ZM181.937 202.607L192.773 172.745H200.494L211.373 202.607H204.248L202.158 196.422H191.066L188.933 202.607H181.937ZM192.943 191.046H200.324L196.569 180.168L192.943 191.046Z" fill="white"></path><path d="M6.36333 247.401L10.3518 234.229L0 226.776H12.8898L17.0142 213.091L21.1411 226.776H34.0284L23.6765 234.229L27.665 247.401L17.0142 239.305L6.36333 247.401Z" fill="#FFBC00"></path><path d="M44.2032 247.401L48.1917 234.229L37.8398 226.776H50.7296L54.854 213.091L58.9809 226.776H71.8682L61.5164 234.229L65.5049 247.401L54.854 239.305L44.2032 247.401Z" fill="#FFBC00"></path><path d="M82.045 247.401L86.0335 234.229L75.6816 226.776H88.5714L92.6958 213.091L96.8227 226.776H109.71L99.3582 234.229L103.347 247.401L92.6958 239.305L82.045 247.401Z" fill="#FFBC00"></path><path d="M119.885 247.401L123.873 234.229L113.521 226.776H126.411L130.536 213.091L134.663 226.776H147.55L137.198 234.229L141.187 247.401L130.536 239.305L119.885 247.401Z" fill="#FFBC00"></path><path d="M157.727 247.401L161.715 234.229L151.363 226.776H164.253L168.377 213.091L172.504 226.776H185.392L175.04 234.229L179.028 247.401L168.377 239.305L157.727 247.401Z" fill="#FFBC00"></path><defs><linearGradient id="paint0_linear_207_8376" x1="30.07" y1="-202.351" x2="-242.913" y2="326.657" gradientUnits="userSpaceOnUse"><stop stop-color="white"></stop><stop offset="0.200614" stop-color="#D140E3"></stop><stop offset="0.293021" stop-color="#3E41B4"></stop><stop offset="0.474818" stop-color="#CDF1FF"></stop><stop offset="1" stop-color="#3D3D9A"></stop></linearGradient><linearGradient id="paint1_linear_207_8376" x1="83.4531" y1="-131.612" x2="245.425" y2="-129.228" gradientUnits="userSpaceOnUse"><stop stop-color="#00F9FD"></stop><stop offset="1" stop-color="#4B55DB"></stop></linearGradient><linearGradient id="paint2_linear_207_8376" x1="175.501" y1="-102.5" x2="239.574" y2="149.481" gradientUnits="userSpaceOnUse"><stop offset="0.29896" stop-color="white" stop-opacity="0.9"></stop><stop offset="1" stop-color="white" stop-opacity="0"></stop></linearGradient><linearGradient id="paint3_linear_207_8376" x1="30.07" y1="-202.351" x2="-242.913" y2="326.657" gradientUnits="userSpaceOnUse"><stop stop-color="white"></stop><stop offset="0.200614" stop-color="#D140E3"></stop><stop offset="0.293021" stop-color="#3E41B4"></stop><stop offset="0.474818" stop-color="#CDF1FF"></stop><stop offset="1" stop-color="#3D3D9A"></stop></linearGradient><linearGradient id="paint4_linear_207_8376" x1="83.4531" y1="-131.612" x2="245.425" y2="-129.228" gradientUnits="userSpaceOnUse"><stop stop-color="#00F9FD"></stop><stop offset="1" stop-color="#4B55DB"></stop></linearGradient><linearGradient id="paint5_linear_207_8376" x1="175.501" y1="-102.5" x2="239.574" y2="149.481" gradientUnits="userSpaceOnUse"><stop offset="0.29896" stop-color="white" stop-opacity="0.9"></stop><stop offset="1" stop-color="white" stop-opacity="0"></stop></linearGradient></defs></svg>