<svg xmlns="http://www.w3.org/2000/svg" width="59" height="91" viewBox="0 0 59 91" fill="none"><path d="M49.9119 79.9466C45.5196 74.1356 41.4613 68.7035 37.3166 63.3212C36.9826 62.9424 36.2659 62.8988 34.9432 62.4047C36.1818 65.3485 36.9874 67.7419 38.1387 69.9357C41.2336 75.6954 44.4518 81.2695 47.7195 86.9294C48.1156 87.6155 48.4252 88.3514 48.9942 88.9376C50.7137 90.9177 52.6289 90.8411 53.9239 88.4926C54.5282 87.3434 54.9966 86.1582 55.329 84.9372C56.5847 80.3247 57.7045 75.6762 58.8242 71.0278C59.0458 70.2138 58.8596 69.2923 58.8705 67.9139C54.3629 70.2877 55.6777 75.3599 52.7646 78.2996C52.4919 77.428 52.1822 76.692 52.0085 75.9919C45.0374 49.1446 31.0274 26.4756 11.5344 7.0865C9.54301 5.0347 7.25534 3.26828 5.0541 1.45196C3.92872 0.500923 2.38369 0.0208545 1.31023 1.55534C0.187257 3.00408 0.88041 4.20466 2.2777 5.22739C18.0557 16.585 28.2408 32.4294 37.4876 49.0442C42.3523 57.6697 46.2535 66.6228 49.0678 76.089C49.4026 77.2677 49.651 78.4965 49.9119 79.9466Z" fill="black"></path></svg>