<svg xmlns="http://www.w3.org/2000/svg" width="48" height="48" viewBox="0 0 48 48" fill="none"><path d="M47 24C47 11.2975 36.7025 1 24 1C11.2975 1 1 11.2975 1 24C1 36.7025 11.2975 47 24 47C36.7025 47 47 36.7025 47 24Z" stroke="white" stroke-opacity="0.15" stroke-width="0.836364"></path><path d="M40.5322 23.6567C40.54 14.3139 32.9724 6.73373 23.6296 6.72597C14.2867 6.71821 6.7066 14.2858 6.69884 23.6286C6.69108 32.9714 14.2586 40.5516 23.6015 40.5593C32.9443 40.5671 40.5244 32.9995 40.5322 23.6567Z" fill="url(#paint0_linear_97_6490)" fill-opacity="0.15"></path><path d="M40.5322 23.6567C40.54 14.3139 32.9724 6.73373 23.6296 6.72597C14.2867 6.71821 6.7066 14.2858 6.69884 23.6286C6.69108 32.9714 14.2586 40.5516 23.6015 40.5593C32.9443 40.5671 40.5244 32.9995 40.5322 23.6567Z" stroke="url(#paint1_linear_97_6490)" stroke-opacity="0.15" stroke-width="0.867522"></path><path d="M40.5322 23.6567C40.54 14.3139 32.9724 6.73373 23.6296 6.72597C14.2867 6.71821 6.7066 14.2858 6.69884 23.6286C6.69108 32.9714 14.2586 40.5516 23.6015 40.5593C32.9443 40.5671 40.5244 32.9995 40.5322 23.6567Z" stroke="url(#paint2_radial_97_6490)" stroke-width="0.867522"></path><path d="M40.5322 23.6567C40.54 14.3139 32.9724 6.73373 23.6296 6.72597C14.2867 6.71821 6.7066 14.2858 6.69884 23.6286C6.69108 32.9714 14.2586 40.5516 23.6015 40.5593C32.9443 40.5671 40.5244 32.9995 40.5322 23.6567Z" stroke="url(#paint3_radial_97_6490)" stroke-width="0.867522"></path><path d="M29.3992 23.9997C28.7001 23.4137 27.8112 23.1026 26.8992 23.1247H21.0367C20.7694 23.1315 20.5035 23.0842 20.2549 22.9858C20.0063 22.8873 19.7801 22.7398 19.5899 22.5519C19.3997 22.364 19.2493 22.1396 19.1478 21.8922C19.0463 21.6449 18.9958 21.3796 18.9992 21.1122C18.9927 21.0081 18.9927 20.9038 18.9992 20.7997C19.078 20.322 19.3286 19.8894 19.7037 19.5833C20.0789 19.2772 20.5529 19.1186 21.0367 19.1372H26.8117C27.2828 19.1368 27.7387 19.3037 28.0982 19.6082C28.4576 19.9127 28.6972 20.335 28.7742 20.7997H30.6492C30.5707 19.8359 30.1324 18.9369 29.4214 18.2814C28.7104 17.626 27.7787 17.2622 26.8117 17.2622H24.8367V14.3872H23.2742V17.2622H21.0367C20.0697 17.2622 19.1381 17.626 18.4271 18.2814C17.716 18.9369 17.2777 19.8359 17.1992 20.7997C17.1927 20.9038 17.1927 21.0081 17.1992 21.1122C17.1992 21.6162 17.2985 22.1152 17.4913 22.5808C17.6842 23.0463 17.9669 23.4694 18.3232 23.8257C19.0429 24.5454 20.019 24.9497 21.0367 24.9497H26.9617C27.2269 24.943 27.4907 24.9895 27.7377 25.0864C27.9846 25.1833 28.2096 25.3286 28.3995 25.5139C28.5894 25.6991 28.7403 25.9204 28.8433 26.1649C28.9463 26.4093 28.9993 26.6719 28.9992 26.9372C29.0113 27.0786 29.0113 27.2208 28.9992 27.3622C28.9 27.802 28.6541 28.195 28.3021 28.4767C27.95 28.7583 27.5126 28.9119 27.0617 28.9122H21.1867C20.7358 28.9119 20.2985 28.7583 19.9464 28.4767C19.5943 28.195 19.3485 27.802 19.2492 27.3622H17.3617C17.4691 28.3014 17.9184 29.1682 18.6237 29.7976C19.3291 30.4269 20.2414 30.7747 21.1867 30.7747H23.2742V33.6122H24.8367V30.7747H26.9617C27.907 30.7747 28.8193 30.4269 29.5247 29.7976C30.2301 29.1682 30.6793 28.3014 30.7867 27.3622V26.9372C30.7852 26.3757 30.6601 25.8215 30.4203 25.3138C30.1805 24.8062 29.8319 24.3575 29.3992 23.9997Z" fill="black"></path><path d="M29.3992 23.9997C28.7001 23.4137 27.8112 23.1026 26.8992 23.1247H21.0367C20.7694 23.1315 20.5035 23.0842 20.2549 22.9858C20.0063 22.8873 19.7801 22.7398 19.5899 22.5519C19.3997 22.364 19.2493 22.1396 19.1478 21.8922C19.0463 21.6449 18.9958 21.3796 18.9992 21.1122C18.9927 21.0081 18.9927 20.9038 18.9992 20.7997C19.078 20.322 19.3286 19.8894 19.7037 19.5833C20.0789 19.2772 20.5529 19.1186 21.0367 19.1372H26.8117C27.2828 19.1368 27.7387 19.3037 28.0982 19.6082C28.4576 19.9127 28.6972 20.335 28.7742 20.7997H30.6492C30.5707 19.8359 30.1324 18.9369 29.4214 18.2814C28.7104 17.626 27.7787 17.2622 26.8117 17.2622H24.8367V14.3872H23.2742V17.2622H21.0367C20.0697 17.2622 19.1381 17.626 18.4271 18.2814C17.716 18.9369 17.2777 19.8359 17.1992 20.7997C17.1927 20.9038 17.1927 21.0081 17.1992 21.1122C17.1992 21.6162 17.2985 22.1152 17.4913 22.5808C17.6842 23.0463 17.9669 23.4694 18.3232 23.8257C19.0429 24.5454 20.019 24.9497 21.0367 24.9497H26.9617C27.2269 24.943 27.4907 24.9895 27.7377 25.0864C27.9846 25.1833 28.2096 25.3286 28.3995 25.5139C28.5894 25.6991 28.7403 25.9204 28.8433 26.1649C28.9463 26.4093 28.9993 26.6719 28.9992 26.9372C29.0113 27.0786 29.0113 27.2208 28.9992 27.3622C28.9 27.802 28.6541 28.195 28.3021 28.4767C27.95 28.7583 27.5126 28.9119 27.0617 28.9122H21.1867C20.7358 28.9119 20.2985 28.7583 19.9464 28.4767C19.5943 28.195 19.3485 27.802 19.2492 27.3622H17.3617C17.4691 28.3014 17.9184 29.1682 18.6237 29.7976C19.3291 30.4269 20.2414 30.7747 21.1867 30.7747H23.2742V33.6122H24.8367V30.7747H26.9617C27.907 30.7747 28.8193 30.4269 29.5247 29.7976C30.2301 29.1682 30.6793 28.3014 30.7867 27.3622V26.9372C30.7852 26.3757 30.6601 25.8215 30.4203 25.3138C30.1805 24.8062 29.8319 24.3575 29.3992 23.9997Z" fill="url(#paint4_linear_97_6490)"></path><path d="M29.3992 23.9997C28.7001 23.4137 27.8112 23.1026 26.8992 23.1247H21.0367C20.7694 23.1315 20.5035 23.0842 20.2549 22.9858C20.0063 22.8873 19.7801 22.7398 19.5899 22.5519C19.3997 22.364 19.2493 22.1396 19.1478 21.8922C19.0463 21.6449 18.9958 21.3796 18.9992 21.1122C18.9927 21.0081 18.9927 20.9038 18.9992 20.7997C19.078 20.322 19.3286 19.8894 19.7037 19.5833C20.0789 19.2772 20.5529 19.1186 21.0367 19.1372H26.8117C27.2828 19.1368 27.7387 19.3037 28.0982 19.6082C28.4576 19.9127 28.6972 20.335 28.7742 20.7997H30.6492C30.5707 19.8359 30.1324 18.9369 29.4214 18.2814C28.7104 17.626 27.7787 17.2622 26.8117 17.2622H24.8367V14.3872H23.2742V17.2622H21.0367C20.0697 17.2622 19.1381 17.626 18.4271 18.2814C17.716 18.9369 17.2777 19.8359 17.1992 20.7997C17.1927 20.9038 17.1927 21.0081 17.1992 21.1122C17.1992 21.6162 17.2985 22.1152 17.4913 22.5808C17.6842 23.0463 17.9669 23.4694 18.3232 23.8257C19.0429 24.5454 20.019 24.9497 21.0367 24.9497H26.9617C27.2269 24.943 27.4907 24.9895 27.7377 25.0864C27.9846 25.1833 28.2096 25.3286 28.3995 25.5139C28.5894 25.6991 28.7403 25.9204 28.8433 26.1649C28.9463 26.4093 28.9993 26.6719 28.9992 26.9372C29.0113 27.0786 29.0113 27.2208 28.9992 27.3622C28.9 27.802 28.6541 28.195 28.3021 28.4767C27.95 28.7583 27.5126 28.9119 27.0617 28.9122H21.1867C20.7358 28.9119 20.2985 28.7583 19.9464 28.4767C19.5943 28.195 19.3485 27.802 19.2492 27.3622H17.3617C17.4691 28.3014 17.9184 29.1682 18.6237 29.7976C19.3291 30.4269 20.2414 30.7747 21.1867 30.7747H23.2742V33.6122H24.8367V30.7747H26.9617C27.907 30.7747 28.8193 30.4269 29.5247 29.7976C30.2301 29.1682 30.6793 28.3014 30.7867 27.3622V26.9372C30.7852 26.3757 30.6601 25.8215 30.4203 25.3138C30.1805 24.8062 29.8319 24.3575 29.3992 23.9997Z" fill="url(#paint5_linear_97_6490)"></path><defs><linearGradient id="paint0_linear_97_6490" x1="23.6299" y1="6.29221" x2="23.6011" y2="40.9931" gradientUnits="userSpaceOnUse"><stop stop-color="white"></stop><stop offset="1" stop-color="white" stop-opacity="0"></stop></linearGradient><linearGradient id="paint1_linear_97_6490" x1="23.6299" y1="6.29221" x2="23.6011" y2="40.9931" gradientUnits="userSpaceOnUse"><stop stop-color="white" stop-opacity="0"></stop><stop offset="1" stop-color="white"></stop></linearGradient><radialGradient id="paint2_radial_97_6490" cx="0" cy="0" r="1" gradientUnits="userSpaceOnUse" gradientTransform="translate(17.99 7.5888) rotate(80.4646) scale(33.8722 46.2084)"><stop stop-color="#7595FF"></stop><stop offset="0.201" stop-color="#7595FF" stop-opacity="0"></stop></radialGradient><radialGradient id="paint3_radial_97_6490" cx="0" cy="0" r="1" gradientUnits="userSpaceOnUse" gradientTransform="translate(33.724 37.9656) rotate(-121.56) scale(33.1053 30.0747)"><stop stop-color="#7595FF"></stop><stop offset="0.293" stop-color="#7595FF" stop-opacity="0"></stop></radialGradient><linearGradient id="paint4_linear_97_6490" x1="6.80301" y1="-0.421629" x2="28.4356" y2="-8.47576" gradientUnits="userSpaceOnUse"><stop stop-color="#00F9FD"></stop><stop offset="0.563101" stop-color="#8376FF"></stop><stop offset="0.885" stop-color="#E40EFF"></stop></linearGradient><linearGradient id="paint5_linear_97_6490" x1="17.5122" y1="5.77816" x2="24.9372" y2="6.47491" gradientUnits="userSpaceOnUse"><stop stop-color="white" stop-opacity="0.9"></stop><stop offset="1" stop-color="white" stop-opacity="0"></stop></linearGradient></defs></svg>