<svg xmlns="http://www.w3.org/2000/svg" width="425" height="104" viewBox="0 0 425 104" fill="none"><rect width="197" height="104" rx="7.4767" fill="white"></rect><path d="M185.152 22.4925C185.235 20.886 184.667 18.2588 183.319 16.1095C183.282 16.0543 183.222 16.0758 183.234 16.1335C183.324 16.4601 183.345 17.0532 182.822 17.0172C181.89 16.9548 182.853 14.9808 180.809 13.612C180.801 13.6049 180.791 13.6007 180.781 13.6002C180.77 13.5998 180.76 13.603 180.752 13.6094C180.743 13.6158 180.738 13.6249 180.736 13.6351C180.734 13.6453 180.736 13.6558 180.741 13.6648C180.881 13.929 180.964 14.7527 180.641 15.0337C180.382 15.2594 179.914 15.1994 179.446 14.4573C179.134 13.9455 178.974 13.3576 178.982 12.7602C178.99 12.1627 179.167 11.5794 179.492 11.0761C179.53 11.0137 179.477 10.9896 179.433 11.0041C176.62 11.9238 176.058 15.209 175.459 16.4049C175.359 16.6066 175.272 16.7099 175.1 16.7003C174.588 16.6666 174.957 15.5836 175.134 15.2066C175.137 15.1974 175.138 15.1872 175.135 15.1777C175.132 15.1682 175.126 15.1599 175.118 15.1543C175.11 15.1487 175.1 15.146 175.09 15.1468C175.08 15.1475 175.071 15.1517 175.063 15.1585C173.421 16.9453 172.371 19.187 172.054 21.5824C172.054 21.5271 172.029 21.7793 172.015 21.9642C172.015 22.0362 172.01 22.1091 172 22.1827C172 22.2692 172 22.3557 172 22.4445C171.986 24.1733 172.665 25.8371 173.89 27.0697C175.114 28.3023 176.783 29.0029 178.529 29.0172C180.275 29.0315 181.955 28.3585 183.2 27.1462C184.445 25.9337 185.152 24.2814 185.167 22.5525C185.155 22.5309 185.152 22.5117 185.152 22.4925ZM178.546 25.5207C177.942 25.5173 177.352 25.3365 176.851 25.0011C176.351 24.6657 175.962 24.1908 175.735 23.6365C175.507 23.0822 175.45 22.4735 175.572 21.8875C175.694 21.3014 175.989 20.7643 176.419 20.3442C176.85 19.9241 177.396 19.64 177.99 19.5277C178.583 19.4154 179.197 19.48 179.754 19.7134C180.31 19.9467 180.784 20.3384 181.116 20.8386C181.447 21.3389 181.621 21.9254 181.616 22.5237C181.609 23.3239 181.282 24.0887 180.706 24.6505C180.131 25.2123 179.354 25.5252 178.546 25.5207Z" fill="#EF5025"></path><path d="M17.7347 33L12.9069 22.0558H14.63L18.7593 31.6339H18.1849L22.2987 22.0558H23.9442L19.1163 33H17.7347ZM27.5868 33.1397C26.7588 33.1397 26.0448 32.9845 25.4445 32.674C24.8546 32.3532 24.3941 31.903 24.0629 31.3234C23.7421 30.7335 23.5817 30.035 23.5817 29.2278C23.5817 28.4412 23.7421 27.753 24.0629 27.1631C24.3837 26.5732 24.8236 26.1127 25.3824 25.7815C25.9413 25.4503 26.5777 25.2847 27.2918 25.2847C27.9956 25.2847 28.5958 25.44 29.0926 25.7505C29.5997 26.0506 29.9878 26.4801 30.2568 27.0389C30.5259 27.5978 30.6605 28.2653 30.6605 29.0415V29.5693H24.8236V28.6068H29.6048L29.3409 28.8241C29.3409 28.048 29.1702 27.4477 28.8287 27.0234C28.4871 26.5991 27.9956 26.3869 27.3539 26.3869C26.8675 26.3869 26.4535 26.5008 26.112 26.7284C25.7809 26.9561 25.5273 27.2718 25.3514 27.6754C25.1754 28.079 25.0875 28.5499 25.0875 29.088V29.1812C25.0875 29.7814 25.1806 30.2885 25.3669 30.7025C25.5635 31.1061 25.8481 31.4114 26.2207 31.6184C26.5933 31.8254 27.0538 31.9289 27.6023 31.9289C28.037 31.9289 28.4613 31.8616 28.8752 31.7271C29.2995 31.5822 29.698 31.3597 30.0706 31.0595L30.5363 32.1462C30.1947 32.4567 29.7549 32.6999 29.2168 32.8758C28.6786 33.0517 28.1353 33.1397 27.5868 33.1397ZM32.3698 33V25.4245H33.8911V27.0389H33.7203C33.948 26.4594 34.305 26.0247 34.7914 25.7349C35.2779 25.4348 35.8367 25.2847 36.468 25.2847C37.0682 25.2847 37.565 25.3986 37.9583 25.6263C38.3619 25.8436 38.662 26.1799 38.8586 26.6353C39.0553 27.0803 39.1536 27.6443 39.1536 28.3274V33H37.5857V28.4205C37.5857 27.9859 37.5288 27.634 37.4149 27.3649C37.3011 27.0855 37.1303 26.8785 36.9027 26.744C36.675 26.6094 36.38 26.5422 36.0178 26.5422C35.6038 26.5422 35.2365 26.6301 34.9156 26.8061C34.6052 26.982 34.362 27.2356 34.186 27.5667C34.0204 27.8979 33.9376 28.2808 33.9376 28.7155V33H32.3698ZM44.543 33.1397C43.6012 33.1397 42.8923 32.8965 42.4162 32.4101C41.9505 31.9237 41.7177 31.22 41.7177 30.2989V26.6353H40.2429V25.4245H41.7177V23.1425H43.2855V25.4245H45.6296V26.6353H43.2855V30.1747C43.2855 30.7232 43.3994 31.1372 43.6271 31.4166C43.8651 31.696 44.248 31.8357 44.7758 31.8357C44.9311 31.8357 45.0863 31.815 45.2415 31.7736C45.4071 31.7322 45.5675 31.6908 45.7228 31.6494L45.9711 32.8292C45.8159 32.9224 45.5986 32.9948 45.3191 33.0466C45.0501 33.1087 44.7913 33.1397 44.543 33.1397ZM49.4055 33.1397C48.8777 33.1397 48.4016 33.0362 47.9773 32.8292C47.5634 32.6223 47.2374 32.3428 46.9993 31.991C46.7613 31.6391 46.6423 31.2407 46.6423 30.7956C46.6423 30.2368 46.782 29.797 47.0614 29.4761C47.3512 29.145 47.8221 28.9121 48.4741 28.7776C49.1364 28.6327 50.0264 28.5602 51.1442 28.5602H51.8738V29.5227H51.1597C50.6008 29.5227 50.1299 29.5434 49.747 29.5848C49.3641 29.6262 49.0588 29.6935 48.8311 29.7866C48.6034 29.8694 48.4379 29.9884 48.3344 30.1436C48.2412 30.2989 48.1947 30.4852 48.1947 30.7025C48.1947 31.0958 48.3292 31.4166 48.5983 31.665C48.8673 31.903 49.2399 32.022 49.716 32.022C50.0989 32.022 50.4352 31.934 50.725 31.7581C51.0148 31.5718 51.2425 31.3234 51.4081 31.013C51.584 30.7025 51.672 30.3455 51.672 29.9418V28.1566C51.672 27.5667 51.5478 27.1424 51.2994 26.8837C51.051 26.625 50.6422 26.4956 50.073 26.4956C49.6384 26.4956 49.2037 26.5629 48.769 26.6974C48.3344 26.8216 47.8894 27.0234 47.434 27.3028L46.9528 26.2006C47.2218 26.0144 47.5323 25.8539 47.8842 25.7194C48.2361 25.5849 48.6034 25.4814 48.9864 25.4089C49.3796 25.3261 49.7574 25.2847 50.1196 25.2847C50.813 25.2847 51.3822 25.3934 51.8272 25.6107C52.2826 25.8281 52.6189 26.1592 52.8362 26.6043C53.0536 27.0493 53.1622 27.6236 53.1622 28.3274V33H51.6875V31.3079H51.8272C51.7444 31.6908 51.5892 32.022 51.3615 32.3014C51.1442 32.5705 50.8699 32.7775 50.5387 32.9224C50.2076 33.0673 49.8298 33.1397 49.4055 33.1397ZM57.9763 33.1397C57.5726 33.1397 57.1794 33.1035 56.7965 33.031C56.4135 32.9586 56.0617 32.8551 55.7408 32.7206C55.42 32.586 55.1354 32.4205 54.887 32.2238L55.3372 31.1682C55.596 31.3441 55.8702 31.4994 56.16 31.6339C56.4498 31.7581 56.7499 31.8512 57.0604 31.9133C57.3812 31.9754 57.6917 32.0065 57.9918 32.0065C58.5403 32.0065 58.9542 31.9082 59.2337 31.7115C59.5131 31.5149 59.6528 31.251 59.6528 30.9198C59.6528 30.6508 59.5597 30.4438 59.3734 30.2989C59.1871 30.1436 58.9077 30.0246 58.5351 29.9418L57.0604 29.6469C56.4187 29.5124 55.9323 29.2743 55.6011 28.9328C55.27 28.5913 55.1044 28.1566 55.1044 27.6288C55.1044 27.1528 55.2337 26.7388 55.4925 26.3869C55.7512 26.0351 56.1134 25.766 56.5791 25.5797C57.0448 25.3831 57.583 25.2847 58.1936 25.2847C58.5455 25.2847 58.887 25.321 59.2181 25.3934C59.5493 25.4659 59.8598 25.5693 60.1496 25.7039C60.4497 25.8384 60.7032 26.0092 60.9102 26.2162L60.46 27.2718C60.2634 27.0958 60.0357 26.9458 59.777 26.8216C59.5286 26.6974 59.2699 26.6043 59.0008 26.5422C58.7317 26.4697 58.4627 26.4335 58.1936 26.4335C57.6451 26.4335 57.2311 26.537 56.9517 26.744C56.6826 26.9406 56.5481 27.2097 56.5481 27.5512C56.5481 27.8099 56.6309 28.0221 56.7965 28.1877C56.962 28.3533 57.2208 28.4723 57.5726 28.5447L59.0474 28.8397C59.7201 28.9742 60.2272 29.2019 60.5687 29.5227C60.9206 29.8435 61.0965 30.2782 61.0965 30.8267C61.0965 31.3027 60.9671 31.7167 60.7084 32.0686C60.4497 32.4205 60.0823 32.6895 59.6062 32.8758C59.1405 33.0517 58.5972 33.1397 57.9763 33.1397ZM66.919 35.7943V25.4245H68.4558V27.1321H68.285C68.4506 26.5732 68.7766 26.1282 69.263 25.797C69.7494 25.4555 70.3238 25.2847 70.9862 25.2847C71.6589 25.2847 72.2436 25.4452 72.7403 25.766C73.2474 26.0868 73.6355 26.537 73.9046 27.1165C74.184 27.6961 74.3237 28.3947 74.3237 29.2122C74.3237 30.0091 74.184 30.7077 73.9046 31.3079C73.6355 31.8978 73.2526 32.3532 72.7559 32.674C72.2591 32.9845 71.6692 33.1397 70.9862 33.1397C70.3342 33.1397 69.765 32.9741 69.2786 32.643C68.7922 32.3118 68.4662 31.8719 68.3006 31.3234H68.4869V35.7943H66.919ZM70.5981 31.9289C71.2501 31.9289 71.7675 31.696 72.1504 31.2303C72.5437 30.7646 72.7403 30.0919 72.7403 29.2122C72.7403 28.3222 72.5437 27.6495 72.1504 27.1942C71.7675 26.7388 71.2501 26.5111 70.5981 26.5111C69.9564 26.5111 69.439 26.7388 69.0457 27.1942C68.6524 27.6495 68.4558 28.3222 68.4558 29.2122C68.4558 30.0919 68.6524 30.7646 69.0457 31.2303C69.439 31.696 69.9564 31.9289 70.5981 31.9289ZM79.3817 33.1397C78.6158 33.1397 77.9535 32.9793 77.3946 32.6585C76.8461 32.3377 76.4167 31.8823 76.1062 31.2924C75.7957 30.7025 75.6405 30.0091 75.6405 29.2122C75.6405 28.405 75.7957 27.7116 76.1062 27.1321C76.4167 26.5422 76.8461 26.0868 77.3946 25.766C77.9535 25.4452 78.6158 25.2847 79.3817 25.2847C80.1372 25.2847 80.7891 25.4452 81.3376 25.766C81.8965 26.0868 82.3312 26.5422 82.6416 27.1321C82.9521 27.722 83.1073 28.4153 83.1073 29.2122C83.1073 30.0091 82.9521 30.7025 82.6416 31.2924C82.3312 31.8823 81.8965 32.3377 81.3376 32.6585C80.7891 32.9793 80.1372 33.1397 79.3817 33.1397ZM79.3661 31.9289C80.0181 31.9289 80.5408 31.696 80.934 31.2303C81.3273 30.7646 81.5239 30.0919 81.5239 29.2122C81.5239 28.3222 81.3273 27.6495 80.934 27.1942C80.5408 26.7388 80.0181 26.5111 79.3661 26.5111C78.7245 26.5111 78.207 26.7388 77.8138 27.1942C77.4205 27.6495 77.2239 28.3222 77.2239 29.2122C77.2239 30.0919 77.4205 30.7646 77.8138 31.2303C78.207 31.696 78.7245 31.9289 79.3661 31.9289ZM84.8682 33V25.4245H86.3895V27.2407H86.2343C86.3999 26.6198 86.6948 26.1489 87.1191 25.8281C87.5538 25.5073 88.1282 25.321 88.8422 25.2692L89.3545 25.2382L89.4632 26.5732L88.5162 26.6664C87.8436 26.7284 87.3313 26.9406 86.9794 27.3028C86.6275 27.665 86.4516 28.1618 86.4516 28.7931V33H84.8682ZM94.908 33V22.0558H99.4409C100.238 22.0558 100.91 22.1904 101.459 22.4594C102.007 22.7182 102.421 23.0959 102.701 23.5927C102.991 24.0894 103.136 24.6897 103.136 25.3934C103.136 26.0972 102.991 26.7026 102.701 27.2097C102.421 27.7064 102.007 28.0894 101.459 28.3584C100.91 28.6172 100.238 28.7465 99.4409 28.7465H96.5224V33H94.908ZM96.5224 27.4581H99.208C99.9842 27.4581 100.569 27.2873 100.962 26.9458C101.366 26.5939 101.568 26.0765 101.568 25.3934C101.568 24.7207 101.366 24.2136 100.962 23.8721C100.569 23.5202 99.9842 23.3443 99.208 23.3443H96.5224V27.4581ZM106.74 33.1397C106.212 33.1397 105.736 33.0362 105.312 32.8292C104.898 32.6223 104.572 32.3428 104.334 31.991C104.096 31.6391 103.977 31.2407 103.977 30.7956C103.977 30.2368 104.116 29.797 104.396 29.4761C104.686 29.145 105.157 28.9121 105.808 28.7776C106.471 28.6327 107.361 28.5602 108.479 28.5602H109.208V29.5227H108.494C107.935 29.5227 107.464 29.5434 107.081 29.5848C106.699 29.6262 106.393 29.6935 106.166 29.7866C105.938 29.8694 105.772 29.9884 105.669 30.1436C105.576 30.2989 105.529 30.4852 105.529 30.7025C105.529 31.0958 105.664 31.4166 105.933 31.665C106.202 31.903 106.574 32.022 107.05 32.022C107.433 32.022 107.77 31.934 108.059 31.7581C108.349 31.5718 108.577 31.3234 108.742 31.013C108.918 30.7025 109.006 30.3455 109.006 29.9418V28.1566C109.006 27.5667 108.882 27.1424 108.634 26.8837C108.385 26.625 107.977 26.4956 107.407 26.4956C106.973 26.4956 106.538 26.5629 106.103 26.6974C105.669 26.8216 105.224 27.0234 104.768 27.3028L104.287 26.2006C104.556 26.0144 104.867 25.8539 105.219 25.7194C105.57 25.5849 105.938 25.4814 106.321 25.4089C106.714 25.3261 107.092 25.2847 107.454 25.2847C108.147 25.2847 108.717 25.3934 109.162 25.6107C109.617 25.8281 109.953 26.1592 110.171 26.6043C110.388 27.0493 110.497 27.6236 110.497 28.3274V33H109.022V31.3079H109.162C109.079 31.6908 108.924 32.022 108.696 32.3014C108.479 32.5705 108.204 32.7775 107.873 32.9224C107.542 33.0673 107.164 33.1397 106.74 33.1397ZM112.656 33V25.4245H114.224V33H112.656ZM112.889 24.4154L114.488 21.2796H116.087L113.976 24.4154H112.889ZM119.085 33.1397C118.682 33.1397 118.289 33.1035 117.906 33.031C117.523 32.9586 117.171 32.8551 116.85 32.7206C116.529 32.586 116.245 32.4205 115.996 32.2238L116.446 31.1682C116.705 31.3441 116.979 31.4994 117.269 31.6339C117.559 31.7581 117.859 31.8512 118.17 31.9133C118.49 31.9754 118.801 32.0065 119.101 32.0065C119.649 32.0065 120.063 31.9082 120.343 31.7115C120.622 31.5149 120.762 31.251 120.762 30.9198C120.762 30.6508 120.669 30.4438 120.483 30.2989C120.296 30.1436 120.017 30.0246 119.644 29.9418L118.17 29.6469C117.528 29.5124 117.042 29.2743 116.71 28.9328C116.379 28.5913 116.214 28.1566 116.214 27.6288C116.214 27.1528 116.343 26.7388 116.602 26.3869C116.86 26.0351 117.223 25.766 117.688 25.5797C118.154 25.3831 118.692 25.2847 119.303 25.2847C119.655 25.2847 119.996 25.321 120.327 25.3934C120.659 25.4659 120.969 25.5693 121.259 25.7039C121.559 25.8384 121.812 26.0092 122.019 26.2162L121.569 27.2718C121.373 27.0958 121.145 26.9458 120.886 26.8216C120.638 26.6974 120.379 26.6043 120.11 26.5422C119.841 26.4697 119.572 26.4335 119.303 26.4335C118.754 26.4335 118.34 26.537 118.061 26.744C117.792 26.9406 117.657 27.2097 117.657 27.5512C117.657 27.8099 117.74 28.0221 117.906 28.1877C118.071 28.3533 118.33 28.4723 118.682 28.5447L120.157 28.8397C120.829 28.9742 121.336 29.2019 121.678 29.5227C122.03 29.8435 122.206 30.2782 122.206 30.8267C122.206 31.3027 122.076 31.7167 121.818 32.0686C121.559 32.4205 121.191 32.6895 120.715 32.8758C120.25 33.0517 119.706 33.1397 119.085 33.1397Z" fill="#181A1C"></path><path d="M13 46.5833H197" stroke="#D8DCE0" stroke-width="0.388091" stroke-linecap="round"></path><rect x="13.2426" y="60.4091" width="23.7706" height="20.8599" rx="1.6979" fill="white"></rect><rect x="13.2426" y="60.4091" width="23.7706" height="20.8599" rx="1.6979" stroke="#656C74" stroke-width="0.485114"></rect><g clip-path="url(#clip0_93_2692)"><path d="M27.3525 65.9475L29.1313 67.7263L27.3525 69.505" stroke="#656C74" stroke-width="0.889376" stroke-linecap="round" stroke-linejoin="round"></path><path d="M21.124 70.3942V69.5048C21.124 69.0331 21.3114 68.5806 21.645 68.2471C21.9786 67.9135 22.431 67.7261 22.9028 67.7261H29.1284" stroke="#656C74" stroke-width="0.889376" stroke-linecap="round" stroke-linejoin="round"></path><path d="M22.9028 75.7304L21.124 73.9516L22.9028 72.1729" stroke="#656C74" stroke-width="0.889376" stroke-linecap="round" stroke-linejoin="round"></path><path d="M29.1284 71.2839V72.1733C29.1284 72.6451 28.941 73.0975 28.6074 73.4311C28.2738 73.7647 27.8214 73.9521 27.3497 73.9521H21.124" stroke="#656C74" stroke-width="0.889376" stroke-linecap="round" stroke-linejoin="round"></path></g><path d="M49.1765 75.3391V67.5624H46.0364V66.6915H53.3347V67.5624H50.1946V75.3391H49.1765ZM55.8418 75.4495C55.2612 75.4495 54.7583 75.3228 54.3331 75.0693C53.9078 74.8158 53.5767 74.46 53.3395 74.0021C53.1105 73.536 52.9961 72.9881 52.9961 72.3584C52.9961 71.7288 53.1105 71.185 53.3395 70.727C53.5767 70.2609 53.9078 69.9011 54.3331 69.6476C54.7583 69.3941 55.2612 69.2674 55.8418 69.2674C56.4224 69.2674 56.9253 69.3941 57.3505 69.6476C57.7758 69.9011 58.1029 70.2609 58.3318 70.727C58.569 71.185 58.6875 71.7288 58.6875 72.3584C58.6875 72.9881 58.569 73.536 58.3318 74.0021C58.1029 74.46 57.7758 74.8158 57.3505 75.0693C56.9253 75.3228 56.4224 75.4495 55.8418 75.4495ZM55.8418 74.6522C56.406 74.6522 56.8517 74.4559 57.1788 74.0634C57.5141 73.6627 57.6817 73.0903 57.6817 72.3462C57.6817 71.6102 57.5141 71.046 57.1788 70.6534C56.8517 70.2609 56.406 70.0647 55.8418 70.0647C55.2857 70.0647 54.8401 70.2609 54.5048 70.6534C54.1695 71.046 54.0019 71.6102 54.0019 72.3462C54.0019 73.0903 54.1695 73.6627 54.5048 74.0634C54.8401 74.4559 55.2857 74.6522 55.8418 74.6522ZM62.5119 75.4495C61.8086 75.4495 61.2812 75.2614 60.9296 74.8853C60.5779 74.5091 60.4021 73.9735 60.4021 73.2784V70.1505H59.2368V69.3778H60.4021V67.5501H61.3957V69.3778H63.2847V70.1505H61.3957V73.1803C61.3957 73.6464 61.4938 74.0021 61.6901 74.2474C61.8863 74.4846 62.2052 74.6031 62.6468 74.6031C62.7777 74.6031 62.9085 74.5868 63.0393 74.5541C63.1702 74.5214 63.2888 74.4887 63.3951 74.4559L63.5668 75.2164C63.4605 75.2737 63.3051 75.3268 63.1007 75.3759C62.8962 75.425 62.7 75.4495 62.5119 75.4495ZM66.2851 75.4495C65.8762 75.4495 65.5082 75.3718 65.1811 75.2164C64.8622 75.0529 64.6087 74.8321 64.4206 74.5541C64.2325 74.276 64.1385 73.9653 64.1385 73.6219C64.1385 73.1803 64.2489 72.8327 64.4697 72.5792C64.6987 72.3257 65.0707 72.1458 65.5859 72.0395C66.1093 71.9332 66.8207 71.8801 67.7202 71.8801H68.2722V72.5302H67.7325C67.2337 72.5302 66.8166 72.5465 66.4813 72.5792C66.1461 72.6119 65.8803 72.6692 65.684 72.751C65.4878 72.8327 65.3488 72.939 65.267 73.0699C65.1852 73.2007 65.1443 73.3643 65.1443 73.5605C65.1443 73.8958 65.2588 74.1697 65.4878 74.3824C65.7249 74.595 66.0438 74.7013 66.4445 74.7013C66.7716 74.7013 67.0578 74.6236 67.3032 74.4682C67.5567 74.3128 67.7529 74.1002 67.8919 73.8304C68.0391 73.5605 68.1127 73.2498 68.1127 72.8981V71.4998C68.1127 70.9928 68.0105 70.6289 67.8061 70.4081C67.6016 70.1792 67.2664 70.0647 66.8003 70.0647C66.4405 70.0647 66.0929 70.1178 65.7576 70.2241C65.4224 70.3223 65.0789 70.4858 64.7273 70.7148L64.3838 69.9911C64.5964 69.8439 64.8377 69.7171 65.1075 69.6108C65.3774 69.4963 65.6595 69.4105 65.9539 69.3532C66.2483 69.296 66.5304 69.2674 66.8003 69.2674C67.3154 69.2674 67.7407 69.3532 68.0759 69.525C68.4112 69.6885 68.6606 69.942 68.8242 70.2855C68.9877 70.6207 69.0695 71.0541 69.0695 71.5857V75.3391H68.1373V73.953H68.2477C68.1822 74.2638 68.0555 74.5295 67.8674 74.7503C67.6875 74.9711 67.4626 75.1429 67.1928 75.2655C66.9229 75.3882 66.6204 75.4495 66.2851 75.4495ZM72.7404 75.4495C72.1353 75.4495 71.6774 75.2696 71.3666 74.9098C71.0641 74.55 70.9128 74.0348 70.9128 73.3643V66.6915H71.9063V73.2907C71.9063 73.5769 71.9431 73.8181 72.0167 74.0144C72.0985 74.2106 72.2171 74.3578 72.3724 74.4559C72.5278 74.5541 72.72 74.6031 72.9489 74.6031C73.0471 74.6031 73.1411 74.5991 73.2311 74.5909C73.3292 74.5745 73.4191 74.5541 73.5009 74.5295L73.4764 75.3636C73.3456 75.3882 73.2188 75.4086 73.0961 75.425C72.9817 75.4413 72.8631 75.4495 72.7404 75.4495ZM79.9619 75.4495C79.4304 75.4495 78.9643 75.3228 78.5636 75.0693C78.1711 74.8158 77.8644 74.46 77.6436 74.0021C77.431 73.536 77.3247 72.9881 77.3247 72.3584C77.3247 71.7206 77.431 71.1727 77.6436 70.7148C77.8644 70.2487 78.1711 69.8929 78.5636 69.6476C78.9643 69.3941 79.4304 69.2674 79.9619 69.2674C80.5016 69.2674 80.9637 69.4023 81.348 69.6722C81.7323 69.942 81.9899 70.3059 82.1208 70.7638H81.9858V66.6915H82.9794V75.3391H82.0104V73.9162H82.133C82.0022 74.3824 81.7405 74.7544 81.348 75.0325C80.9637 75.3105 80.5016 75.4495 79.9619 75.4495ZM80.1704 74.6522C80.7347 74.6522 81.1804 74.4559 81.5075 74.0634C81.8427 73.6627 82.0104 73.0944 82.0104 72.3584C82.0104 71.6143 81.8427 71.046 81.5075 70.6534C81.1804 70.2609 80.7347 70.0647 80.1704 70.0647C79.6144 70.0647 79.1687 70.2609 78.8334 70.6534C78.4982 71.046 78.3305 71.6143 78.3305 72.3584C78.3305 73.0944 78.4982 73.6627 78.8334 74.0634C79.1687 74.4559 79.6144 74.6522 80.1704 74.6522ZM87.5302 75.4495C86.9006 75.4495 86.3568 75.3268 85.8988 75.0815C85.4491 74.828 85.0974 74.4723 84.8439 74.0144C84.5986 73.5564 84.476 73.0085 84.476 72.3707C84.476 71.7492 84.5986 71.2095 84.8439 70.7516C85.0893 70.2855 85.4245 69.9216 85.8498 69.6599C86.2832 69.3982 86.782 69.2674 87.3462 69.2674C87.8859 69.2674 88.348 69.3859 88.7323 69.6231C89.1166 69.8602 89.411 70.1955 89.6155 70.6289C89.8281 71.0623 89.9344 71.5816 89.9344 72.1867V72.567H85.2365V71.9169H89.272L89.0758 72.0763C89.0758 71.4221 88.9286 70.9151 88.6342 70.5553C88.348 70.1873 87.9268 70.0033 87.3708 70.0033C86.9537 70.0033 86.598 70.1015 86.3036 70.2977C86.0174 70.4858 85.8007 70.7516 85.6535 71.095C85.5063 71.4303 85.4327 71.8228 85.4327 72.2726V72.3462C85.4327 72.845 85.5104 73.2661 85.6658 73.6096C85.8293 73.953 86.0706 74.2147 86.3895 74.3946C86.7084 74.5663 87.0886 74.6522 87.5302 74.6522C87.8819 74.6522 88.2212 74.5991 88.5483 74.4927C88.8836 74.3783 89.1984 74.1943 89.4928 73.9408L89.8363 74.6399C89.5664 74.8853 89.223 75.0815 88.8059 75.2287C88.3889 75.3759 87.9636 75.4495 87.5302 75.4495ZM94.9275 75.3391V74.0389H96.8778V68.0162H97.6383L95.3691 69.39L94.7557 68.237L97.3316 66.6915H98.4479V74.0389H100.276V75.3391H94.9275ZM105.226 75.3391V73.6954H101.461V72.5424L105.496 66.6915H106.796V72.3952H108.011V73.6954H106.796V75.3391H105.226ZM105.226 72.3952V68.5682H105.582L102.687 72.8123V72.3952H105.226ZM111.318 75.4618C111.015 75.4618 110.708 75.4209 110.398 75.3391C110.095 75.2655 109.805 75.1551 109.527 75.0079C109.257 74.8607 109.012 74.6849 108.791 74.4805L109.318 73.3029C109.613 73.581 109.932 73.7895 110.275 73.9285C110.627 74.0675 110.978 74.137 111.33 74.137C111.69 74.137 112.005 74.0757 112.274 73.953C112.553 73.8222 112.786 73.6341 112.974 73.3888C113.162 73.1353 113.301 72.8246 113.391 72.4566C113.489 72.0804 113.538 71.647 113.538 71.1564V70.2364H113.673C113.616 70.6453 113.481 71.001 113.268 71.3036C113.055 71.6061 112.786 71.8392 112.458 72.0027C112.14 72.1581 111.776 72.2358 111.367 72.2358C110.876 72.2358 110.439 72.1172 110.054 71.8801C109.67 71.6429 109.363 71.3158 109.134 70.8988C108.914 70.4735 108.803 69.9952 108.803 69.4636C108.803 68.8994 108.926 68.4006 109.171 67.9672C109.416 67.5338 109.752 67.1944 110.177 66.9491C110.61 66.6956 111.105 66.5688 111.661 66.5688C112.381 66.5688 112.99 66.7365 113.489 67.0717C113.988 67.407 114.368 67.8977 114.63 68.5437C114.891 69.1815 115.022 69.9543 115.022 70.862C115.022 71.8351 114.875 72.6651 114.581 73.352C114.286 74.0389 113.861 74.5623 113.305 74.9221C112.757 75.2819 112.095 75.4618 111.318 75.4618ZM111.759 70.9846C112.054 70.9846 112.311 70.9192 112.532 70.7884C112.761 70.6575 112.937 70.4735 113.06 70.2364C113.182 69.9911 113.243 69.713 113.243 69.4023C113.243 69.0834 113.182 68.8053 113.06 68.5682C112.937 68.3311 112.761 68.1471 112.532 68.0162C112.311 67.8772 112.054 67.8077 111.759 67.8077C111.465 67.8077 111.207 67.8772 110.987 68.0162C110.766 68.1471 110.59 68.3311 110.459 68.5682C110.336 68.8053 110.275 69.0834 110.275 69.4023C110.275 69.713 110.336 69.9911 110.459 70.2364C110.59 70.4735 110.766 70.6575 110.987 70.7884C111.207 70.9192 111.465 70.9846 111.759 70.9846ZM119.738 75.3391V69.3778H120.707V70.7884H120.584C120.723 70.3059 120.964 69.942 121.308 69.6967C121.651 69.4432 122.105 69.296 122.669 69.2551L123.025 69.2183L123.099 70.0769L122.473 70.1505C121.917 70.1996 121.488 70.3795 121.185 70.6902C120.891 70.9928 120.744 71.4099 120.744 71.9414V75.3391H119.738ZM126.748 75.4495C126.119 75.4495 125.575 75.3268 125.117 75.0815C124.667 74.828 124.316 74.4723 124.062 74.0144C123.817 73.5564 123.694 73.0085 123.694 72.3707C123.694 71.7492 123.817 71.2095 124.062 70.7516C124.307 70.2855 124.643 69.9216 125.068 69.6599C125.501 69.3982 126 69.2674 126.564 69.2674C127.104 69.2674 127.566 69.3859 127.95 69.6231C128.335 69.8602 128.629 70.1955 128.834 70.6289C129.046 71.0623 129.152 71.5816 129.152 72.1867V72.567H124.455V71.9169H128.49L128.294 72.0763C128.294 71.4221 128.147 70.9151 127.852 70.5553C127.566 70.1873 127.145 70.0033 126.589 70.0033C126.172 70.0033 125.816 70.1015 125.522 70.2977C125.236 70.4858 125.019 70.7516 124.872 71.095C124.724 71.4303 124.651 71.8228 124.651 72.2726V72.3462C124.651 72.845 124.729 73.2661 124.884 73.6096C125.047 73.953 125.289 74.2147 125.608 74.3946C125.926 74.5663 126.307 74.6522 126.748 74.6522C127.1 74.6522 127.439 74.5991 127.766 74.4927C128.102 74.3783 128.417 74.1943 128.711 73.9408L129.054 74.6399C128.785 74.8853 128.441 75.0815 128.024 75.2287C127.607 75.3759 127.182 75.4495 126.748 75.4495ZM133.228 77.6574C132.712 77.6574 132.226 77.5879 131.768 77.4489C131.318 77.318 130.918 77.1177 130.566 76.8478L130.897 76.1241C131.142 76.2959 131.384 76.4349 131.621 76.5412C131.866 76.6557 132.115 76.7375 132.369 76.7865C132.631 76.8356 132.901 76.8601 133.179 76.8601C133.759 76.8601 134.197 76.7047 134.491 76.394C134.794 76.0833 134.945 75.6335 134.945 75.0447V73.6587H135.068C134.945 74.1329 134.683 74.5091 134.283 74.7871C133.89 75.0652 133.428 75.2042 132.896 75.2042C132.349 75.2042 131.874 75.0815 131.474 74.8362C131.073 74.5827 130.762 74.2311 130.541 73.7813C130.329 73.3316 130.222 72.8123 130.222 72.2235C130.222 71.6347 130.329 71.1196 130.541 70.678C130.762 70.2282 131.073 69.8807 131.474 69.6354C131.874 69.39 132.349 69.2674 132.896 69.2674C133.436 69.2674 133.902 69.4064 134.295 69.6844C134.687 69.9543 134.941 70.3223 135.055 70.7884H134.945V69.3778H135.914V74.9098C135.914 75.5149 135.812 76.0219 135.607 76.4308C135.411 76.8397 135.113 77.1463 134.712 77.3508C134.311 77.5552 133.816 77.6574 133.228 77.6574ZM133.08 74.3946C133.653 74.3946 134.107 74.1984 134.442 73.8058C134.777 73.4133 134.945 72.8859 134.945 72.2235C134.945 71.5611 134.777 71.0378 134.442 70.6534C134.107 70.2609 133.653 70.0647 133.08 70.0647C132.516 70.0647 132.066 70.2609 131.731 70.6534C131.396 71.0378 131.228 71.5611 131.228 72.2235C131.228 72.8859 131.396 73.4133 131.731 73.8058C132.066 74.1984 132.516 74.3946 133.08 74.3946ZM137.655 67.8936V66.7773H138.882V67.8936H137.655ZM137.778 75.3391V69.3778H138.771V75.3391H137.778ZM142.64 75.4495C142.329 75.4495 142.027 75.4168 141.732 75.3514C141.446 75.2941 141.176 75.2124 140.923 75.1061C140.678 74.9916 140.465 74.8566 140.285 74.7013L140.604 74.0021C140.8 74.1575 141.013 74.2883 141.242 74.3946C141.471 74.4927 141.704 74.5663 141.941 74.6154C142.178 74.6645 142.419 74.689 142.665 74.689C143.131 74.689 143.482 74.6031 143.72 74.4314C143.957 74.2597 144.075 74.0266 144.075 73.7322C144.075 73.5033 143.998 73.3234 143.842 73.1925C143.687 73.0535 143.442 72.9472 143.106 72.8736L141.99 72.6283C141.475 72.522 141.091 72.338 140.837 72.0763C140.592 71.8146 140.469 71.4753 140.469 71.0582C140.469 70.6902 140.563 70.3754 140.751 70.1137C140.947 69.8439 141.221 69.6354 141.573 69.4882C141.925 69.341 142.334 69.2674 142.8 69.2674C143.078 69.2674 143.343 69.296 143.597 69.3532C143.85 69.4105 144.088 69.4963 144.308 69.6108C144.537 69.7171 144.734 69.8521 144.897 70.0156L144.566 70.7148C144.411 70.5676 144.235 70.4449 144.039 70.3468C143.842 70.2405 143.638 70.1628 143.425 70.1137C143.221 70.0565 143.012 70.0279 142.8 70.0279C142.342 70.0279 141.994 70.1178 141.757 70.2977C141.52 70.4776 141.401 70.7148 141.401 71.0092C141.401 71.2381 141.475 71.4262 141.622 71.5734C141.769 71.7206 141.998 71.8269 142.309 71.8923L143.425 72.1254C143.957 72.2399 144.353 72.4239 144.615 72.6774C144.885 72.9227 145.02 73.258 145.02 73.6832C145.02 74.043 144.922 74.3578 144.725 74.6277C144.529 74.8894 144.251 75.0938 143.891 75.241C143.54 75.38 143.123 75.4495 142.64 75.4495ZM148.866 75.4495C148.163 75.4495 147.635 75.2614 147.284 74.8853C146.932 74.5091 146.756 73.9735 146.756 73.2784V70.1505H145.591V69.3778H146.756V67.5501H147.75V69.3778H149.639V70.1505H147.75V73.1803C147.75 73.6464 147.848 74.0021 148.044 74.2474C148.24 74.4846 148.559 74.6031 149.001 74.6031C149.132 74.6031 149.263 74.5868 149.393 74.5541C149.524 74.5214 149.643 74.4887 149.749 74.4559L149.921 75.2164C149.815 75.2737 149.659 75.3268 149.455 75.3759C149.25 75.425 149.054 75.4495 148.866 75.4495ZM150.762 75.3391V69.3778H151.731V70.7884H151.609C151.748 70.3059 151.989 69.942 152.333 69.6967C152.676 69.4432 153.13 69.296 153.694 69.2551L154.05 69.2183L154.123 70.0769L153.498 70.1505C152.942 70.1996 152.512 70.3795 152.21 70.6902C151.915 70.9928 151.768 71.4099 151.768 71.9414V75.3391H150.762ZM157.565 75.4495C156.984 75.4495 156.481 75.3228 156.056 75.0693C155.631 74.8158 155.299 74.46 155.062 74.0021C154.833 73.536 154.719 72.9881 154.719 72.3584C154.719 71.7288 154.833 71.185 155.062 70.727C155.299 70.2609 155.631 69.9011 156.056 69.6476C156.481 69.3941 156.984 69.2674 157.565 69.2674C158.145 69.2674 158.648 69.3941 159.073 69.6476C159.498 69.9011 159.826 70.2609 160.055 70.727C160.292 71.185 160.41 71.7288 160.41 72.3584C160.41 72.9881 160.292 73.536 160.055 74.0021C159.826 74.46 159.498 74.8158 159.073 75.0693C158.648 75.3228 158.145 75.4495 157.565 75.4495ZM157.565 74.6522C158.129 74.6522 158.574 74.4559 158.902 74.0634C159.237 73.6627 159.404 73.0903 159.404 72.3462C159.404 71.6102 159.237 71.046 158.902 70.6534C158.574 70.2609 158.129 70.0647 157.565 70.0647C157.008 70.0647 156.563 70.2609 156.227 70.6534C155.892 71.046 155.725 71.6102 155.725 72.3462C155.725 73.0903 155.892 73.6627 156.227 74.0634C156.563 74.4559 157.008 74.6522 157.565 74.6522ZM163.914 75.4495C163.603 75.4495 163.301 75.4168 163.007 75.3514C162.72 75.2941 162.45 75.2124 162.197 75.1061C161.952 74.9916 161.739 74.8566 161.559 74.7013L161.878 74.0021C162.074 74.1575 162.287 74.2883 162.516 74.3946C162.745 74.4927 162.978 74.5663 163.215 74.6154C163.452 74.6645 163.693 74.689 163.939 74.689C164.405 74.689 164.757 74.6031 164.994 74.4314C165.231 74.2597 165.349 74.0266 165.349 73.7322C165.349 73.5033 165.272 73.3234 165.116 73.1925C164.961 73.0535 164.716 72.9472 164.38 72.8736L163.264 72.6283C162.749 72.522 162.365 72.338 162.111 72.0763C161.866 71.8146 161.743 71.4753 161.743 71.0582C161.743 70.6902 161.837 70.3754 162.025 70.1137C162.222 69.8439 162.495 69.6354 162.847 69.4882C163.199 69.341 163.608 69.2674 164.074 69.2674C164.352 69.2674 164.617 69.296 164.871 69.3532C165.124 69.4105 165.362 69.4963 165.582 69.6108C165.811 69.7171 166.008 69.8521 166.171 70.0156L165.84 70.7148C165.685 70.5676 165.509 70.4449 165.313 70.3468C165.116 70.2405 164.912 70.1628 164.699 70.1137C164.495 70.0565 164.286 70.0279 164.074 70.0279C163.616 70.0279 163.268 70.1178 163.031 70.2977C162.794 70.4776 162.675 70.7148 162.675 71.0092C162.675 71.2381 162.749 71.4262 162.896 71.5734C163.043 71.7206 163.272 71.8269 163.583 71.8923L164.699 72.1254C165.231 72.2399 165.627 72.4239 165.889 72.6774C166.159 72.9227 166.294 73.258 166.294 73.6832C166.294 74.043 166.196 74.3578 165.999 74.6277C165.803 74.8894 165.525 75.0938 165.165 75.241C164.814 75.38 164.397 75.4495 163.914 75.4495Z" fill="#181A1C"></path><rect x="208.188" y="0.0927734" width="216.361" height="103.814" rx="7.4767" fill="white"></rect><path d="M412.858 22.3408C412.94 20.7554 412.372 18.1629 411.024 16.0421C410.987 15.9876 410.927 16.0088 410.939 16.0658C411.029 16.388 411.05 16.9733 410.526 16.9378C409.595 16.8761 410.558 14.9283 408.513 13.5775C408.505 13.5705 408.495 13.5664 408.485 13.5659C408.474 13.5654 408.464 13.5687 408.456 13.575C408.448 13.5813 408.442 13.5903 408.44 13.6003C408.438 13.6104 408.44 13.6208 408.445 13.6297C408.586 13.8903 408.668 14.7031 408.346 14.9804C408.086 15.2032 407.618 15.1439 407.15 14.4117C406.838 13.9066 406.678 13.3265 406.686 12.737C406.694 12.1474 406.871 11.5718 407.196 11.0751C407.235 11.0135 407.181 10.9898 407.138 11.004C404.324 11.9116 403.761 15.1534 403.162 16.3335C403.062 16.5326 402.975 16.6345 402.803 16.625C402.291 16.5918 402.659 15.523 402.837 15.151C402.84 15.142 402.841 15.1319 402.838 15.1225C402.835 15.1132 402.829 15.105 402.821 15.0994C402.813 15.0939 402.803 15.0913 402.793 15.092C402.783 15.0928 402.773 15.0969 402.766 15.1036C401.124 16.8669 400.073 19.0789 399.756 21.4427C399.756 21.3881 399.731 21.6369 399.717 21.8194C399.717 21.8905 399.712 21.9624 399.702 22.0351C399.702 22.1204 399.702 22.2057 399.702 22.2934C399.688 23.9994 400.368 25.6412 401.592 26.8575C402.817 28.0739 404.486 28.7652 406.233 28.7793C407.979 28.7934 409.66 28.1293 410.905 26.933C412.15 25.7366 412.858 24.106 412.872 22.4C412.86 22.3787 412.858 22.3598 412.858 22.3408ZM406.25 25.329C405.645 25.3257 405.055 25.1472 404.555 24.8163C404.054 24.4853 403.665 24.0167 403.438 23.4697C403.21 22.9227 403.154 22.322 403.275 21.7437C403.397 21.1654 403.692 20.6354 404.123 20.2208C404.553 19.8063 405.1 19.5259 405.694 19.4151C406.287 19.3043 406.901 19.368 407.458 19.5983C408.015 19.8286 408.489 20.2151 408.82 20.7088C409.152 21.2024 409.326 21.7811 409.321 22.3716C409.314 23.1612 408.987 23.9159 408.411 24.4702C407.835 25.0246 407.058 25.3334 406.25 25.329Z" fill="#EF5025"></path><path d="M223.044 32.4375V21.4933H227.577C228.374 21.4933 229.047 21.6279 229.595 21.8969C230.144 22.1557 230.558 22.5334 230.837 23.0302C231.127 23.5269 231.272 24.1272 231.272 24.8309C231.272 25.5347 231.127 26.1401 230.837 26.6472C230.558 27.1439 230.144 27.5269 229.595 27.7959C229.047 28.0547 228.374 28.184 227.577 28.184H224.659V32.4375H223.044ZM224.659 26.8956H227.344C228.121 26.8956 228.705 26.7248 229.099 26.3833C229.502 26.0314 229.704 25.514 229.704 24.8309C229.704 24.1582 229.502 23.6511 229.099 23.3096C228.705 22.9577 228.121 22.7818 227.344 22.7818H224.659V26.8956ZM234.876 32.5772C234.349 32.5772 233.872 32.4737 233.448 32.2667C233.034 32.0598 232.708 31.7803 232.47 31.4285C232.232 31.0766 232.113 30.6782 232.113 30.2331C232.113 29.6743 232.253 29.2345 232.532 28.9136C232.822 28.5825 233.293 28.3496 233.945 28.2151C234.607 28.0702 235.497 27.9977 236.615 27.9977H237.345V28.9602H236.631C236.072 28.9602 235.601 28.9809 235.218 29.0223C234.835 29.0637 234.53 29.131 234.302 29.2241C234.074 29.3069 233.909 29.4259 233.805 29.5811C233.712 29.7364 233.666 29.9227 233.666 30.14C233.666 30.5333 233.8 30.8541 234.069 31.1025C234.338 31.3405 234.711 31.4595 235.187 31.4595C235.57 31.4595 235.906 31.3715 236.196 31.1956C236.486 31.0093 236.713 30.7609 236.879 30.4505C237.055 30.14 237.143 29.783 237.143 29.3793V27.5941C237.143 27.0042 237.019 26.5799 236.77 26.3212C236.522 26.0625 236.113 25.9331 235.544 25.9331C235.109 25.9331 234.675 26.0004 234.24 26.1349C233.805 26.2591 233.36 26.4609 232.905 26.7403L232.424 25.6381C232.693 25.4519 233.003 25.2914 233.355 25.1569C233.707 25.0224 234.074 24.9189 234.457 24.8464C234.85 24.7636 235.228 24.7222 235.59 24.7222C236.284 24.7222 236.853 24.8309 237.298 25.0482C237.753 25.2656 238.09 25.5967 238.307 26.0418C238.524 26.4868 238.633 27.0611 238.633 27.7649V32.4375H237.158V30.7454H237.298C237.215 31.1283 237.06 31.4595 236.832 31.7389C236.615 32.008 236.341 32.215 236.01 32.3599C235.678 32.5048 235.301 32.5772 234.876 32.5772ZM240.793 32.4375V24.862H242.36V32.4375H240.793ZM241.025 23.8529L242.624 20.7171H244.223L242.112 23.8529H241.025ZM247.222 32.5772C246.818 32.5772 246.425 32.541 246.042 32.4685C245.659 32.3961 245.307 32.2926 244.986 32.1581C244.666 32.0235 244.381 31.858 244.133 31.6613L244.583 30.6057C244.842 30.7816 245.116 30.9369 245.406 31.0714C245.695 31.1956 245.996 31.2887 246.306 31.3508C246.627 31.4129 246.937 31.444 247.237 31.444C247.786 31.444 248.2 31.3457 248.479 31.149C248.759 30.9524 248.898 30.6885 248.898 30.3573C248.898 30.0883 248.805 29.8813 248.619 29.7364C248.433 29.5811 248.153 29.4621 247.781 29.3793L246.306 29.0844C245.664 28.9499 245.178 28.7118 244.847 28.3703C244.516 28.0288 244.35 27.5941 244.35 27.0663C244.35 26.5903 244.479 26.1763 244.738 25.8244C244.997 25.4726 245.359 25.2035 245.825 25.0172C246.29 24.8206 246.829 24.7222 247.439 24.7222C247.791 24.7222 248.133 24.7585 248.464 24.8309C248.795 24.9034 249.105 25.0068 249.395 25.1414C249.695 25.2759 249.949 25.4467 250.156 25.6537L249.706 26.7093C249.509 26.5333 249.281 26.3833 249.023 26.2591C248.774 26.1349 248.516 26.0418 248.246 25.9797C247.977 25.9072 247.708 25.871 247.439 25.871C246.891 25.871 246.477 25.9745 246.197 26.1815C245.928 26.3781 245.794 26.6472 245.794 26.9887C245.794 27.2474 245.877 27.4596 246.042 27.6252C246.208 27.7908 246.466 27.9098 246.818 27.9822L248.293 28.2772C248.966 28.4117 249.473 28.6394 249.814 28.9602C250.166 29.281 250.342 29.7157 250.342 30.2642C250.342 30.7402 250.213 31.1542 249.954 31.5061C249.695 31.858 249.328 32.127 248.852 32.3133C248.386 32.4892 247.843 32.5772 247.222 32.5772ZM255.642 32.5772C254.814 32.5772 254.1 32.422 253.499 32.1115C252.909 31.7907 252.449 31.3405 252.118 30.7609C251.797 30.171 251.636 29.4725 251.636 28.6653C251.636 27.8787 251.797 27.1905 252.118 26.6006C252.438 26.0107 252.878 25.5502 253.437 25.219C253.996 24.8878 254.633 24.7222 255.347 24.7222C256.05 24.7222 256.651 24.8775 257.147 25.188C257.654 25.4881 258.043 25.9176 258.312 26.4764C258.581 27.0353 258.715 27.7028 258.715 28.479V29.0068H252.878V28.0443H257.66L257.396 28.2616C257.396 27.4855 257.225 26.8852 256.883 26.4609C256.542 26.0366 256.05 25.8244 255.409 25.8244C254.922 25.8244 254.508 25.9383 254.167 26.1659C253.836 26.3936 253.582 26.7093 253.406 27.1129C253.23 27.5165 253.142 27.9874 253.142 28.5255V28.6187C253.142 29.2189 253.235 29.726 253.422 30.14C253.618 30.5436 253.903 30.8489 254.275 31.0559C254.648 31.2629 255.109 31.3664 255.657 31.3664C256.092 31.3664 256.516 31.2991 256.93 31.1646C257.354 31.0197 257.753 30.7972 258.125 30.497L258.591 31.5837C258.25 31.8942 257.81 32.1374 257.272 32.3133C256.733 32.4892 256.19 32.5772 255.642 32.5772ZM263.079 32.5772C262.675 32.5772 262.282 32.541 261.899 32.4685C261.516 32.3961 261.164 32.2926 260.844 32.1581C260.523 32.0235 260.238 31.858 259.99 31.6613L260.44 30.6057C260.699 30.7816 260.973 30.9369 261.263 31.0714C261.553 31.1956 261.853 31.2887 262.163 31.3508C262.484 31.4129 262.794 31.444 263.095 31.444C263.643 31.444 264.057 31.3457 264.336 31.149C264.616 30.9524 264.756 30.6885 264.756 30.3573C264.756 30.0883 264.662 29.8813 264.476 29.7364C264.29 29.5811 264.01 29.4621 263.638 29.3793L262.163 29.0844C261.522 28.9499 261.035 28.7118 260.704 28.3703C260.373 28.0288 260.207 27.5941 260.207 27.0663C260.207 26.5903 260.337 26.1763 260.595 25.8244C260.854 25.4726 261.216 25.2035 261.682 25.0172C262.148 24.8206 262.686 24.7222 263.296 24.7222C263.648 24.7222 263.99 24.7585 264.321 24.8309C264.652 24.9034 264.963 25.0068 265.252 25.1414C265.552 25.2759 265.806 25.4467 266.013 25.6537L265.563 26.7093C265.366 26.5333 265.139 26.3833 264.88 26.2591C264.631 26.1349 264.373 26.0418 264.104 25.9797C263.835 25.9072 263.565 25.871 263.296 25.871C262.748 25.871 262.334 25.9745 262.055 26.1815C261.785 26.3781 261.651 26.6472 261.651 26.9887C261.651 27.2474 261.734 27.4596 261.899 27.6252C262.065 27.7908 262.324 27.9098 262.675 27.9822L264.15 28.2772C264.823 28.4117 265.33 28.6394 265.672 28.9602C266.023 29.281 266.199 29.7157 266.199 30.2642C266.199 30.7402 266.07 31.1542 265.811 31.5061C265.552 31.858 265.185 32.127 264.709 32.3133C264.243 32.4892 263.7 32.5772 263.079 32.5772ZM275.359 32.5772C274.583 32.5772 273.91 32.4168 273.341 32.096C272.782 31.7648 272.348 31.3043 272.037 30.7144C271.727 30.1141 271.572 29.4104 271.572 28.6032C271.572 27.8063 271.727 27.1181 272.037 26.5385C272.348 25.959 272.782 25.514 273.341 25.2035C273.91 24.8827 274.583 24.7222 275.359 24.7222C275.835 24.7222 276.306 24.805 276.772 24.9706C277.238 25.1259 277.621 25.3535 277.921 25.6537L277.424 26.7558C277.145 26.4868 276.829 26.2901 276.477 26.1659C276.125 26.0314 275.794 25.9641 275.484 25.9641C274.749 25.9641 274.18 26.197 273.776 26.6627C273.383 27.1181 273.186 27.7701 273.186 28.6187C273.186 29.4673 273.383 30.1348 273.776 30.6212C274.18 31.0973 274.749 31.3353 275.484 31.3353C275.794 31.3353 276.125 31.2732 276.477 31.149C276.829 31.0145 277.145 30.8127 277.424 30.5436L277.921 31.6613C277.621 31.9407 277.233 32.1632 276.756 32.3288C276.291 32.4944 275.825 32.5772 275.359 32.5772ZM282.408 32.5772C281.642 32.5772 280.979 32.4168 280.421 32.096C279.872 31.7752 279.443 31.3198 279.132 30.7299C278.822 30.14 278.666 29.4466 278.666 28.6497C278.666 27.8425 278.822 27.1491 279.132 26.5696C279.443 25.9797 279.872 25.5243 280.421 25.2035C280.979 24.8827 281.642 24.7222 282.408 24.7222C283.163 24.7222 283.815 24.8827 284.364 25.2035C284.922 25.5243 285.357 25.9797 285.668 26.5696C285.978 27.1595 286.133 27.8528 286.133 28.6497C286.133 29.4466 285.978 30.14 285.668 30.7299C285.357 31.3198 284.922 31.7752 284.364 32.096C283.815 32.4168 283.163 32.5772 282.408 32.5772ZM282.392 31.3664C283.044 31.3664 283.567 31.1335 283.96 30.6678C284.353 30.2021 284.55 29.5294 284.55 28.6497C284.55 27.7597 284.353 27.087 283.96 26.6317C283.567 26.1763 283.044 25.9486 282.392 25.9486C281.75 25.9486 281.233 26.1763 280.84 26.6317C280.446 27.087 280.25 27.7597 280.25 28.6497C280.25 29.5294 280.446 30.2021 280.84 30.6678C281.233 31.1335 281.75 31.3664 282.392 31.3664ZM287.894 32.4375V24.862H289.415V26.4764H289.245C289.472 25.8969 289.829 25.4622 290.316 25.1724C290.802 24.8723 291.361 24.7222 291.992 24.7222C292.593 24.7222 293.089 24.8361 293.483 25.0638C293.886 25.2811 294.186 25.6174 294.383 26.0728C294.58 26.5178 294.678 27.0818 294.678 27.7649V32.4375H293.11V27.858C293.11 27.4234 293.053 27.0715 292.939 26.8024C292.825 26.523 292.655 26.316 292.427 26.1815C292.199 26.0469 291.904 25.9797 291.542 25.9797C291.128 25.9797 290.761 26.0676 290.44 26.2436C290.13 26.4195 289.886 26.6731 289.71 27.0042C289.545 27.3354 289.462 27.7183 289.462 28.153V32.4375H287.894ZM300.947 32.4375V24.862H302.469V26.4764H302.298C302.433 26.1039 302.619 25.7882 302.857 25.5295C303.095 25.2707 303.379 25.0741 303.711 24.9396C304.052 24.7947 304.425 24.7222 304.828 24.7222C305.46 24.7222 305.972 24.8723 306.365 25.1724C306.758 25.4726 307.028 25.9331 307.172 26.554H306.955C307.152 25.9848 307.488 25.5398 307.964 25.219C308.44 24.8878 308.994 24.7222 309.625 24.7222C310.205 24.7222 310.681 24.8361 311.053 25.0638C311.426 25.2811 311.705 25.6174 311.892 26.0728C312.078 26.5178 312.171 27.0818 312.171 27.7649V32.4375H310.603V27.8425C310.603 27.2009 310.489 26.73 310.262 26.4298C310.044 26.1297 309.682 25.9797 309.175 25.9797C308.802 25.9797 308.476 26.0676 308.197 26.2436C307.918 26.4195 307.7 26.6782 307.545 27.0197C307.4 27.3509 307.328 27.7442 307.328 28.1995V32.4375H305.76V27.8425C305.76 27.2009 305.651 26.73 305.434 26.4298C305.216 26.1297 304.854 25.9797 304.347 25.9797C303.964 25.9797 303.633 26.0676 303.354 26.2436C303.085 26.4195 302.878 26.6782 302.733 27.0197C302.588 27.3509 302.515 27.7442 302.515 28.1995V32.4375H300.947ZM316.785 32.5772C316.257 32.5772 315.781 32.4737 315.357 32.2667C314.943 32.0598 314.617 31.7803 314.379 31.4285C314.141 31.0766 314.022 30.6782 314.022 30.2331C314.022 29.6743 314.161 29.2345 314.441 28.9136C314.731 28.5825 315.201 28.3496 315.853 28.2151C316.516 28.0702 317.406 27.9977 318.523 27.9977H319.253V28.9602H318.539C317.98 28.9602 317.509 28.9809 317.126 29.0223C316.743 29.0637 316.438 29.131 316.21 29.2241C315.983 29.3069 315.817 29.4259 315.714 29.5811C315.621 29.7364 315.574 29.9227 315.574 30.14C315.574 30.5333 315.709 30.8541 315.978 31.1025C316.247 31.3405 316.619 31.4595 317.095 31.4595C317.478 31.4595 317.815 31.3715 318.104 31.1956C318.394 31.0093 318.622 30.7609 318.787 30.4505C318.963 30.14 319.051 29.783 319.051 29.3793V27.5941C319.051 27.0042 318.927 26.5799 318.679 26.3212C318.43 26.0625 318.022 25.9331 317.452 25.9331C317.018 25.9331 316.583 26.0004 316.148 26.1349C315.714 26.2591 315.269 26.4609 314.813 26.7403L314.332 25.6381C314.601 25.4519 314.912 25.2914 315.264 25.1569C315.615 25.0224 315.983 24.9189 316.366 24.8464C316.759 24.7636 317.137 24.7222 317.499 24.7222C318.192 24.7222 318.762 24.8309 319.207 25.0482C319.662 25.2656 319.998 25.5967 320.216 26.0418C320.433 26.4868 320.542 27.0611 320.542 27.7649V32.4375H319.067V30.7454H319.207C319.124 31.1283 318.968 31.4595 318.741 31.7389C318.523 32.008 318.249 32.215 317.918 32.3599C317.587 32.5048 317.209 32.5772 316.785 32.5772ZM316.987 23.8529L318.586 20.7171H320.185L318.073 23.8529H316.987ZM325.356 32.5772C324.952 32.5772 324.559 32.541 324.176 32.4685C323.793 32.3961 323.441 32.2926 323.12 32.1581C322.799 32.0235 322.515 31.858 322.266 31.6613L322.717 30.6057C322.975 30.7816 323.25 30.9369 323.539 31.0714C323.829 31.1956 324.129 31.2887 324.44 31.3508C324.761 31.4129 325.071 31.444 325.371 31.444C325.92 31.444 326.334 31.3457 326.613 31.149C326.892 30.9524 327.032 30.6885 327.032 30.3573C327.032 30.0883 326.939 29.8813 326.753 29.7364C326.566 29.5811 326.287 29.4621 325.914 29.3793L324.44 29.0844C323.798 28.9499 323.312 28.7118 322.98 28.3703C322.649 28.0288 322.484 27.5941 322.484 27.0663C322.484 26.5903 322.613 26.1763 322.872 25.8244C323.131 25.4726 323.493 25.2035 323.958 25.0172C324.424 24.8206 324.962 24.7222 325.573 24.7222C325.925 24.7222 326.266 24.7585 326.597 24.8309C326.929 24.9034 327.239 25.0068 327.529 25.1414C327.829 25.2759 328.083 25.4467 328.29 25.6537L327.839 26.7093C327.643 26.5333 327.415 26.3833 327.156 26.2591C326.908 26.1349 326.649 26.0418 326.38 25.9797C326.111 25.9072 325.842 25.871 325.573 25.871C325.024 25.871 324.61 25.9745 324.331 26.1815C324.062 26.3781 323.927 26.6472 323.927 26.9887C323.927 27.2474 324.01 27.4596 324.176 27.6252C324.341 27.7908 324.6 27.9098 324.952 27.9822L326.427 28.2772C327.099 28.4117 327.607 28.6394 327.948 28.9602C328.3 29.281 328.476 29.7157 328.476 30.2642C328.476 30.7402 328.346 31.1542 328.088 31.5061C327.829 31.858 327.462 32.127 326.986 32.3133C326.52 32.4892 325.977 32.5772 325.356 32.5772ZM337.931 32.4375L333.103 21.4933H334.826L338.955 31.0714H338.381L342.495 21.4933H344.14L339.312 32.4375H337.931ZM347.783 32.5772C346.955 32.5772 346.241 32.422 345.641 32.1115C345.051 31.7907 344.59 31.3405 344.259 30.7609C343.938 30.171 343.778 29.4725 343.778 28.6653C343.778 27.8787 343.938 27.1905 344.259 26.6006C344.58 26.0107 345.02 25.5502 345.579 25.219C346.137 24.8878 346.774 24.7222 347.488 24.7222C348.192 24.7222 348.792 24.8775 349.289 25.188C349.796 25.4881 350.184 25.9176 350.453 26.4764C350.722 27.0353 350.857 27.7028 350.857 28.479V29.0068H345.02V28.0443H349.801L349.537 28.2616C349.537 27.4855 349.366 26.8852 349.025 26.4609C348.683 26.0366 348.192 25.8244 347.55 25.8244C347.064 25.8244 346.65 25.9383 346.308 26.1659C345.977 26.3936 345.723 26.7093 345.547 27.1129C345.372 27.5165 345.284 27.9874 345.284 28.5255V28.6187C345.284 29.2189 345.377 29.726 345.563 30.14C345.76 30.5436 346.044 30.8489 346.417 31.0559C346.789 31.2629 347.25 31.3664 347.798 31.3664C348.233 31.3664 348.657 31.2991 349.071 31.1646C349.496 31.0197 349.894 30.7972 350.267 30.497L350.732 31.5837C350.391 31.8942 349.951 32.1374 349.413 32.3133C348.875 32.4892 348.331 32.5772 347.783 32.5772ZM352.566 32.4375V24.862H354.087V26.4764H353.916C354.144 25.8969 354.501 25.4622 354.988 25.1724C355.474 24.8723 356.033 24.7222 356.664 24.7222C357.264 24.7222 357.761 24.8361 358.154 25.0638C358.558 25.2811 358.858 25.6174 359.055 26.0728C359.251 26.5178 359.35 27.0818 359.35 27.7649V32.4375H357.782V27.858C357.782 27.4234 357.725 27.0715 357.611 26.8024C357.497 26.523 357.326 26.316 357.099 26.1815C356.871 26.0469 356.576 25.9797 356.214 25.9797C355.8 25.9797 355.433 26.0676 355.112 26.2436C354.801 26.4195 354.558 26.6731 354.382 27.0042C354.217 27.3354 354.134 27.7183 354.134 28.153V32.4375H352.566ZM364.739 32.5772C363.797 32.5772 363.088 32.334 362.612 31.8476C362.147 31.3612 361.914 30.6575 361.914 29.7364V26.0728H360.439V24.862H361.914V22.58H363.482V24.862H365.826V26.0728H363.482V29.6122C363.482 30.1607 363.595 30.5747 363.823 30.8541C364.061 31.1335 364.444 31.2732 364.972 31.2732C365.127 31.2732 365.282 31.2525 365.438 31.2111C365.603 31.1697 365.764 31.1283 365.919 31.0869L366.167 32.2667C366.012 32.3599 365.795 32.4323 365.515 32.4841C365.246 32.5462 364.987 32.5772 364.739 32.5772ZM369.602 32.5772C369.074 32.5772 368.598 32.4737 368.173 32.2667C367.759 32.0598 367.433 31.7803 367.195 31.4285C366.957 31.0766 366.838 30.6782 366.838 30.2331C366.838 29.6743 366.978 29.2345 367.258 28.9136C367.547 28.5825 368.018 28.3496 368.67 28.2151C369.333 28.0702 370.223 27.9977 371.34 27.9977H372.07V28.9602H371.356C370.797 28.9602 370.326 28.9809 369.943 29.0223C369.56 29.0637 369.255 29.131 369.027 29.2241C368.8 29.3069 368.634 29.4259 368.53 29.5811C368.437 29.7364 368.391 29.9227 368.391 30.14C368.391 30.5333 368.525 30.8541 368.794 31.1025C369.063 31.3405 369.436 31.4595 369.912 31.4595C370.295 31.4595 370.631 31.3715 370.921 31.1956C371.211 31.0093 371.439 30.7609 371.604 30.4505C371.78 30.14 371.868 29.783 371.868 29.3793V27.5941C371.868 27.0042 371.744 26.5799 371.495 26.3212C371.247 26.0625 370.838 25.9331 370.269 25.9331C369.834 25.9331 369.4 26.0004 368.965 26.1349C368.53 26.2591 368.085 26.4609 367.63 26.7403L367.149 25.6381C367.418 25.4519 367.728 25.2914 368.08 25.1569C368.432 25.0224 368.8 24.9189 369.182 24.8464C369.576 24.7636 369.953 24.7222 370.316 24.7222C371.009 24.7222 371.578 24.8309 372.023 25.0482C372.479 25.2656 372.815 25.5967 373.032 26.0418C373.25 26.4868 373.358 27.0611 373.358 27.7649V32.4375H371.884V30.7454H372.023C371.941 31.1283 371.785 31.4595 371.558 31.7389C371.34 32.008 371.066 32.215 370.735 32.3599C370.404 32.5048 370.026 32.5772 369.602 32.5772ZM378.172 32.5772C377.769 32.5772 377.375 32.541 376.993 32.4685C376.61 32.3961 376.258 32.2926 375.937 32.1581C375.616 32.0235 375.332 31.858 375.083 31.6613L375.533 30.6057C375.792 30.7816 376.066 30.9369 376.356 31.0714C376.646 31.1956 376.946 31.2887 377.256 31.3508C377.577 31.4129 377.888 31.444 378.188 31.444C378.736 31.444 379.15 31.3457 379.43 31.149C379.709 30.9524 379.849 30.6885 379.849 30.3573C379.849 30.0883 379.756 29.8813 379.569 29.7364C379.383 29.5811 379.104 29.4621 378.731 29.3793L377.256 29.0844C376.615 28.9499 376.128 28.7118 375.797 28.3703C375.466 28.0288 375.3 27.5941 375.3 27.0663C375.3 26.5903 375.43 26.1763 375.689 25.8244C375.947 25.4726 376.31 25.2035 376.775 25.0172C377.241 24.8206 377.779 24.7222 378.39 24.7222C378.742 24.7222 379.083 24.7585 379.414 24.8309C379.745 24.9034 380.056 25.0068 380.346 25.1414C380.646 25.2759 380.899 25.4467 381.106 25.6537L380.656 26.7093C380.46 26.5333 380.232 26.3833 379.973 26.2591C379.725 26.1349 379.466 26.0418 379.197 25.9797C378.928 25.9072 378.659 25.871 378.39 25.871C377.841 25.871 377.427 25.9745 377.148 26.1815C376.879 26.3781 376.744 26.6472 376.744 26.9887C376.744 27.2474 376.827 27.4596 376.993 27.6252C377.158 27.7908 377.417 27.9098 377.769 27.9822L379.243 28.2772C379.916 28.4117 380.423 28.6394 380.765 28.9602C381.117 29.281 381.293 29.7157 381.293 30.2642C381.293 30.7402 381.163 31.1542 380.905 31.5061C380.646 31.858 380.278 32.127 379.802 32.3133C379.337 32.4892 378.793 32.5772 378.172 32.5772Z" fill="#181A1C"></path><path d="M221.771 45.0505H423.579" stroke="#D8DCE0" stroke-width="0.388091" stroke-linecap="round"></path><path d="M226.531 64.6931V63.9192H228.369V57.8781L228.853 57.8996L226.897 59.1465L226.51 58.4585L228.616 57.1149H229.272V63.9192H230.981V64.6931H226.531ZM232.46 64.6931V63.5644H233.6V64.6931H232.46ZM238.884 64.6931V57.1149H243.721V57.8781H239.776V60.4687H243.496V61.2319H239.776V63.9299H243.721V64.6931H238.884ZM246.933 64.7899C246.661 64.7899 246.392 64.7612 246.127 64.7039C245.862 64.6537 245.618 64.582 245.396 64.4889C245.174 64.3886 244.981 64.2703 244.816 64.1342L245.095 63.4999C245.274 63.6361 245.464 63.7472 245.665 63.8332C245.873 63.9192 246.084 63.9837 246.299 64.0267C246.521 64.0697 246.74 64.0912 246.955 64.0912C247.37 64.0912 247.689 64.0195 247.911 63.8762C248.134 63.7257 248.245 63.525 248.245 63.2742C248.245 63.0664 248.173 62.9052 248.03 62.7905C247.894 62.6758 247.675 62.5898 247.374 62.5325L246.353 62.3283C245.887 62.228 245.539 62.0631 245.31 61.8338C245.081 61.5973 244.966 61.2928 244.966 60.9201C244.966 60.5976 245.052 60.3218 245.224 60.0924C245.396 59.856 245.64 59.6732 245.955 59.5442C246.27 59.4081 246.639 59.34 247.062 59.34C247.306 59.34 247.546 59.3651 247.782 59.4152C248.019 59.4654 248.241 59.5406 248.449 59.641C248.657 59.7341 248.829 59.856 248.965 60.0064L248.675 60.6299C248.531 60.5009 248.37 60.3934 248.191 60.3074C248.012 60.2214 247.825 60.1569 247.632 60.1139C247.439 60.0638 247.249 60.0387 247.062 60.0387C246.654 60.0387 246.342 60.1175 246.127 60.2752C245.912 60.4257 245.805 60.6299 245.805 60.8879C245.805 61.0885 245.869 61.2498 245.998 61.3716C246.127 61.4934 246.331 61.583 246.611 61.6403L247.621 61.8446C248.109 61.9449 248.474 62.1061 248.718 62.3283C248.961 62.5504 249.083 62.8514 249.083 63.2312C249.083 63.5537 248.994 63.8332 248.814 64.0697C248.635 64.299 248.384 64.4781 248.062 64.6071C247.747 64.7289 247.37 64.7899 246.933 64.7899ZM252.567 64.7899C251.944 64.7899 251.475 64.625 251.159 64.2954C250.851 63.9586 250.697 63.482 250.697 62.8657V60.1569H249.654V59.4367H250.708V57.8458H251.589V59.4367H253.32V60.1569H251.589V62.7905C251.589 63.1918 251.675 63.4964 251.847 63.7042C252.026 63.912 252.309 64.0159 252.696 64.0159C252.818 64.0159 252.94 64.0016 253.062 63.9729C253.184 63.9443 253.298 63.912 253.406 63.8762L253.556 64.5749C253.449 64.6322 253.302 64.6824 253.116 64.7254C252.929 64.7684 252.747 64.7899 252.567 64.7899ZM256.094 64.7899C255.736 64.7899 255.41 64.7218 255.116 64.5856C254.829 64.4423 254.604 64.2488 254.439 64.0052C254.274 63.7615 254.192 63.4892 254.192 63.1882C254.192 62.7941 254.292 62.4859 254.493 62.2638C254.7 62.0345 255.037 61.8732 255.503 61.7801C255.969 61.6797 256.585 61.6296 257.352 61.6296H257.932V62.2315H257.384C256.954 62.2315 256.589 62.2459 256.288 62.2745C255.994 62.3032 255.757 62.3534 255.578 62.425C255.406 62.4895 255.281 62.5791 255.202 62.6938C255.13 62.8084 255.095 62.9553 255.095 63.1345C255.095 63.4283 255.198 63.6648 255.406 63.8439C255.621 64.0231 255.904 64.1127 256.255 64.1127C256.549 64.1127 256.811 64.0446 257.04 63.9084C257.269 63.7651 257.449 63.5752 257.578 63.3387C257.714 63.1022 257.782 62.8335 257.782 62.5325V61.3071C257.782 60.87 257.681 60.5547 257.481 60.3612C257.287 60.1605 256.976 60.0602 256.546 60.0602C256.238 60.0602 255.933 60.1068 255.632 60.1999C255.331 60.2859 255.023 60.4292 254.708 60.6299L254.407 59.9742C254.607 59.8452 254.826 59.7341 255.062 59.641C255.306 59.5478 255.557 59.4761 255.815 59.426C256.08 59.3687 256.338 59.34 256.589 59.34C257.04 59.34 257.42 59.4152 257.728 59.5657C258.036 59.709 258.266 59.9312 258.416 60.2322C258.574 60.526 258.653 60.9094 258.653 61.3823V64.6931H257.825V63.4892H257.889C257.818 63.7472 257.699 63.9765 257.535 64.1772C257.37 64.3706 257.166 64.5211 256.922 64.6286C256.678 64.7361 256.402 64.7899 256.094 64.7899ZM262.38 64.7899C261.907 64.7899 261.491 64.6788 261.133 64.4566C260.782 64.2345 260.51 63.9192 260.316 63.5107C260.123 63.0951 260.026 62.6113 260.026 62.0595C260.026 61.5078 260.123 61.0312 260.316 60.6299C260.51 60.2214 260.782 59.9061 261.133 59.684C261.484 59.4546 261.896 59.34 262.369 59.34C262.842 59.34 263.243 59.4582 263.573 59.6947C263.91 59.924 264.143 60.2322 264.272 60.6191H264.186V57.1149H265.078V64.6931H264.218V63.4677H264.293C264.164 63.8762 263.931 64.1986 263.595 64.4351C263.258 64.6716 262.853 64.7899 262.38 64.7899ZM262.563 64.0589C263.064 64.0589 263.462 63.8869 263.756 63.5429C264.05 63.1918 264.197 62.6973 264.197 62.0595C264.197 61.4289 264.05 60.9416 263.756 60.5976C263.462 60.2465 263.064 60.0709 262.563 60.0709C262.068 60.0709 261.67 60.2465 261.369 60.5976C261.076 60.9416 260.929 61.4289 260.929 62.0595C260.929 62.6973 261.076 63.1918 261.369 63.5429C261.67 63.8869 262.068 64.0589 262.563 64.0589ZM269.008 64.7899C268.492 64.7899 268.044 64.6788 267.664 64.4566C267.285 64.2273 266.991 63.9084 266.783 63.4999C266.575 63.0915 266.471 62.6113 266.471 62.0595C266.471 61.5078 266.575 61.0312 266.783 60.6299C266.991 60.2214 267.285 59.9061 267.664 59.684C268.044 59.4546 268.492 59.34 269.008 59.34C269.524 59.34 269.972 59.4546 270.352 59.684C270.731 59.9061 271.025 60.2214 271.233 60.6299C271.441 61.0312 271.545 61.5078 271.545 62.0595C271.545 62.6113 271.441 63.0915 271.233 63.4999C271.025 63.9084 270.731 64.2273 270.352 64.4566C269.972 64.6788 269.524 64.7899 269.008 64.7899ZM269.008 64.0482C269.51 64.0482 269.907 63.8762 270.201 63.5322C270.495 63.1811 270.642 62.6902 270.642 62.0595C270.642 61.4289 270.495 60.9416 270.201 60.5976C269.907 60.2537 269.51 60.0817 269.008 60.0817C268.506 60.0817 268.109 60.2537 267.815 60.5976C267.521 60.9416 267.374 61.4289 267.374 62.0595C267.374 62.6902 267.521 63.1811 267.815 63.5322C268.116 63.8762 268.514 64.0482 269.008 64.0482ZM274.762 64.7899C274.489 64.7899 274.221 64.7612 273.956 64.7039C273.69 64.6537 273.447 64.582 273.225 64.4889C273.002 64.3886 272.809 64.2703 272.644 64.1342L272.924 63.4999C273.103 63.6361 273.293 63.7472 273.493 63.8332C273.701 63.9192 273.913 63.9837 274.127 64.0267C274.35 64.0697 274.568 64.0912 274.783 64.0912C275.199 64.0912 275.518 64.0195 275.74 63.8762C275.962 63.7257 276.073 63.525 276.073 63.2742C276.073 63.0664 276.001 62.9052 275.858 62.7905C275.722 62.6758 275.503 62.5898 275.202 62.5325L274.181 62.3283C273.715 62.228 273.368 62.0631 273.139 61.8338C272.909 61.5973 272.795 61.2928 272.795 60.9201C272.795 60.5976 272.881 60.3218 273.053 60.0924C273.225 59.856 273.468 59.6732 273.784 59.5442C274.099 59.4081 274.468 59.34 274.891 59.34C275.134 59.34 275.374 59.3651 275.611 59.4152C275.847 59.4654 276.07 59.5406 276.277 59.641C276.485 59.7341 276.657 59.856 276.793 60.0064L276.503 60.6299C276.36 60.5009 276.199 60.3934 276.019 60.3074C275.84 60.2214 275.654 60.1569 275.46 60.1139C275.267 60.0638 275.077 60.0387 274.891 60.0387C274.482 60.0387 274.17 60.1175 273.956 60.2752C273.741 60.4257 273.633 60.6299 273.633 60.8879C273.633 61.0885 273.698 61.2498 273.827 61.3716C273.956 61.4934 274.16 61.583 274.439 61.6403L275.45 61.8446C275.937 61.9449 276.302 62.1061 276.546 62.3283C276.79 62.5504 276.912 62.8514 276.912 63.2312C276.912 63.5537 276.822 63.8332 276.643 64.0697C276.464 64.299 276.213 64.4781 275.89 64.6071C275.575 64.7289 275.199 64.7899 274.762 64.7899ZM284.25 64.7899C283.261 64.7899 282.505 64.5283 281.982 64.0052C281.466 63.482 281.208 62.7153 281.208 61.7048V57.1149H282.122V61.6726C282.122 62.4465 282.301 63.0234 282.659 63.4032C283.025 63.7758 283.555 63.9622 284.25 63.9622C284.945 63.9622 285.472 63.7758 285.83 63.4032C286.188 63.0234 286.368 62.4465 286.368 61.6726V57.1149H287.281V61.7048C287.281 62.7153 287.023 63.482 286.507 64.0052C285.991 64.5283 285.239 64.7899 284.25 64.7899ZM289.069 64.6931V59.4367H289.929V60.5976H289.843C290.001 60.1892 290.251 59.8774 290.595 59.6625C290.939 59.4475 291.33 59.34 291.767 59.34C292.197 59.34 292.552 59.4152 292.831 59.5657C293.111 59.7162 293.319 59.9491 293.455 60.2644C293.598 60.5726 293.67 60.9595 293.67 61.4253V64.6931H292.767V61.4791C292.767 61.1709 292.724 60.9165 292.638 60.7159C292.559 60.5081 292.43 60.354 292.251 60.2537C292.079 60.1462 291.849 60.0924 291.563 60.0924C291.247 60.0924 290.968 60.1605 290.724 60.2967C290.488 60.4328 290.302 60.6227 290.165 60.8664C290.029 61.11 289.961 61.3931 289.961 61.7156V64.6931H289.069ZM295.249 58.1468V57.1471H296.346V58.1468H295.249ZM295.357 64.6931V59.4367H296.249V64.6931H295.357ZM300.002 64.7899C299.529 64.7899 299.114 64.6788 298.755 64.4566C298.404 64.2345 298.132 63.9192 297.938 63.5107C297.745 63.0951 297.648 62.6113 297.648 62.0595C297.648 61.5078 297.745 61.0312 297.938 60.6299C298.132 60.2214 298.404 59.9061 298.755 59.684C299.107 59.4546 299.519 59.34 299.992 59.34C300.465 59.34 300.866 59.4582 301.195 59.6947C301.532 59.924 301.765 60.2322 301.894 60.6191H301.808V57.1149H302.7V64.6931H301.84V63.4677H301.916C301.787 63.8762 301.554 64.1986 301.217 64.4351C300.88 64.6716 300.475 64.7899 300.002 64.7899ZM300.185 64.0589C300.687 64.0589 301.084 63.8869 301.378 63.5429C301.672 63.1918 301.819 62.6973 301.819 62.0595C301.819 61.4289 301.672 60.9416 301.378 60.5976C301.084 60.2465 300.687 60.0709 300.185 60.0709C299.691 60.0709 299.293 60.2465 298.992 60.5976C298.698 60.9416 298.551 61.4289 298.551 62.0595C298.551 62.6973 298.698 63.1918 298.992 63.5429C299.293 63.8869 299.691 64.0589 300.185 64.0589ZM306.63 64.7899C306.114 64.7899 305.667 64.6788 305.287 64.4566C304.907 64.2273 304.613 63.9084 304.405 63.4999C304.197 63.0915 304.094 62.6113 304.094 62.0595C304.094 61.5078 304.197 61.0312 304.405 60.6299C304.613 60.2214 304.907 59.9061 305.287 59.684C305.667 59.4546 306.114 59.34 306.63 59.34C307.146 59.34 307.594 59.4546 307.974 59.684C308.354 59.9061 308.648 60.2214 308.855 60.6299C309.063 61.0312 309.167 61.5078 309.167 62.0595C309.167 62.6113 309.063 63.0915 308.855 63.4999C308.648 63.9084 308.354 64.2273 307.974 64.4566C307.594 64.6788 307.146 64.7899 306.63 64.7899ZM306.63 64.0482C307.132 64.0482 307.53 63.8762 307.824 63.5322C308.117 63.1811 308.264 62.6902 308.264 62.0595C308.264 61.4289 308.117 60.9416 307.824 60.5976C307.53 60.2537 307.132 60.0817 306.63 60.0817C306.129 60.0817 305.731 60.2537 305.437 60.5976C305.143 60.9416 304.996 61.4289 304.996 62.0595C304.996 62.6902 305.143 63.1811 305.437 63.5322C305.738 63.8762 306.136 64.0482 306.63 64.0482ZM312.384 64.7899C312.112 64.7899 311.843 64.7612 311.578 64.7039C311.313 64.6537 311.069 64.582 310.847 64.4889C310.625 64.3886 310.431 64.2703 310.266 64.1342L310.546 63.4999C310.725 63.6361 310.915 63.7472 311.116 63.8332C311.323 63.9192 311.535 63.9837 311.75 64.0267C311.972 64.0697 312.191 64.0912 312.406 64.0912C312.821 64.0912 313.14 64.0195 313.362 63.8762C313.584 63.7257 313.696 63.525 313.696 63.2742C313.696 63.0664 313.624 62.9052 313.481 62.7905C313.344 62.6758 313.126 62.5898 312.825 62.5325L311.804 62.3283C311.338 62.228 310.99 62.0631 310.761 61.8338C310.532 61.5973 310.417 61.2928 310.417 60.9201C310.417 60.5976 310.503 60.3218 310.675 60.0924C310.847 59.856 311.091 59.6732 311.406 59.5442C311.721 59.4081 312.09 59.34 312.513 59.34C312.757 59.34 312.997 59.3651 313.233 59.4152C313.47 59.4654 313.692 59.5406 313.9 59.641C314.108 59.7341 314.28 59.856 314.416 60.0064L314.125 60.6299C313.982 60.5009 313.821 60.3934 313.642 60.3074C313.463 60.2214 313.276 60.1569 313.083 60.1139C312.889 60.0638 312.699 60.0387 312.513 60.0387C312.105 60.0387 311.793 60.1175 311.578 60.2752C311.363 60.4257 311.255 60.6299 311.255 60.8879C311.255 61.0885 311.32 61.2498 311.449 61.3716C311.578 61.4934 311.782 61.583 312.062 61.6403L313.072 61.8446C313.559 61.9449 313.925 62.1061 314.168 62.3283C314.412 62.5504 314.534 62.8514 314.534 63.2312C314.534 63.5537 314.444 63.8332 314.265 64.0697C314.086 64.299 313.835 64.4781 313.513 64.6071C313.197 64.7289 312.821 64.7899 312.384 64.7899ZM226.241 81.6931V81.0159L228.853 78.2211C229.104 77.9488 229.304 77.698 229.455 77.4687C229.605 77.2393 229.713 77.0172 229.777 76.8022C229.849 76.5801 229.885 76.3579 229.885 76.1358C229.885 75.7058 229.752 75.3797 229.487 75.1576C229.229 74.9283 228.849 74.8136 228.348 74.8136C227.975 74.8136 227.617 74.8853 227.273 75.0286C226.936 75.1719 226.617 75.3905 226.316 75.6843L225.972 74.9748C226.266 74.681 226.628 74.4481 227.058 74.2761C227.495 74.1041 227.954 74.0181 228.434 74.0181C228.935 74.0181 229.362 74.1006 229.713 74.2654C230.064 74.423 230.333 74.6559 230.519 74.9641C230.705 75.2722 230.798 75.6413 230.798 76.0713C230.798 76.3006 230.77 76.5263 230.712 76.7485C230.662 76.9634 230.58 77.1784 230.465 77.3934C230.358 77.6084 230.218 77.8305 230.046 78.0599C229.881 78.282 229.684 78.5149 229.455 78.7586L227.23 81.1019V80.9084H231.099V81.6931H226.241ZM232.46 81.6931V80.5644H233.6V81.6931H232.46ZM242.152 81.7899C241.414 81.7899 240.78 81.6322 240.249 81.3169C239.719 81.0016 239.311 80.5537 239.024 79.9732C238.737 79.3928 238.594 78.7012 238.594 77.8986C238.594 77.096 238.737 76.4081 239.024 75.8348C239.311 75.2543 239.719 74.8064 240.249 74.4911C240.78 74.1758 241.414 74.0181 242.152 74.0181C242.675 74.0181 243.159 74.1006 243.603 74.2654C244.048 74.4302 244.42 74.6703 244.721 74.9856L244.377 75.7058C244.048 75.4048 243.704 75.1862 243.345 75.0501C242.994 74.9139 242.604 74.8458 242.174 74.8458C241.335 74.8458 240.69 75.111 240.239 75.6413C239.787 76.1644 239.562 76.9169 239.562 77.8986C239.562 78.8732 239.787 79.6293 240.239 80.1667C240.69 80.697 241.335 80.9622 242.174 80.9622C242.604 80.9622 242.994 80.8941 243.345 80.7579C243.704 80.6218 244.048 80.4032 244.377 80.1022L244.721 80.8224C244.42 81.1377 244.048 81.3778 243.603 81.5426C243.159 81.7074 242.675 81.7899 242.152 81.7899ZM247.602 81.7899C247.244 81.7899 246.917 81.7218 246.624 81.5856C246.337 81.4423 246.111 81.2488 245.946 81.0052C245.782 80.7615 245.699 80.4892 245.699 80.1882C245.699 79.7941 245.8 79.4859 246 79.2638C246.208 79.0345 246.545 78.8732 247.011 78.7801C247.476 78.6797 248.093 78.6296 248.86 78.6296H249.44V79.2315H248.892C248.462 79.2315 248.096 79.2459 247.795 79.2745C247.502 79.3032 247.265 79.3534 247.086 79.425C246.914 79.4895 246.789 79.5791 246.71 79.6938C246.638 79.8084 246.602 79.9553 246.602 80.1345C246.602 80.4283 246.706 80.6648 246.914 80.8439C247.129 81.0231 247.412 81.1127 247.763 81.1127C248.057 81.1127 248.318 81.0446 248.548 80.9084C248.777 80.7651 248.956 80.5752 249.085 80.3387C249.221 80.1022 249.289 79.8335 249.289 79.5325V78.3071C249.289 77.87 249.189 77.5547 248.989 77.3612C248.795 77.1605 248.483 77.0602 248.053 77.0602C247.745 77.0602 247.441 77.1068 247.14 77.1999C246.839 77.2859 246.531 77.4292 246.215 77.6299L245.914 76.9742C246.115 76.8452 246.333 76.7341 246.57 76.641C246.814 76.5478 247.064 76.4761 247.322 76.426C247.588 76.3687 247.846 76.34 248.096 76.34C248.548 76.34 248.928 76.4152 249.236 76.5657C249.544 76.709 249.773 76.9312 249.924 77.2322C250.081 77.526 250.16 77.9094 250.16 78.3823V81.6931H249.332V80.4892H249.397C249.325 80.7472 249.207 80.9765 249.042 81.1772C248.877 81.3706 248.673 81.5211 248.43 81.6286C248.186 81.7361 247.91 81.7899 247.602 81.7899ZM251.856 81.6931V76.4367H252.716V77.5976H252.63C252.788 77.1892 253.038 76.8774 253.382 76.6625C253.726 76.4475 254.117 76.34 254.554 76.34C254.984 76.34 255.339 76.4152 255.618 76.5657C255.898 76.7162 256.106 76.9491 256.242 77.2644C256.385 77.5726 256.457 77.9595 256.457 78.4253V81.6931H255.554V78.4791C255.554 78.1709 255.511 77.9165 255.425 77.7159C255.346 77.5081 255.217 77.354 255.038 77.2537C254.866 77.1462 254.636 77.0924 254.35 77.0924C254.034 77.0924 253.755 77.1605 253.511 77.2967C253.275 77.4328 253.089 77.6227 252.952 77.8664C252.816 78.11 252.748 78.3931 252.748 78.7156V81.6931H251.856ZM259.821 81.7899C259.462 81.7899 259.136 81.7218 258.843 81.5856C258.556 81.4423 258.33 81.2488 258.165 81.0052C258.001 80.7615 257.918 80.4892 257.918 80.1882C257.918 79.7941 258.018 79.4859 258.219 79.2638C258.427 79.0345 258.764 78.8732 259.23 78.7801C259.695 78.6797 260.312 78.6296 261.078 78.6296H261.659V79.2315H261.111C260.681 79.2315 260.315 79.2459 260.014 79.2745C259.72 79.3032 259.484 79.3534 259.305 79.425C259.133 79.4895 259.007 79.5791 258.929 79.6938C258.857 79.8084 258.821 79.9553 258.821 80.1345C258.821 80.4283 258.925 80.6648 259.133 80.8439C259.348 81.0231 259.631 81.1127 259.982 81.1127C260.276 81.1127 260.537 81.0446 260.767 80.9084C260.996 80.7651 261.175 80.5752 261.304 80.3387C261.44 80.1022 261.508 79.8335 261.508 79.5325V78.3071C261.508 77.87 261.408 77.5547 261.207 77.3612C261.014 77.1605 260.702 77.0602 260.272 77.0602C259.964 77.0602 259.66 77.1068 259.359 77.1999C259.058 77.2859 258.749 77.4292 258.434 77.6299L258.133 76.9742C258.334 76.8452 258.552 76.7341 258.789 76.641C259.032 76.5478 259.283 76.4761 259.541 76.426C259.806 76.3687 260.064 76.34 260.315 76.34C260.767 76.34 261.146 76.4152 261.455 76.5657C261.763 76.709 261.992 76.9312 262.143 77.2322C262.3 77.526 262.379 77.9094 262.379 78.3823V81.6931H261.551V80.4892H261.616C261.544 80.7472 261.426 80.9765 261.261 81.1772C261.096 81.3706 260.892 81.5211 260.648 81.6286C260.405 81.7361 260.129 81.7899 259.821 81.7899ZM266.106 81.7899C265.633 81.7899 265.218 81.6788 264.86 81.4566C264.508 81.2345 264.236 80.9192 264.043 80.5107C263.849 80.0951 263.752 79.6113 263.752 79.0595C263.752 78.5078 263.849 78.0312 264.043 77.6299C264.236 77.2214 264.508 76.9061 264.86 76.684C265.211 76.4546 265.623 76.34 266.096 76.34C266.569 76.34 266.97 76.4582 267.3 76.6947C267.636 76.924 267.869 77.2322 267.998 77.6191H267.912V74.1149H268.805V81.6931H267.945V80.4677H268.02C267.891 80.8762 267.658 81.1986 267.321 81.4351C266.984 81.6716 266.579 81.7899 266.106 81.7899ZM266.289 81.0589C266.791 81.0589 267.189 80.8869 267.482 80.5429C267.776 80.1918 267.923 79.6973 267.923 79.0595C267.923 78.4289 267.776 77.9416 267.482 77.5976C267.189 77.2465 266.791 77.0709 266.289 77.0709C265.795 77.0709 265.397 77.2465 265.096 77.5976C264.802 77.9416 264.655 78.4289 264.655 79.0595C264.655 79.6973 264.802 80.1918 265.096 80.5429C265.397 80.8869 265.795 81.0589 266.289 81.0589ZM272.197 81.7899C271.839 81.7899 271.513 81.7218 271.219 81.5856C270.932 81.4423 270.707 81.2488 270.542 81.0052C270.377 80.7615 270.294 80.4892 270.294 80.1882C270.294 79.7941 270.395 79.4859 270.595 79.2638C270.803 79.0345 271.14 78.8732 271.606 78.7801C272.072 78.6797 272.688 78.6296 273.455 78.6296H274.035V79.2315H273.487C273.057 79.2315 272.692 79.2459 272.391 79.2745C272.097 79.3032 271.86 79.3534 271.681 79.425C271.509 79.4895 271.384 79.5791 271.305 79.6938C271.233 79.8084 271.197 79.9553 271.197 80.1345C271.197 80.4283 271.301 80.6648 271.509 80.8439C271.724 81.0231 272.007 81.1127 272.358 81.1127C272.652 81.1127 272.914 81.0446 273.143 80.9084C273.372 80.7651 273.551 80.5752 273.68 80.3387C273.817 80.1022 273.885 79.8335 273.885 79.5325V78.3071C273.885 77.87 273.784 77.5547 273.584 77.3612C273.39 77.1605 273.079 77.0602 272.649 77.0602C272.34 77.0602 272.036 77.1068 271.735 77.1999C271.434 77.2859 271.126 77.4292 270.81 77.6299L270.509 76.9742C270.71 76.8452 270.929 76.7341 271.165 76.641C271.409 76.5478 271.66 76.4761 271.918 76.426C272.183 76.3687 272.441 76.34 272.692 76.34C273.143 76.34 273.523 76.4152 273.831 76.5657C274.139 76.709 274.368 76.9312 274.519 77.2322C274.677 77.526 274.755 77.9094 274.755 78.3823V81.6931H273.928V80.4892H273.992C273.921 80.7472 273.802 80.9765 273.637 81.1772C273.473 81.3706 273.268 81.5211 273.025 81.6286C272.781 81.7361 272.505 81.7899 272.197 81.7899ZM272.348 75.7488L273.465 73.5882H274.444L273.014 75.7488H272.348Z" fill="#181A1C"></path><path d="M334.639 64.7899C334.316 64.7899 333.997 64.7576 333.682 64.6931C333.374 64.6215 333.08 64.5175 332.801 64.3814C332.528 64.2452 332.285 64.0804 332.07 63.8869L332.414 63.1775C332.758 63.4641 333.112 63.6719 333.478 63.8009C333.843 63.9299 334.227 63.9944 334.628 63.9944C334.979 63.9944 335.28 63.9443 335.531 63.8439C335.782 63.7364 335.975 63.5788 336.111 63.371C336.248 63.1631 336.316 62.9052 336.316 62.597C336.316 62.1455 336.169 61.8087 335.875 61.5866C335.581 61.3573 335.155 61.2426 334.596 61.2426H333.467V60.4579H334.499C334.821 60.4579 335.101 60.4042 335.337 60.2967C335.581 60.182 335.771 60.0208 335.907 59.813C336.043 59.598 336.111 59.34 336.111 59.039C336.111 58.6377 335.979 58.3331 335.714 58.1253C335.449 57.9175 335.079 57.8136 334.606 57.8136C334.22 57.8136 333.854 57.8853 333.51 58.0286C333.166 58.1647 332.844 58.3833 332.543 58.6843L332.199 57.9748C332.492 57.6667 332.858 57.4302 333.295 57.2654C333.732 57.1006 334.187 57.0181 334.66 57.0181C335.148 57.0181 335.563 57.097 335.907 57.2546C336.258 57.4051 336.527 57.6273 336.713 57.9211C336.907 58.2077 337.004 58.5553 337.004 58.9638C337.004 59.4152 336.875 59.8094 336.617 60.1462C336.366 60.4758 336.022 60.7016 335.585 60.8234V60.7481C335.921 60.8055 336.212 60.9201 336.455 61.0921C336.699 61.2569 336.885 61.4719 337.014 61.7371C337.143 62.0022 337.208 62.3032 337.208 62.64C337.208 63.0843 337.104 63.4677 336.896 63.7902C336.688 64.1127 336.391 64.3599 336.004 64.5319C335.624 64.7039 335.169 64.7899 334.639 64.7899ZM338.666 64.6931V63.5644H339.805V64.6931H338.666ZM345.089 64.6931V57.1149H348.131C348.941 57.1149 349.565 57.3048 350.002 57.6846C350.446 58.0572 350.668 58.5947 350.668 59.297C350.668 59.7341 350.575 60.1103 350.389 60.4257C350.202 60.741 349.934 60.9846 349.583 61.1566C349.231 61.3286 348.809 61.4218 348.314 61.4361L348.4 61.3286L348.583 61.3393C348.834 61.3465 349.052 61.4182 349.239 61.5543C349.425 61.6905 349.597 61.9091 349.755 62.21L351.098 64.6931H350.099L348.798 62.2853C348.69 62.0775 348.572 61.9198 348.443 61.8123C348.314 61.6977 348.164 61.6188 347.992 61.5758C347.827 61.5328 347.626 61.5113 347.39 61.5113H346.003V64.6931H345.089ZM346.003 60.7804H348.013C348.601 60.7804 349.038 60.6586 349.325 60.4149C349.618 60.1641 349.765 59.7986 349.765 59.3185C349.765 58.8384 349.618 58.48 349.325 58.2436C349.031 57.9999 348.59 57.8781 348.002 57.8781H346.003V60.7804ZM354.612 64.7899C354.045 64.7899 353.558 64.6824 353.15 64.4674C352.741 64.2452 352.426 63.9335 352.204 63.5322C351.982 63.1237 351.871 62.6364 351.871 62.0703C351.871 61.5328 351.978 61.0599 352.193 60.6514C352.408 60.2429 352.705 59.924 353.085 59.6947C353.472 59.4582 353.92 59.34 354.429 59.34C354.916 59.34 355.332 59.4475 355.676 59.6625C356.02 59.8703 356.281 60.1713 356.46 60.5654C356.647 60.9524 356.74 61.4146 356.74 61.9521V62.2745H352.548V61.6726H356.16L355.966 61.8338C355.966 61.2605 355.837 60.8162 355.579 60.5009C355.321 60.1784 354.941 60.0172 354.44 60.0172C354.081 60.0172 353.773 60.0996 353.515 60.2644C353.264 60.4292 353.071 60.6586 352.935 60.9524C352.806 61.2462 352.741 61.5902 352.741 61.9843V62.0595C352.741 62.4967 352.813 62.8657 352.956 63.1667C353.1 63.4605 353.311 63.6827 353.59 63.8332C353.877 63.9837 354.217 64.0589 354.612 64.0589C354.92 64.0589 355.221 64.0123 355.515 63.9192C355.808 63.826 356.088 63.6719 356.353 63.457L356.643 64.0912C356.4 64.3133 356.091 64.4853 355.719 64.6071C355.353 64.7289 354.984 64.7899 354.612 64.7899ZM357.996 58.1468V57.1471H359.092V58.1468H357.996ZM358.103 64.6931V59.4367H358.995V64.6931H358.103ZM360.717 64.6931V59.4367H361.577V60.5976H361.491C361.648 60.1892 361.899 59.8774 362.243 59.6625C362.587 59.4475 362.978 59.34 363.415 59.34C363.845 59.34 364.2 59.4152 364.479 59.5657C364.759 59.7162 364.966 59.9491 365.103 60.2644C365.246 60.5726 365.318 60.9595 365.318 61.4253V64.6931H364.415V61.4791C364.415 61.1709 364.372 60.9165 364.286 60.7159C364.207 60.5081 364.078 60.354 363.899 60.2537C363.727 60.1462 363.497 60.0924 363.211 60.0924C362.895 60.0924 362.616 60.1605 362.372 60.2967C362.136 60.4328 361.949 60.6227 361.813 60.8664C361.677 61.11 361.609 61.3931 361.609 61.7156V64.6931H360.717ZM369.219 64.7899C368.703 64.7899 368.255 64.6788 367.875 64.4566C367.496 64.2273 367.202 63.9084 366.994 63.4999C366.786 63.0915 366.682 62.6113 366.682 62.0595C366.682 61.5078 366.786 61.0312 366.994 60.6299C367.202 60.2214 367.496 59.9061 367.875 59.684C368.255 59.4546 368.703 59.34 369.219 59.34C369.735 59.34 370.183 59.4546 370.563 59.684C370.943 59.9061 371.236 60.2214 371.444 60.6299C371.652 61.0312 371.756 61.5078 371.756 62.0595C371.756 62.6113 371.652 63.0915 371.444 63.4999C371.236 63.9084 370.943 64.2273 370.563 64.4566C370.183 64.6788 369.735 64.7899 369.219 64.7899ZM369.219 64.0482C369.721 64.0482 370.118 63.8762 370.412 63.5322C370.706 63.1811 370.853 62.6902 370.853 62.0595C370.853 61.4289 370.706 60.9416 370.412 60.5976C370.118 60.2537 369.721 60.0817 369.219 60.0817C368.717 60.0817 368.32 60.2537 368.026 60.5976C367.732 60.9416 367.585 61.4289 367.585 62.0595C367.585 62.6902 367.732 63.1811 368.026 63.5322C368.327 63.8762 368.725 64.0482 369.219 64.0482ZM379.097 64.7899C378.108 64.7899 377.352 64.5283 376.829 64.0052C376.313 63.482 376.055 62.7153 376.055 61.7048V57.1149H376.969V61.6726C376.969 62.4465 377.148 63.0234 377.506 63.4032C377.872 63.7758 378.402 63.9622 379.097 63.9622C379.792 63.9622 380.319 63.7758 380.677 63.4032C381.035 63.0234 381.215 62.4465 381.215 61.6726V57.1149H382.128V61.7048C382.128 62.7153 381.87 63.482 381.354 64.0052C380.838 64.5283 380.086 64.7899 379.097 64.7899ZM383.916 64.6931V59.4367H384.776V60.5976H384.69C384.848 60.1892 385.098 59.8774 385.442 59.6625C385.786 59.4475 386.177 59.34 386.614 59.34C387.044 59.34 387.399 59.4152 387.678 59.5657C387.958 59.7162 388.165 59.9491 388.302 60.2644C388.445 60.5726 388.517 60.9595 388.517 61.4253V64.6931H387.614V61.4791C387.614 61.1709 387.571 60.9165 387.485 60.7159C387.406 60.5081 387.277 60.354 387.098 60.2537C386.926 60.1462 386.696 60.0924 386.41 60.0924C386.094 60.0924 385.815 60.1605 385.571 60.2967C385.335 60.4328 385.149 60.6227 385.012 60.8664C384.876 61.11 384.808 61.3931 384.808 61.7156V64.6931H383.916ZM390.096 58.1468V57.1471H391.193V58.1468H390.096ZM390.204 64.6931V59.4367H391.096V64.6931H390.204ZM394.849 64.7899C394.376 64.7899 393.961 64.6788 393.602 64.4566C393.251 64.2345 392.979 63.9192 392.785 63.5107C392.592 63.0951 392.495 62.6113 392.495 62.0595C392.495 61.5078 392.592 61.0312 392.785 60.6299C392.979 60.2214 393.251 59.9061 393.602 59.684C393.954 59.4546 394.366 59.34 394.839 59.34C395.311 59.34 395.713 59.4582 396.042 59.6947C396.379 59.924 396.612 60.2322 396.741 60.6191H396.655V57.1149H397.547V64.6931H396.687V63.4677H396.763C396.634 63.8762 396.401 64.1986 396.064 64.4351C395.727 64.6716 395.322 64.7899 394.849 64.7899ZM395.032 64.0589C395.534 64.0589 395.931 63.8869 396.225 63.5429C396.519 63.1918 396.666 62.6973 396.666 62.0595C396.666 61.4289 396.519 60.9416 396.225 60.5976C395.931 60.2465 395.534 60.0709 395.032 60.0709C394.538 60.0709 394.14 60.2465 393.839 60.5976C393.545 60.9416 393.398 61.4289 393.398 62.0595C393.398 62.6973 393.545 63.1918 393.839 63.5429C394.14 63.8869 394.538 64.0589 395.032 64.0589ZM401.477 64.7899C400.961 64.7899 400.514 64.6788 400.134 64.4566C399.754 64.2273 399.46 63.9084 399.252 63.4999C399.044 63.0915 398.941 62.6113 398.941 62.0595C398.941 61.5078 399.044 61.0312 399.252 60.6299C399.46 60.2214 399.754 59.9061 400.134 59.684C400.514 59.4546 400.961 59.34 401.477 59.34C401.993 59.34 402.441 59.4546 402.821 59.684C403.201 59.9061 403.495 60.2214 403.702 60.6299C403.91 61.0312 404.014 61.5078 404.014 62.0595C404.014 62.6113 403.91 63.0915 403.702 63.4999C403.495 63.9084 403.201 64.2273 402.821 64.4566C402.441 64.6788 401.993 64.7899 401.477 64.7899ZM401.477 64.0482C401.979 64.0482 402.377 63.8762 402.671 63.5322C402.964 63.1811 403.111 62.6902 403.111 62.0595C403.111 61.4289 402.964 60.9416 402.671 60.5976C402.377 60.2537 401.979 60.0817 401.477 60.0817C400.976 60.0817 400.578 60.2537 400.284 60.5976C399.99 60.9416 399.843 61.4289 399.843 62.0595C399.843 62.6902 399.99 63.1811 400.284 63.5322C400.585 63.8762 400.983 64.0482 401.477 64.0482ZM335.574 81.6931V80.0807H332.07V79.4035L335.671 74.1149H336.477V79.3175H337.584V80.0807H336.477V81.6931H335.574ZM335.585 79.3175V75.2221H335.778L332.854 79.5325L332.822 79.3175H335.585ZM338.666 81.6931V80.5644H339.805V81.6931H338.666ZM344.348 81.6931L347.691 74.1149H348.475L351.808 81.6931H350.872L349.937 79.5325L350.378 79.7797H345.767L346.207 79.5325L345.294 81.6931H344.348ZM348.067 75.1683L346.347 79.2208L346.089 79.0166H350.066L349.808 79.2208L348.088 75.1683H348.067ZM354.53 81.7899C353.999 81.7899 353.598 81.6358 353.326 81.3276C353.054 81.0195 352.917 80.5788 352.917 80.0055V74.1149H353.81V79.9195C353.81 80.1631 353.842 80.3674 353.906 80.5322C353.978 80.697 354.078 80.8224 354.207 80.9084C354.343 80.9872 354.508 81.0267 354.702 81.0267C354.795 81.0267 354.884 81.0231 354.97 81.0159C355.056 81.0087 355.139 80.9908 355.218 80.9622L355.207 81.7039C355.092 81.7325 354.978 81.754 354.863 81.7684C354.755 81.7827 354.644 81.7899 354.53 81.7899ZM358.548 81.7899C357.982 81.7899 357.495 81.6824 357.086 81.4674C356.678 81.2452 356.362 80.9335 356.14 80.5322C355.918 80.1237 355.807 79.6364 355.807 79.0703C355.807 78.5328 355.915 78.0599 356.13 77.6514C356.345 77.2429 356.642 76.924 357.022 76.6947C357.409 76.4582 357.857 76.34 358.365 76.34C358.853 76.34 359.268 76.4475 359.612 76.6625C359.956 76.8703 360.218 77.1713 360.397 77.5654C360.583 77.9524 360.676 78.4146 360.676 78.9521V79.2745H356.484V78.6726H360.096L359.903 78.8338C359.903 78.2605 359.774 77.8162 359.516 77.5009C359.258 77.1784 358.878 77.0172 358.376 77.0172C358.018 77.0172 357.71 77.0996 357.452 77.2644C357.201 77.4292 357.007 77.6586 356.871 77.9524C356.742 78.2462 356.678 78.5902 356.678 78.9843V79.0595C356.678 79.4967 356.749 79.8657 356.893 80.1667C357.036 80.4605 357.247 80.6827 357.527 80.8332C357.814 80.9837 358.154 81.0589 358.548 81.0589C358.856 81.0589 359.157 81.0123 359.451 80.9192C359.745 80.826 360.024 80.6719 360.289 80.457L360.58 81.0912C360.336 81.3133 360.028 81.4853 359.655 81.6071C359.29 81.7289 358.921 81.7899 358.548 81.7899ZM362.061 81.6931V76.4367H362.921V77.6084H362.835C362.928 77.3432 363.057 77.1175 363.222 76.9312C363.394 76.7449 363.595 76.6016 363.824 76.5012C364.06 76.3937 364.322 76.34 364.609 76.34C365.06 76.34 365.426 76.4511 365.705 76.6732C365.992 76.8882 366.178 77.2071 366.264 77.6299H366.156C366.285 77.2429 366.511 76.9312 366.834 76.6947C367.163 76.4582 367.554 76.34 368.005 76.34C368.407 76.34 368.736 76.4188 368.994 76.5765C369.259 76.727 369.457 76.9563 369.586 77.2644C369.722 77.5726 369.79 77.9595 369.79 78.4253V81.6931H368.898V78.4791C368.898 78.0061 368.815 77.6586 368.65 77.4364C368.485 77.2071 368.202 77.0924 367.801 77.0924C367.507 77.0924 367.253 77.1605 367.038 77.2967C366.823 77.4328 366.658 77.6263 366.543 77.8771C366.429 78.1208 366.371 78.4074 366.371 78.7371V81.6931H365.479V78.4791C365.479 78.0061 365.39 77.6586 365.211 77.4364C365.039 77.2071 364.763 77.0924 364.383 77.0924C364.089 77.0924 363.835 77.1641 363.62 77.3074C363.405 77.4436 363.24 77.6371 363.125 77.8879C363.011 78.1315 362.953 78.411 362.953 78.7263V81.6931H362.061ZM373.185 81.7899C372.827 81.7899 372.501 81.7218 372.207 81.5856C371.92 81.4423 371.694 81.2488 371.53 81.0052C371.365 80.7615 371.282 80.4892 371.282 80.1882C371.282 79.7941 371.383 79.4859 371.583 79.2638C371.791 79.0345 372.128 78.8732 372.594 78.7801C373.06 78.6797 373.676 78.6296 374.443 78.6296H375.023V79.2315H374.475C374.045 79.2315 373.679 79.2459 373.378 79.2745C373.085 79.3032 372.848 79.3534 372.669 79.425C372.497 79.4895 372.372 79.5791 372.293 79.6938C372.221 79.8084 372.185 79.9553 372.185 80.1345C372.185 80.4283 372.289 80.6648 372.497 80.8439C372.712 81.0231 372.995 81.1127 373.346 81.1127C373.64 81.1127 373.902 81.0446 374.131 80.9084C374.36 80.7651 374.539 80.5752 374.668 80.3387C374.805 80.1022 374.873 79.8335 374.873 79.5325V78.3071C374.873 77.87 374.772 77.5547 374.572 77.3612C374.378 77.1605 374.066 77.0602 373.636 77.0602C373.328 77.0602 373.024 77.1068 372.723 77.1999C372.422 77.2859 372.114 77.4292 371.798 77.6299L371.497 76.9742C371.698 76.8452 371.917 76.7341 372.153 76.641C372.397 76.5478 372.648 76.4761 372.906 76.426C373.171 76.3687 373.429 76.34 373.679 76.34C374.131 76.34 374.511 76.4152 374.819 76.5657C375.127 76.709 375.356 76.9312 375.507 77.2322C375.664 77.526 375.743 77.9094 375.743 78.3823V81.6931H374.916V80.4892H374.98C374.908 80.7472 374.79 80.9765 374.625 81.1772C374.461 81.3706 374.256 81.5211 374.013 81.6286C373.769 81.7361 373.493 81.7899 373.185 81.7899ZM377.439 81.6931V76.4367H378.299V77.5976H378.213C378.371 77.1892 378.622 76.8774 378.965 76.6625C379.309 76.4475 379.7 76.34 380.137 76.34C380.567 76.34 380.922 76.4152 381.201 76.5657C381.481 76.7162 381.689 76.9491 381.825 77.2644C381.968 77.5726 382.04 77.9595 382.04 78.4253V81.6931H381.137V78.4791C381.137 78.1709 381.094 77.9165 381.008 77.7159C380.929 77.5081 380.8 77.354 380.621 77.2537C380.449 77.1462 380.22 77.0924 379.933 77.0924C379.618 77.0924 379.338 77.1605 379.094 77.2967C378.858 77.4328 378.672 77.6227 378.536 77.8664C378.399 78.11 378.331 78.3931 378.331 78.7156V81.6931H377.439ZM383.619 75.1468V74.1471H384.716V75.1468H383.619ZM383.727 81.6931V76.4367H384.619V81.6931H383.727ZM388.018 81.7899C387.659 81.7899 387.333 81.7218 387.04 81.5856C386.753 81.4423 386.527 81.2488 386.362 81.0052C386.197 80.7615 386.115 80.4892 386.115 80.1882C386.115 79.7941 386.215 79.4859 386.416 79.2638C386.624 79.0345 386.961 78.8732 387.426 78.7801C387.892 78.6797 388.509 78.6296 389.275 78.6296H389.856V79.2315H389.308C388.878 79.2315 388.512 79.2459 388.211 79.2745C387.917 79.3032 387.681 79.3534 387.502 79.425C387.33 79.4895 387.204 79.5791 387.126 79.6938C387.054 79.8084 387.018 79.9553 387.018 80.1345C387.018 80.4283 387.122 80.6648 387.33 80.8439C387.545 81.0231 387.828 81.1127 388.179 81.1127C388.473 81.1127 388.734 81.0446 388.964 80.9084C389.193 80.7651 389.372 80.5752 389.501 80.3387C389.637 80.1022 389.705 79.8335 389.705 79.5325V78.3071C389.705 77.87 389.605 77.5547 389.404 77.3612C389.211 77.1605 388.899 77.0602 388.469 77.0602C388.161 77.0602 387.856 77.1068 387.555 77.1999C387.255 77.2859 386.946 77.4292 386.631 77.6299L386.33 76.9742C386.531 76.8452 386.749 76.7341 386.986 76.641C387.229 76.5478 387.48 76.4761 387.738 76.426C388.003 76.3687 388.261 76.34 388.512 76.34C388.964 76.34 389.343 76.4152 389.652 76.5657C389.96 76.709 390.189 76.9312 390.34 77.2322C390.497 77.526 390.576 77.9094 390.576 78.3823V81.6931H389.748V80.4892H389.813C389.741 80.7472 389.623 80.9765 389.458 81.1772C389.293 81.3706 389.089 81.5211 388.845 81.6286C388.602 81.7361 388.326 81.7899 388.018 81.7899Z" fill="#181A1C"></path><defs><clipPath id="clip0_93_2692"><rect width="10.6725" height="10.6725" fill="white" transform="translate(19.792 65.5027)"></rect></clipPath></defs></svg>