<svg xmlns="http://www.w3.org/2000/svg" width="48" height="48" viewBox="0 0 48 48" fill="none"><path d="M47 24C47 11.2975 36.7025 1 24 1C11.2975 1 1 11.2975 1 24C1 36.7025 11.2975 47 24 47C36.7025 47 47 36.7025 47 24Z" stroke="white" stroke-opacity="0.15" stroke-width="0.836364"></path><path d="M40.5322 23.6567C40.54 14.3139 32.9724 6.73373 23.6296 6.72597C14.2867 6.71821 6.7066 14.2858 6.69884 23.6286C6.69108 32.9714 14.2586 40.5516 23.6015 40.5593C32.9443 40.5671 40.5244 32.9995 40.5322 23.6567Z" fill="url(#paint0_linear_97_6466)" fill-opacity="0.15"></path><path d="M40.5322 23.6567C40.54 14.3139 32.9724 6.73373 23.6296 6.72597C14.2867 6.71821 6.7066 14.2858 6.69884 23.6286C6.69108 32.9714 14.2586 40.5516 23.6015 40.5593C32.9443 40.5671 40.5244 32.9995 40.5322 23.6567Z" stroke="url(#paint1_linear_97_6466)" stroke-opacity="0.15" stroke-width="0.867522"></path><path d="M40.5322 23.6567C40.54 14.3139 32.9724 6.73373 23.6296 6.72597C14.2867 6.71821 6.7066 14.2858 6.69884 23.6286C6.69108 32.9714 14.2586 40.5516 23.6015 40.5593C32.9443 40.5671 40.5244 32.9995 40.5322 23.6567Z" stroke="url(#paint2_radial_97_6466)" stroke-width="0.867522"></path><path d="M40.5322 23.6567C40.54 14.3139 32.9724 6.73373 23.6296 6.72597C14.2867 6.71821 6.7066 14.2858 6.69884 23.6286C6.69108 32.9714 14.2586 40.5516 23.6015 40.5593C32.9443 40.5671 40.5244 32.9995 40.5322 23.6567Z" stroke="url(#paint3_radial_97_6466)" stroke-width="0.867522"></path><path d="M23.5554 23.5547H23.5652M26.995 18.397V16.6777C26.995 16.2218 26.8139 15.7845 26.4915 15.4621C26.1691 15.1396 25.7318 14.9585 25.2758 14.9585H21.8373C21.3813 14.9585 20.944 15.1396 20.6216 15.4621C20.2992 15.7845 20.1181 16.2218 20.1181 16.6777V18.397M32.1524 24.414C29.6017 26.098 26.6126 26.9957 23.5562 26.9957C20.4997 26.9957 17.5106 26.098 14.96 24.414M16.6792 18.3969H30.4331C31.3827 18.3969 32.1524 19.1666 32.1524 20.1161V28.7123C32.1524 29.6618 31.3827 30.4316 30.4331 30.4316H16.6792C15.7297 30.4316 14.96 29.6618 14.96 28.7123V20.1161C14.96 19.1666 15.7297 18.3969 16.6792 18.3969Z" stroke="black" stroke-width="1.3" stroke-linecap="round" stroke-linejoin="round"></path><path d="M23.5554 23.5547H23.5652M26.995 18.397V16.6777C26.995 16.2218 26.8139 15.7845 26.4915 15.4621C26.1691 15.1396 25.7318 14.9585 25.2758 14.9585H21.8373C21.3813 14.9585 20.944 15.1396 20.6216 15.4621C20.2992 15.7845 20.1181 16.2218 20.1181 16.6777V18.397M32.1524 24.414C29.6017 26.098 26.6126 26.9957 23.5562 26.9957C20.4997 26.9957 17.5106 26.098 14.96 24.414M16.6792 18.3969H30.4331C31.3827 18.3969 32.1524 19.1666 32.1524 20.1161V28.7123C32.1524 29.6618 31.3827 30.4316 30.4331 30.4316H16.6792C15.7297 30.4316 14.96 29.6618 14.96 28.7123V20.1161C14.96 19.1666 15.7297 18.3969 16.6792 18.3969Z" stroke="url(#paint4_linear_97_6466)" stroke-width="1.3" stroke-linecap="round" stroke-linejoin="round"></path><path d="M23.5554 23.5547H23.5652M26.995 18.397V16.6777C26.995 16.2218 26.8139 15.7845 26.4915 15.4621C26.1691 15.1396 25.7318 14.9585 25.2758 14.9585H21.8373C21.3813 14.9585 20.944 15.1396 20.6216 15.4621C20.2992 15.7845 20.1181 16.2218 20.1181 16.6777V18.397M32.1524 24.414C29.6017 26.098 26.6126 26.9957 23.5562 26.9957C20.4997 26.9957 17.5106 26.098 14.96 24.414M16.6792 18.3969H30.4331C31.3827 18.3969 32.1524 19.1666 32.1524 20.1161V28.7123C32.1524 29.6618 31.3827 30.4316 30.4331 30.4316H16.6792C15.7297 30.4316 14.96 29.6618 14.96 28.7123V20.1161C14.96 19.1666 15.7297 18.3969 16.6792 18.3969Z" stroke="url(#paint5_linear_97_6466)" stroke-width="1.3" stroke-linecap="round" stroke-linejoin="round"></path><defs><linearGradient id="paint0_linear_97_6466" x1="23.6299" y1="6.29221" x2="23.6011" y2="40.9931" gradientUnits="userSpaceOnUse"><stop stop-color="white"></stop><stop offset="1" stop-color="white" stop-opacity="0"></stop></linearGradient><linearGradient id="paint1_linear_97_6466" x1="23.6299" y1="6.29221" x2="23.6011" y2="40.9931" gradientUnits="userSpaceOnUse"><stop stop-color="white" stop-opacity="0"></stop><stop offset="1" stop-color="white"></stop></linearGradient><radialGradient id="paint2_radial_97_6466" cx="0" cy="0" r="1" gradientUnits="userSpaceOnUse" gradientTransform="translate(17.99 7.5888) rotate(80.4646) scale(33.8722 46.2084)"><stop stop-color="#7595FF"></stop><stop offset="0.201" stop-color="#7595FF" stop-opacity="0"></stop></radialGradient><radialGradient id="paint3_radial_97_6466" cx="0" cy="0" r="1" gradientUnits="userSpaceOnUse" gradientTransform="translate(33.724 37.9656) rotate(-121.56) scale(33.1053 30.0747)"><stop stop-color="#7595FF"></stop><stop offset="0.293" stop-color="#7595FF" stop-opacity="0"></stop></radialGradient><linearGradient id="paint4_linear_97_6466" x1="1.81642" y1="3.03973" x2="25.0256" y2="-10.5403" gradientUnits="userSpaceOnUse"><stop stop-color="#00F9FD"></stop><stop offset="0.563101" stop-color="#8376FF"></stop><stop offset="0.885" stop-color="#E40EFF"></stop></linearGradient><linearGradient id="paint5_linear_97_6466" x1="15.362" y1="8.02958" x2="24.6346" y2="9.39703" gradientUnits="userSpaceOnUse"><stop stop-color="white" stop-opacity="0.9"></stop><stop offset="1" stop-color="white" stop-opacity="0"></stop></linearGradient></defs></svg>