<svg xmlns="http://www.w3.org/2000/svg" width="92" height="92" viewBox="0 0 92 92" fill="none"><rect width="92" height="92" rx="10.5143" fill="white"></rect><path d="M51.037 55.9055H41.0564C41.0564 45.9249 46.3794 42.5981 50.039 40.6019C51.3697 39.9366 52.3678 39.2712 53.0331 38.6058C54.6966 36.9424 54.0312 34.6136 53.6985 33.9482C52.7004 31.6194 50.3716 29.2906 46.0467 29.2906C39.0603 29.2906 37.7296 35.6117 37.7296 36.9424L27.749 35.6117C28.4144 29.956 33.4047 19.3101 46.0467 19.3101C53.6985 19.3101 60.3522 23.635 63.0137 29.956C65.3425 35.6117 64.3444 41.6 60.3522 45.5922C58.6888 47.2557 56.6927 48.2537 55.0292 49.2518C52.0351 50.9152 51.037 52.5786 51.037 55.9055ZM52.7004 65.886C52.7205 66.7721 52.5633 67.6533 52.2381 68.4778C51.9129 69.3022 51.4263 70.0534 50.8068 70.6873C50.1873 71.3211 49.4474 71.8248 48.6306 72.1687C47.8137 72.5127 46.9364 72.69 46.0501 72.6902C45.1638 72.6904 44.2864 72.5136 43.4694 72.17C42.6524 71.8265 41.9122 71.3232 41.2924 70.6897C40.6726 70.0561 40.1856 69.3052 39.86 68.4808C39.5344 67.6565 39.3768 66.7755 39.3963 65.8894C39.4348 64.1509 40.1523 62.4965 41.3953 61.2804C42.6382 60.0644 44.3079 59.3832 46.0468 59.3828C47.7857 59.3823 49.4557 60.0627 50.6992 61.2781C51.9428 62.4936 52.6611 64.1476 52.7004 65.886Z" fill="black"></path><path d="M51.037 55.9055H41.0564C41.0564 45.9249 46.3794 42.5981 50.039 40.6019C51.3697 39.9366 52.3678 39.2712 53.0331 38.6058C54.6966 36.9424 54.0312 34.6136 53.6985 33.9482C52.7004 31.6194 50.3716 29.2906 46.0467 29.2906C39.0603 29.2906 37.7296 35.6117 37.7296 36.9424L27.749 35.6117C28.4144 29.956 33.4047 19.3101 46.0467 19.3101C53.6985 19.3101 60.3522 23.635 63.0137 29.956C65.3425 35.6117 64.3444 41.6 60.3522 45.5922C58.6888 47.2557 56.6927 48.2537 55.0292 49.2518C52.0351 50.9152 51.037 52.5786 51.037 55.9055ZM52.7004 65.886C52.7205 66.7721 52.5633 67.6533 52.2381 68.4778C51.9129 69.3022 51.4263 70.0534 50.8068 70.6873C50.1873 71.3211 49.4474 71.8248 48.6306 72.1687C47.8137 72.5127 46.9364 72.69 46.0501 72.6902C45.1638 72.6904 44.2864 72.5136 43.4694 72.17C42.6524 71.8265 41.9122 71.3232 41.2924 70.6897C40.6726 70.0561 40.1856 69.3052 39.86 68.4808C39.5344 67.6565 39.3768 66.7755 39.3963 65.8894C39.4348 64.1509 40.1523 62.4965 41.3953 61.2804C42.6382 60.0644 44.3079 59.3832 46.0468 59.3828C47.7857 59.3823 49.4557 60.0627 50.6992 61.2781C51.9428 62.4936 52.6611 64.1476 52.7004 65.886Z" fill="url(#paint0_linear_80_15037)"></path><path d="M51.037 55.9055H41.0564C41.0564 45.9249 46.3794 42.5981 50.039 40.6019C51.3697 39.9366 52.3678 39.2712 53.0331 38.6058C54.6966 36.9424 54.0312 34.6136 53.6985 33.9482C52.7004 31.6194 50.3716 29.2906 46.0467 29.2906C39.0603 29.2906 37.7296 35.6117 37.7296 36.9424L27.749 35.6117C28.4144 29.956 33.4047 19.3101 46.0467 19.3101C53.6985 19.3101 60.3522 23.635 63.0137 29.956C65.3425 35.6117 64.3444 41.6 60.3522 45.5922C58.6888 47.2557 56.6927 48.2537 55.0292 49.2518C52.0351 50.9152 51.037 52.5786 51.037 55.9055ZM52.7004 65.886C52.7205 66.7721 52.5633 67.6533 52.2381 68.4778C51.9129 69.3022 51.4263 70.0534 50.8068 70.6873C50.1873 71.3211 49.4474 71.8248 48.6306 72.1687C47.8137 72.5127 46.9364 72.69 46.0501 72.6902C45.1638 72.6904 44.2864 72.5136 43.4694 72.17C42.6524 71.8265 41.9122 71.3232 41.2924 70.6897C40.6726 70.0561 40.1856 69.3052 39.86 68.4808C39.5344 67.6565 39.3768 66.7755 39.3963 65.8894C39.4348 64.1509 40.1523 62.4965 41.3953 61.2804C42.6382 60.0644 44.3079 59.3832 46.0468 59.3828C47.7857 59.3823 49.4557 60.0627 50.6992 61.2781C51.9428 62.4936 52.6611 64.1476 52.7004 65.886Z" fill="url(#paint1_linear_80_15037)"></path><defs><linearGradient id="paint0_linear_80_15037" x1="-39.501" y1="4.49996" x2="27.7923" y2="-42.1005" gradientUnits="userSpaceOnUse"><stop stop-color="#00F9FD"></stop><stop offset="0.6569" stop-color="#8376FF"></stop><stop offset="0.971068" stop-color="#E40EFF"></stop></linearGradient><linearGradient id="paint1_linear_80_15037" x1="28.6026" y1="-4.59382" x2="48.5535" y2="-2.78311" gradientUnits="userSpaceOnUse"><stop stop-color="white" stop-opacity="0.9"></stop><stop offset="1" stop-color="white" stop-opacity="0"></stop></linearGradient></defs></svg>