<svg xmlns="http://www.w3.org/2000/svg" width="260" height="21" viewBox="0 0 260 21" fill="none"><path d="M9.842 0.0820312L0.879883 2.93669V11.5007C0.879883 16.2309 4.89183 20.0647 9.842 20.0647C14.7922 20.0647 18.8041 16.2309 18.8041 11.5007V2.93669L9.842 0.0820312ZM17.1237 11.5007C17.1237 15.3433 13.8633 18.4589 9.842 18.4589C5.82072 18.4589 2.56028 15.3433 2.56028 11.5007V4.141L9.842 1.68778L17.1237 4.141V11.5007Z" fill="black"></path><path d="M6.72286 9.24984C6.64498 9.17508 6.55242 9.11577 6.45049 9.07529C6.34856 9.03481 6.23927 9.01398 6.12888 9.01398C6.0185 9.01398 5.90921 9.03481 5.80728 9.07529C5.70534 9.11577 5.61278 9.17508 5.53491 9.24984C5.45668 9.32425 5.39461 9.4127 5.35225 9.5101C5.30989 9.60751 5.28809 9.71195 5.28809 9.81742C5.28809 9.9229 5.30989 10.0273 5.35225 10.1247C5.39461 10.2221 5.45668 10.3106 5.53491 10.385L8.55496 13.2709L8.60397 13.3177C8.67763 13.3883 8.76512 13.4442 8.86144 13.4824C8.95775 13.5205 9.061 13.5402 9.16527 13.5402C9.26954 13.5402 9.37279 13.5205 9.4691 13.4824C9.56542 13.4442 9.65291 13.3883 9.72657 13.3177L14.9428 8.33322C15.0166 8.26283 15.0751 8.17923 15.1151 8.08719C15.155 7.99516 15.1756 7.8965 15.1756 7.79686C15.1756 7.69722 15.155 7.59856 15.1151 7.50652C15.0751 7.41449 15.0166 7.33088 14.9428 7.2605L14.8775 7.19805C14.8038 7.12753 14.7163 7.07158 14.62 7.03341C14.5237 6.99523 14.4204 6.97559 14.3162 6.97559C14.2119 6.97559 14.1086 6.99523 14.0123 7.03341C13.916 7.07158 13.8285 7.12753 13.7549 7.19805L9.1641 11.5826L6.72286 9.24984Z" fill="black"></path><path d="M30.2036 9.15885C29.747 9.15885 29.3218 9.08466 28.9279 8.93626C28.5398 8.78216 28.2002 8.56814 27.9092 8.29418C27.6238 8.01451 27.4012 7.68634 27.2414 7.30965C27.0816 6.93296 27.0017 6.52202 27.0017 6.07684C27.0017 5.63166 27.0816 5.22073 27.2414 4.84404C27.4012 4.46735 27.6267 4.14203 27.9177 3.86807C28.2088 3.58841 28.5484 3.37438 28.9365 3.22598C29.3246 3.07188 29.7498 2.99483 30.2121 2.99483C30.703 2.99483 31.151 3.08045 31.5562 3.25167C31.9614 3.41718 32.3039 3.66546 32.5836 3.99649L31.8644 4.67282C31.6475 4.43881 31.405 4.26474 31.1367 4.15059C30.8685 4.03073 30.5774 3.9708 30.2635 3.9708C29.9496 3.9708 29.6614 4.02217 29.3988 4.1249C29.142 4.22764 28.9165 4.37318 28.7225 4.56152C28.5341 4.74987 28.3857 4.97246 28.2773 5.22929C28.1746 5.48613 28.1232 5.76864 28.1232 6.07684C28.1232 6.38504 28.1746 6.66756 28.2773 6.9244C28.3857 7.18123 28.5341 7.40382 28.7225 7.59217C28.9165 7.78051 29.142 7.92605 29.3988 8.02878C29.6614 8.13152 29.9496 8.18288 30.2635 8.18288C30.5774 8.18288 30.8685 8.12581 31.1367 8.01166C31.405 7.89181 31.6475 7.71202 31.8644 7.47231L32.5836 8.1572C32.3039 8.48252 31.9614 8.7308 31.5562 8.90202C31.151 9.07324 30.7001 9.15885 30.2036 9.15885ZM35.4263 9.13317C34.9583 9.13317 34.5417 9.03329 34.1764 8.83353C33.8111 8.62806 33.5229 8.3484 33.3117 7.99454C33.1005 7.64068 32.995 7.2383 32.995 6.78742C32.995 6.33082 33.1005 5.92845 33.3117 5.5803C33.5229 5.22644 33.8111 4.94963 34.1764 4.74987C34.5417 4.55011 34.9583 4.45023 35.4263 4.45023C35.9 4.45023 36.3195 4.55011 36.6848 4.74987C37.0558 4.94963 37.344 5.22358 37.5495 5.57174C37.7607 5.91989 37.8662 6.32512 37.8662 6.78742C37.8662 7.2383 37.7607 7.64068 37.5495 7.99454C37.344 8.3484 37.0558 8.62806 36.6848 8.83353C36.3195 9.03329 35.9 9.13317 35.4263 9.13317ZM35.4263 8.21713C35.6889 8.21713 35.9229 8.16005 36.1283 8.04591C36.3338 7.93176 36.4936 7.76624 36.6078 7.54936C36.7276 7.33248 36.7875 7.0785 36.7875 6.78742C36.7875 6.49063 36.7276 6.23665 36.6078 6.02548C36.4936 5.80859 36.3338 5.64308 36.1283 5.52893C35.9229 5.41478 35.6917 5.35771 35.4349 5.35771C35.1723 5.35771 34.9383 5.41478 34.7329 5.52893C34.5331 5.64308 34.3733 5.80859 34.2534 6.02548C34.1336 6.23665 34.0737 6.49063 34.0737 6.78742C34.0737 7.0785 34.1336 7.33248 34.2534 7.54936C34.3733 7.76624 34.5331 7.93176 34.7329 8.04591C34.9383 8.16005 35.1695 8.21713 35.4263 8.21713ZM44.6598 4.45023C45.025 4.45023 45.3475 4.52157 45.6272 4.66426C45.9126 4.80694 46.1351 5.02668 46.295 5.32346C46.4548 5.61454 46.5347 5.99123 46.5347 6.45353V9.07324H45.4645V6.59051C45.4645 6.18528 45.3761 5.88279 45.1991 5.68303C45.0222 5.48327 44.7682 5.38339 44.4372 5.38339C44.2032 5.38339 43.9949 5.43476 43.8122 5.53749C43.6353 5.64023 43.4955 5.79147 43.3927 5.99123C43.2957 6.19099 43.2472 6.44497 43.2472 6.75317V9.07324H42.177V6.59051C42.177 6.18528 42.0886 5.88279 41.9116 5.68303C41.7347 5.48327 41.4807 5.38339 41.1497 5.38339C40.9157 5.38339 40.7074 5.43476 40.5247 5.53749C40.3478 5.64023 40.208 5.79147 40.1052 5.99123C40.0082 6.19099 39.9597 6.44497 39.9597 6.75317V9.07324H38.8896V4.50159H39.9083V5.71728L39.7286 5.35771C39.8827 5.06092 40.1052 4.83548 40.3963 4.68138C40.6931 4.52728 41.0299 4.45023 41.4065 4.45023C41.8346 4.45023 42.2056 4.55581 42.5195 4.76699C42.8391 4.97816 43.0503 5.29778 43.153 5.72584L42.7335 5.5803C42.8819 5.23785 43.1273 4.9639 43.4698 4.75843C43.8122 4.55296 44.2089 4.45023 44.6598 4.45023ZM50.4363 9.13317C50.0653 9.13317 49.7257 9.04756 49.4175 8.87634C49.115 8.70511 48.8724 8.44828 48.6898 8.10583C48.5129 7.75768 48.4244 7.31821 48.4244 6.78742C48.4244 6.25092 48.51 5.81145 48.6812 5.469C48.8582 5.12656 49.0979 4.87258 49.4004 4.70706C49.7029 4.53584 50.0482 4.45023 50.4363 4.45023C50.8872 4.45023 51.2838 4.54725 51.6263 4.74131C51.9744 4.93536 52.2484 5.20646 52.4481 5.55461C52.6536 5.90277 52.7563 6.3137 52.7563 6.78742C52.7563 7.26113 52.6536 7.67492 52.4481 8.02878C52.2484 8.37694 51.9744 8.64804 51.6263 8.84209C51.2838 9.03614 50.8872 9.13317 50.4363 9.13317ZM47.9022 10.7341V4.50159H48.9209V5.5803L48.8867 6.79598L48.9723 8.01166V10.7341H47.9022ZM50.3164 8.21713C50.5732 8.21713 50.8015 8.16005 51.0013 8.04591C51.2068 7.93176 51.3694 7.76624 51.4893 7.54936C51.6091 7.33248 51.6691 7.0785 51.6691 6.78742C51.6691 6.49063 51.6091 6.23665 51.4893 6.02548C51.3694 5.80859 51.2068 5.64308 51.0013 5.52893C50.8015 5.41478 50.5732 5.35771 50.3164 5.35771C50.0596 5.35771 49.8284 5.41478 49.623 5.52893C49.4175 5.64308 49.2548 5.80859 49.135 6.02548C49.0151 6.23665 48.9552 6.49063 48.9552 6.78742C48.9552 7.0785 49.0151 7.33248 49.135 7.54936C49.2548 7.76624 49.4175 7.93176 49.623 8.04591C49.8284 8.16005 50.0596 8.21713 50.3164 8.21713ZM53.7712 9.07324V4.50159H54.79V5.76008L54.6702 5.39195C54.8071 5.08375 55.0212 4.84975 55.3122 4.68994C55.609 4.53013 55.9772 4.45023 56.4166 4.45023V5.469C56.371 5.45759 56.3282 5.45188 56.2882 5.45188C56.2483 5.44617 56.2083 5.44332 56.1684 5.44332C55.7631 5.44332 55.4407 5.56318 55.2009 5.80289C54.9612 6.03689 54.8414 6.3879 54.8414 6.85591V9.07324H53.7712ZM59.815 9.07324V8.14864L59.7551 7.95173V6.33368C59.7551 6.01977 59.6609 5.7772 59.4726 5.60598C59.2842 5.42905 58.9988 5.34059 58.6164 5.34059C58.3596 5.34059 58.1056 5.38054 57.8545 5.46044C57.6091 5.54035 57.4008 5.65164 57.2295 5.79433L56.81 5.01526C57.0555 4.82692 57.3465 4.68709 57.6833 4.59577C58.0257 4.49874 58.3796 4.45023 58.7449 4.45023C59.4069 4.45023 59.9177 4.61004 60.2773 4.92965C60.6426 5.24356 60.8252 5.73154 60.8252 6.39361V9.07324H59.815ZM58.3767 9.13317C58.0343 9.13317 57.7346 9.0761 57.4778 8.96195C57.221 8.84209 57.0212 8.67943 56.8785 8.47396C56.7415 8.26279 56.6731 8.02593 56.6731 7.76339C56.6731 7.50655 56.733 7.2754 56.8528 7.06994C56.9784 6.86447 57.181 6.70181 57.4607 6.58195C57.7403 6.46209 58.1113 6.40217 58.5736 6.40217H59.9006V7.11274H58.6507C58.2854 7.11274 58.04 7.17267 57.9144 7.29253C57.7889 7.40667 57.7261 7.54936 57.7261 7.72058C57.7261 7.91463 57.8031 8.06874 57.9572 8.18288C58.1113 8.29703 58.3254 8.35411 58.5993 8.35411C58.8619 8.35411 59.0959 8.29418 59.3013 8.17432C59.5125 8.05447 59.6637 7.87754 59.7551 7.64353L59.9349 8.28562C59.8321 8.55387 59.6466 8.76219 59.3784 8.91058C59.1158 9.05897 58.782 9.13317 58.3767 9.13317ZM29.2875 18.1589C28.8195 18.1589 28.3715 18.0932 27.9434 17.9619C27.5154 17.825 27.1758 17.6509 26.9246 17.4397L27.3099 16.575C27.5496 16.7634 27.8464 16.9203 28.2002 17.0459C28.5541 17.1715 28.9165 17.2343 29.2875 17.2343C29.6014 17.2343 29.8554 17.2 30.0495 17.1315C30.2435 17.063 30.3862 16.9717 30.4775 16.8576C30.5688 16.7377 30.6145 16.6036 30.6145 16.4552C30.6145 16.2725 30.5489 16.127 30.4176 16.0186C30.2863 15.9044 30.1151 15.816 29.9039 15.7532C29.6984 15.6847 29.4673 15.6219 29.2105 15.5648C28.9593 15.5078 28.7054 15.4421 28.4485 15.3679C28.1974 15.288 27.9662 15.1881 27.7551 15.0683C27.5496 14.9427 27.3812 14.7772 27.25 14.5717C27.1187 14.3663 27.0531 14.1037 27.0531 13.7841C27.0531 13.4588 27.1387 13.162 27.3099 12.8938C27.4868 12.6198 27.7522 12.4029 28.1061 12.2431C28.4656 12.0776 28.9194 11.9948 29.4673 11.9948C29.8269 11.9948 30.1836 12.0405 30.5374 12.1318C30.8913 12.2231 31.1995 12.3544 31.462 12.5256L31.111 13.3903C30.8428 13.2305 30.566 13.1135 30.2806 13.0393C29.9952 12.9594 29.7213 12.9194 29.4587 12.9194C29.1505 12.9194 28.8994 12.9565 28.7054 13.0307C28.517 13.1049 28.3772 13.202 28.2859 13.3218C28.2002 13.4417 28.1574 13.5786 28.1574 13.7327C28.1574 13.9154 28.2202 14.0638 28.3458 14.1779C28.4771 14.2864 28.6454 14.372 28.8509 14.4348C29.0621 14.4975 29.2961 14.5603 29.5529 14.6231C29.8097 14.6802 30.0637 14.7458 30.3149 14.82C30.5717 14.8942 30.8028 14.9912 31.0083 15.1111C31.2195 15.2309 31.3878 15.3936 31.5134 15.5991C31.6447 15.8045 31.7103 16.0642 31.7103 16.3781C31.7103 16.6978 31.6219 16.9945 31.4449 17.2685C31.2737 17.5367 31.0083 17.7536 30.6487 17.9191C30.2892 18.0789 29.8354 18.1589 29.2875 18.1589ZM34.86 18.1332C34.3521 18.1332 33.9069 18.0333 33.5245 17.8335C33.1478 17.6281 32.8539 17.3484 32.6427 16.9945C32.4372 16.6407 32.3345 16.2383 32.3345 15.7874C32.3345 15.3308 32.4344 14.9285 32.6341 14.5803C32.8396 14.2264 33.1192 13.9496 33.4731 13.7499C33.8327 13.5501 34.2408 13.4502 34.6974 13.4502C35.1425 13.4502 35.5392 13.5473 35.8873 13.7413C36.2355 13.9354 36.5095 14.2093 36.7092 14.5632C36.909 14.917 37.0089 15.3337 37.0089 15.8131C37.0089 15.8588 37.006 15.9101 37.0003 15.9672C37.0003 16.0243 36.9974 16.0785 36.9917 16.1299H33.182V15.4193H36.4267L36.0072 15.6419C36.0129 15.3793 35.9587 15.1482 35.8445 14.9484C35.7304 14.7487 35.5734 14.5917 35.3737 14.4776C35.1796 14.3634 34.9542 14.3063 34.6974 14.3063C34.4348 14.3063 34.2037 14.3634 34.0039 14.4776C33.8098 14.5917 33.6557 14.7515 33.5416 14.957C33.4332 15.1567 33.3789 15.3936 33.3789 15.6676V15.8388C33.3789 16.1127 33.4417 16.3553 33.5673 16.5665C33.6928 16.7777 33.8698 16.9403 34.0981 17.0545C34.3264 17.1686 34.5889 17.2257 34.8857 17.2257C35.1425 17.2257 35.3737 17.1857 35.5791 17.1058C35.7846 17.0259 35.9673 16.9004 36.1271 16.7291L36.7007 17.3884C36.4952 17.6281 36.2355 17.8136 35.9216 17.9448C35.6134 18.0704 35.2595 18.1332 34.86 18.1332ZM40.1086 19.794C39.6862 19.794 39.2725 19.737 38.8672 19.6228C38.4677 19.5144 38.1395 19.3546 37.8827 19.1434L38.3621 18.3386C38.5619 18.5042 38.813 18.6354 39.1155 18.7324C39.4237 18.8352 39.7348 18.8866 40.0487 18.8866C40.5509 18.8866 40.919 18.7695 41.1531 18.5355C41.3871 18.3072 41.5041 17.9619 41.5041 17.4996V16.6863L41.5897 15.6504L41.5554 14.6145V13.5016H42.5742V17.3798C42.5742 18.2074 42.363 18.8152 41.9407 19.2033C41.5183 19.5971 40.9076 19.794 40.1086 19.794ZM39.9716 17.8678C39.5378 17.8678 39.144 17.7765 38.7902 17.5938C38.442 17.4055 38.1652 17.1458 37.9597 16.8148C37.76 16.4837 37.6601 16.0956 37.6601 15.6504C37.6601 15.211 37.76 14.8257 37.9597 14.4947C38.1652 14.1637 38.442 13.9068 38.7902 13.7242C39.144 13.5415 39.5378 13.4502 39.9716 13.4502C40.3597 13.4502 40.7079 13.5273 41.0161 13.6814C41.3243 13.8355 41.5697 14.0752 41.7523 14.4005C41.9407 14.7258 42.0348 15.1425 42.0348 15.6504C42.0348 16.1584 41.9407 16.5779 41.7523 16.9089C41.5697 17.2343 41.3243 17.4768 41.0161 17.6366C40.7079 17.7907 40.3597 17.8678 39.9716 17.8678ZM40.1343 16.9603C40.4025 16.9603 40.6422 16.9061 40.8534 16.7976C41.0646 16.6835 41.2272 16.5294 41.3414 16.3353C41.4613 16.1356 41.5212 15.9073 41.5212 15.6504C41.5212 15.3936 41.4613 15.1682 41.3414 14.9741C41.2272 14.7744 41.0646 14.6231 40.8534 14.5204C40.6422 14.4119 40.4025 14.3577 40.1343 14.3577C39.866 14.3577 39.6235 14.4119 39.4066 14.5204C39.1954 14.6231 39.0299 14.7744 38.91 14.9741C38.7959 15.1682 38.7388 15.3936 38.7388 15.6504C38.7388 15.9073 38.7959 16.1356 38.91 16.3353C39.0299 16.5294 39.1954 16.6835 39.4066 16.7976C39.6235 16.9061 39.866 16.9603 40.1343 16.9603ZM45.9159 18.1332C45.5278 18.1332 45.1854 18.0618 44.8886 17.9191C44.5918 17.7707 44.3606 17.5482 44.1951 17.2514C44.0296 16.9489 43.9469 16.5693 43.9469 16.1127V13.5016H45.017V15.9672C45.017 16.3781 45.1083 16.6863 45.291 16.8918C45.4793 17.0916 45.7447 17.1914 46.0871 17.1914C46.3383 17.1914 46.5552 17.1401 46.7378 17.0373C46.9261 16.9346 47.0717 16.7805 47.1744 16.575C47.2828 16.3696 47.3371 16.1156 47.3371 15.8131V13.5016H48.4072V18.0732H47.3884V16.8404L47.5682 17.2171C47.4141 17.5139 47.1887 17.7422 46.8919 17.902C46.5951 18.0561 46.2698 18.1332 45.9159 18.1332ZM49.8084 18.0732V13.5016H50.8271V14.7601L50.7073 14.392C50.8443 14.0838 51.0583 13.8497 51.3494 13.6899C51.6462 13.5301 52.0143 13.4502 52.4538 13.4502V14.469C52.4081 14.4576 52.3653 14.4519 52.3253 14.4519C52.2854 14.4462 52.2454 14.4433 52.2055 14.4433C51.8003 14.4433 51.4778 14.5632 51.2381 14.8029C50.9984 15.0369 50.8785 15.3879 50.8785 15.8559V18.0732H49.8084ZM55.8521 18.0732V17.1486L55.7922 16.9517V15.3337C55.7922 15.0198 55.698 14.7772 55.5097 14.606C55.3213 14.4291 55.036 14.3406 54.6536 14.3406C54.3967 14.3406 54.1428 14.3805 53.8916 14.4604C53.6462 14.5403 53.4379 14.6516 53.2667 14.7943L52.8472 14.0153C53.0926 13.8269 53.3837 13.6871 53.7204 13.5958C54.0628 13.4987 54.4167 13.4502 54.782 13.4502C55.444 13.4502 55.9549 13.61 56.3144 13.9297C56.6797 14.2436 56.8623 14.7315 56.8623 15.3936V18.0732H55.8521ZM54.4139 18.1332C54.0714 18.1332 53.7718 18.0761 53.5149 17.9619C53.2581 17.8421 53.0583 17.6794 52.9157 17.474C52.7787 17.2628 52.7102 17.0259 52.7102 16.7634C52.7102 16.5066 52.7701 16.2754 52.89 16.0699C53.0155 15.8645 53.2181 15.7018 53.4978 15.582C53.7775 15.4621 54.1485 15.4022 54.6108 15.4022H55.9377V16.1127H54.6878C54.3225 16.1127 54.0771 16.1727 53.9516 16.2925C53.826 16.4067 53.7632 16.5494 53.7632 16.7206C53.7632 16.9146 53.8403 17.0687 53.9944 17.1829C54.1485 17.297 54.3625 17.3541 54.6364 17.3541C54.899 17.3541 55.133 17.2942 55.3385 17.1743C55.5496 17.0545 55.7009 16.8775 55.7922 16.6435L55.972 17.2856C55.8692 17.5539 55.6838 17.7622 55.4155 17.9106C55.153 18.059 54.8191 18.1332 54.4139 18.1332Z" fill="black"></path><path fill-rule="evenodd" clip-rule="evenodd" d="M87.6014 8.76631C86.4246 8.60484 85.3481 8.04335 84.5695 7.18484C83.7909 6.32632 83.3623 5.22834 83.3623 4.09229V3.4627C83.3623 2.24635 84.3954 1.25917 85.6683 1.25917H87.4551C87.7555 0.522554 88.504 0 89.3816 0H98.4263C98.8427 0.000221517 99.2494 0.120528 99.5931 0.345184C99.9368 0.56984 100.202 0.888387 100.353 1.25917H102.14C103.412 1.25917 104.446 2.24635 104.446 3.4627V4.09229C104.446 5.22834 104.017 6.32632 103.238 7.18484C102.46 8.04335 101.383 8.60484 100.206 8.76631C99.9283 9.63258 99.4582 10.4315 98.8281 11.1087C98.1981 11.7859 97.4229 12.3256 96.5551 12.6911L96.7449 14.5119C96.7515 14.5748 96.7844 14.663 96.8951 14.7687C97.0084 14.8783 97.181 14.9828 97.3866 15.0546C97.7595 15.1843 98.201 15.3996 98.5594 15.7698C98.9349 16.1601 99.1747 16.6802 99.1747 17.3135V18.2579H100.822C101.084 18.2579 101.335 18.3574 101.521 18.5345C101.706 18.7116 101.81 18.9518 101.81 19.2023C101.81 19.4527 101.706 19.6929 101.521 19.87C101.335 20.0471 101.084 20.1466 100.822 20.1466H86.986C86.7239 20.1466 86.4725 20.0471 86.2872 19.87C86.1018 19.6929 85.9977 19.4527 85.9977 19.2023C85.9977 18.9518 86.1018 18.7116 86.2872 18.5345C86.4725 18.3574 86.7239 18.2579 86.986 18.2579H88.6331V17.3135C88.6331 16.6802 88.8729 16.1601 89.2498 15.7698C89.6056 15.3996 90.0483 15.1843 90.4212 15.0546C90.6046 14.994 90.7722 14.8965 90.9127 14.7687C91.0234 14.6617 91.0564 14.5761 91.063 14.5119L91.2527 12.6911C90.3852 12.3255 89.6103 11.7857 88.9805 11.1085C88.3506 10.4313 87.8807 9.63246 87.6027 8.76631H87.6014ZM87.3154 3.14791H85.6683C85.5809 3.14791 85.4971 3.18108 85.4353 3.24011C85.3736 3.29915 85.3389 3.37922 85.3389 3.4627V4.09229C85.3389 5.32627 86.1637 6.37515 87.3154 6.76423V3.14791ZM93.1884 13.1835L93.0303 14.6995C92.9077 15.8642 91.8997 16.5505 91.0972 16.8287C90.9494 16.8726 90.8141 16.9484 90.7019 17.0504C90.6532 17.1007 90.6097 17.1675 90.6097 17.3148V18.2592H97.1982V17.3148C97.1982 17.1675 97.1547 17.1007 97.1059 17.0504C96.9938 16.9484 96.8585 16.8725 96.7106 16.8287C95.9081 16.5505 94.9001 15.8642 94.7789 14.7008L94.6208 13.1847C94.1447 13.2339 93.6645 13.2339 93.1884 13.1847V13.1835ZM100.492 6.76549V3.14791H102.14C102.227 3.14791 102.311 3.18108 102.373 3.24011C102.434 3.29915 102.469 3.37922 102.469 3.4627V4.09229C102.469 4.67831 102.279 5.24996 101.925 5.7285C101.571 6.20703 101.071 6.56889 100.492 6.76423V6.76549ZM89.292 1.97437C89.292 1.92778 89.3315 1.88875 89.3816 1.88875H98.4263C98.475 1.88875 98.5159 1.92652 98.5159 1.97437V6.92541C98.5159 8.09424 98.03 9.21519 97.1651 10.0417C96.3002 10.8682 95.1271 11.3325 93.9039 11.3325C92.6808 11.3325 91.5077 10.8682 90.6428 10.0417C89.7779 9.21519 89.292 8.09424 89.292 6.92541V1.97437V1.97437Z" fill="black"></path><path d="M93.9037 3.02148L94.6137 5.10963H96.9114L95.0525 6.40018L95.7626 8.48833L93.9037 7.19778L92.0448 8.48833L92.7549 6.40018L90.896 5.10963H93.1937L93.9037 3.02148Z" fill="black"></path><path d="M115.468 9.15885C115 9.15885 114.552 9.09322 114.124 8.96195C113.696 8.82497 113.356 8.65089 113.105 8.43972L113.491 7.57504C113.73 7.76339 114.027 7.92034 114.381 8.04591C114.735 8.17147 115.097 8.23425 115.468 8.23425C115.782 8.23425 116.036 8.20001 116.23 8.13152C116.424 8.06303 116.567 7.97171 116.658 7.85756C116.749 7.7377 116.795 7.60358 116.795 7.45519C116.795 7.27255 116.73 7.12701 116.598 7.01857C116.467 6.90442 116.296 6.81596 116.085 6.75317C115.879 6.68468 115.648 6.6219 115.391 6.56483C115.14 6.50775 114.886 6.44212 114.629 6.36792C114.378 6.28802 114.147 6.18814 113.936 6.06828C113.73 5.94272 113.562 5.7772 113.431 5.57174C113.299 5.36627 113.234 5.10373 113.234 4.78411C113.234 4.45879 113.319 4.162 113.491 3.89375C113.667 3.6198 113.933 3.40291 114.287 3.24311C114.646 3.07759 115.1 2.99483 115.648 2.99483C116.008 2.99483 116.364 3.04049 116.718 3.13181C117.072 3.22313 117.38 3.3544 117.643 3.52562L117.292 4.3903C117.023 4.23049 116.747 4.11349 116.461 4.03929C116.176 3.95939 115.902 3.91944 115.639 3.91944C115.331 3.91944 115.08 3.95653 114.886 4.03073C114.698 4.10493 114.558 4.20195 114.467 4.32181C114.381 4.44167 114.338 4.57864 114.338 4.73274C114.338 4.91538 114.401 5.06378 114.526 5.17792C114.658 5.28637 114.826 5.37198 115.032 5.43476C115.243 5.49754 115.477 5.56032 115.734 5.6231C115.99 5.68018 116.244 5.74581 116.496 5.82001C116.752 5.89421 116.983 5.99123 117.189 6.11109C117.4 6.23094 117.569 6.39361 117.694 6.59907C117.825 6.80454 117.891 7.06423 117.891 7.37814C117.891 7.69775 117.803 7.99454 117.626 8.2685C117.454 8.53674 117.189 8.75363 116.829 8.91914C116.47 9.07895 116.016 9.15885 115.468 9.15885ZM121.708 9.07324V8.14864L121.649 7.95173V6.33368C121.649 6.01977 121.554 5.7772 121.366 5.60598C121.178 5.42905 120.892 5.34059 120.51 5.34059C120.253 5.34059 119.999 5.38054 119.748 5.46044C119.503 5.54035 119.294 5.65164 119.123 5.79433L118.703 5.01526C118.949 4.82692 119.24 4.68709 119.577 4.59577C119.919 4.49874 120.273 4.45023 120.638 4.45023C121.3 4.45023 121.811 4.61004 122.171 4.92965C122.536 5.24356 122.719 5.73154 122.719 6.39361V9.07324H121.708ZM120.27 9.13317C119.928 9.13317 119.628 9.0761 119.371 8.96195C119.114 8.84209 118.915 8.67943 118.772 8.47396C118.635 8.26279 118.567 8.02593 118.567 7.76339C118.567 7.50655 118.626 7.2754 118.746 7.06994C118.872 6.86447 119.074 6.70181 119.354 6.58195C119.634 6.46209 120.005 6.40217 120.467 6.40217H121.794V7.11274H120.544C120.179 7.11274 119.933 7.17267 119.808 7.29253C119.682 7.40667 119.62 7.54936 119.62 7.72058C119.62 7.91463 119.697 8.06874 119.851 8.18288C120.005 8.29703 120.219 8.35411 120.493 8.35411C120.755 8.35411 120.989 8.29418 121.195 8.17432C121.406 8.05447 121.557 7.87754 121.649 7.64353L121.828 8.28562C121.726 8.55387 121.54 8.76219 121.272 8.91058C121.009 9.05897 120.675 9.13317 120.27 9.13317ZM125.813 9.13317C125.311 9.13317 124.922 9.00475 124.649 8.74792C124.375 8.48538 124.238 8.10013 124.238 7.59217V3.49138H125.308V7.56648C125.308 7.78336 125.362 7.95173 125.47 8.07159C125.585 8.19144 125.741 8.25137 125.941 8.25137C126.181 8.25137 126.381 8.18859 126.541 8.06303L126.84 8.82497C126.715 8.9277 126.561 9.00475 126.378 9.05612C126.195 9.10749 126.007 9.13317 125.813 9.13317ZM123.484 5.39195V4.53584H126.532V5.39195H123.484ZM127.721 9.07324V4.50159H128.791V9.07324H127.721ZM128.26 3.74821C128.06 3.74821 127.895 3.68543 127.763 3.55987C127.638 3.43431 127.575 3.28306 127.575 3.10613C127.575 2.92349 127.638 2.77224 127.763 2.65239C127.895 2.52682 128.06 2.46404 128.26 2.46404C128.46 2.46404 128.622 2.52397 128.748 2.64383C128.879 2.75798 128.945 2.90352 128.945 3.08045C128.945 3.26879 128.882 3.4286 128.756 3.55987C128.631 3.68543 128.465 3.74821 128.26 3.74821ZM131.608 9.13317C131.225 9.13317 130.857 9.08466 130.503 8.98763C130.155 8.8849 129.878 8.76219 129.673 8.6195L130.084 7.80619C130.289 7.93746 130.535 8.04591 130.82 8.13152C131.106 8.21713 131.391 8.25993 131.676 8.25993C132.013 8.25993 132.256 8.21427 132.404 8.12296C132.558 8.03164 132.635 7.90893 132.635 7.75483C132.635 7.62926 132.584 7.53509 132.481 7.47231C132.378 7.40382 132.244 7.35245 132.079 7.31821C131.913 7.28396 131.728 7.25257 131.522 7.22404C131.322 7.1955 131.12 7.1584 130.914 7.11274C130.715 7.06137 130.532 6.99003 130.366 6.89871C130.201 6.80169 130.067 6.67327 129.964 6.51346C129.861 6.35365 129.81 6.14248 129.81 5.87994C129.81 5.58886 129.893 5.33773 130.058 5.12656C130.224 4.90968 130.455 4.74416 130.752 4.63001C131.054 4.51016 131.411 4.45023 131.822 4.45023C132.13 4.45023 132.441 4.48447 132.755 4.55296C133.069 4.62145 133.329 4.71848 133.534 4.84404L133.123 5.65735C132.906 5.52608 132.686 5.43761 132.464 5.39195C132.247 5.34059 132.03 5.3149 131.813 5.3149C131.488 5.3149 131.245 5.36342 131.086 5.46044C130.931 5.55747 130.854 5.68018 130.854 5.82857C130.854 5.96555 130.906 6.06828 131.009 6.13677C131.111 6.20526 131.245 6.25948 131.411 6.29943C131.576 6.33939 131.759 6.37363 131.959 6.40217C132.164 6.425 132.367 6.46209 132.567 6.51346C132.766 6.56483 132.949 6.63617 133.115 6.72749C133.286 6.8131 133.423 6.93581 133.525 7.09562C133.628 7.25543 133.68 7.46375 133.68 7.72058C133.68 8.00595 133.594 8.25423 133.423 8.4654C133.257 8.67658 133.02 8.84209 132.712 8.96195C132.404 9.0761 132.036 9.13317 131.608 9.13317ZM134.747 9.07324V4.24476C134.747 3.76534 134.887 3.38294 135.166 3.09757C135.452 2.80649 135.857 2.66095 136.382 2.66095C136.57 2.66095 136.747 2.68093 136.913 2.72088C137.084 2.76083 137.227 2.82361 137.341 2.90922L137.05 3.71397C136.97 3.65119 136.878 3.60553 136.776 3.57699C136.673 3.54275 136.567 3.52562 136.459 3.52562C136.236 3.52562 136.068 3.58841 135.954 3.71397C135.84 3.83383 135.783 4.01646 135.783 4.26188V4.77555L135.817 5.25497V9.07324H134.747ZM133.993 5.39195V4.53584H137.041V5.39195H133.993ZM140.494 9.07324V8.14864L140.435 7.95173V6.33368C140.435 6.01977 140.34 5.7772 140.152 5.60598C139.964 5.42905 139.678 5.34059 139.296 5.34059C139.039 5.34059 138.785 5.38054 138.534 5.46044C138.289 5.54035 138.08 5.65164 137.909 5.79433L137.489 5.01526C137.735 4.82692 138.026 4.68709 138.363 4.59577C138.705 4.49874 139.059 4.45023 139.424 4.45023C140.086 4.45023 140.597 4.61004 140.957 4.92965C141.322 5.24356 141.505 5.73154 141.505 6.39361V9.07324H140.494ZM139.056 9.13317C138.714 9.13317 138.414 9.0761 138.157 8.96195C137.9 8.84209 137.701 8.67943 137.558 8.47396C137.421 8.26279 137.353 8.02593 137.353 7.76339C137.353 7.50655 137.412 7.2754 137.532 7.06994C137.658 6.86447 137.86 6.70181 138.14 6.58195C138.42 6.46209 138.791 6.40217 139.253 6.40217H140.58V7.11274H139.33C138.965 7.11274 138.719 7.17267 138.594 7.29253C138.468 7.40667 138.406 7.54936 138.406 7.72058C138.406 7.91463 138.483 8.06874 138.637 8.18288C138.791 8.29703 139.005 8.35411 139.279 8.35411C139.541 8.35411 139.775 8.29418 139.981 8.17432C140.192 8.05447 140.343 7.87754 140.435 7.64353L140.614 8.28562C140.512 8.55387 140.326 8.76219 140.058 8.91058C139.795 9.05897 139.461 9.13317 139.056 9.13317ZM144.984 9.13317C144.504 9.13317 144.076 9.03329 143.7 8.83353C143.329 8.62806 143.038 8.3484 142.826 7.99454C142.615 7.64068 142.51 7.2383 142.51 6.78742C142.51 6.33082 142.615 5.92845 142.826 5.5803C143.038 5.22644 143.329 4.94963 143.7 4.74987C144.076 4.55011 144.504 4.45023 144.984 4.45023C145.429 4.45023 145.82 4.54155 146.157 4.72418C146.499 4.90111 146.759 5.16366 146.936 5.51181L146.114 5.99123C145.977 5.77435 145.809 5.61454 145.609 5.51181C145.415 5.40907 145.204 5.35771 144.975 5.35771C144.713 5.35771 144.476 5.41478 144.265 5.52893C144.054 5.64308 143.888 5.80859 143.768 6.02548C143.648 6.23665 143.588 6.49063 143.588 6.78742C143.588 7.0842 143.648 7.34104 143.768 7.55792C143.888 7.7691 144.054 7.93176 144.265 8.04591C144.476 8.16005 144.713 8.21713 144.975 8.21713C145.204 8.21713 145.415 8.16576 145.609 8.06303C145.809 7.96029 145.977 7.80049 146.114 7.5836L146.936 8.06303C146.759 8.40547 146.499 8.67087 146.157 8.85921C145.82 9.04185 145.429 9.13317 144.984 9.13317ZM149.892 9.13317C149.412 9.13317 148.984 9.03329 148.607 8.83353C148.236 8.62806 147.945 8.3484 147.734 7.99454C147.523 7.64068 147.417 7.2383 147.417 6.78742C147.417 6.33082 147.523 5.92845 147.734 5.5803C147.945 5.22644 148.236 4.94963 148.607 4.74987C148.984 4.55011 149.412 4.45023 149.892 4.45023C150.337 4.45023 150.728 4.54155 151.064 4.72418C151.407 4.90111 151.667 5.16366 151.843 5.51181L151.022 5.99123C150.885 5.77435 150.716 5.61454 150.516 5.51181C150.322 5.40907 150.111 5.35771 149.883 5.35771C149.62 5.35771 149.384 5.41478 149.172 5.52893C148.961 5.64308 148.796 5.80859 148.676 6.02548C148.556 6.23665 148.496 6.49063 148.496 6.78742C148.496 7.0842 148.556 7.34104 148.676 7.55792C148.796 7.7691 148.961 7.93176 149.172 8.04591C149.384 8.16005 149.62 8.21713 149.883 8.21713C150.111 8.21713 150.322 8.16576 150.516 8.06303C150.716 7.96029 150.885 7.80049 151.022 7.5836L151.843 8.06303C151.667 8.40547 151.407 8.67087 151.064 8.85921C150.728 9.04185 150.337 9.13317 149.892 9.13317ZM152.727 9.07324V4.50159H153.797V9.07324H152.727ZM153.266 3.74821C153.066 3.74821 152.901 3.68543 152.77 3.55987C152.644 3.43431 152.581 3.28306 152.581 3.10613C152.581 2.92349 152.644 2.77224 152.77 2.65239C152.901 2.52682 153.066 2.46404 153.266 2.46404C153.466 2.46404 153.628 2.52397 153.754 2.64383C153.885 2.75798 153.951 2.90352 153.951 3.08045C153.951 3.26879 153.888 3.4286 153.763 3.55987C153.637 3.68543 153.472 3.74821 153.266 3.74821ZM157.256 9.13317C156.788 9.13317 156.371 9.03329 156.006 8.83353C155.641 8.62806 155.353 8.3484 155.141 7.99454C154.93 7.64068 154.825 7.2383 154.825 6.78742C154.825 6.33082 154.93 5.92845 155.141 5.5803C155.353 5.22644 155.641 4.94963 156.006 4.74987C156.371 4.55011 156.788 4.45023 157.256 4.45023C157.73 4.45023 158.149 4.55011 158.515 4.74987C158.886 4.94963 159.174 5.22358 159.379 5.57174C159.59 5.91989 159.696 6.32512 159.696 6.78742C159.696 7.2383 159.59 7.64068 159.379 7.99454C159.174 8.3484 158.886 8.62806 158.515 8.83353C158.149 9.03329 157.73 9.13317 157.256 9.13317ZM157.256 8.21713C157.519 8.21713 157.753 8.16005 157.958 8.04591C158.164 7.93176 158.323 7.76624 158.438 7.54936C158.557 7.33248 158.617 7.0785 158.617 6.78742C158.617 6.49063 158.557 6.23665 158.438 6.02548C158.323 5.80859 158.164 5.64308 157.958 5.52893C157.753 5.41478 157.521 5.35771 157.265 5.35771C157.002 5.35771 156.768 5.41478 156.563 5.52893C156.363 5.64308 156.203 5.80859 156.083 6.02548C155.963 6.23665 155.903 6.49063 155.903 6.78742C155.903 7.0785 155.963 7.33248 156.083 7.54936C156.203 7.76624 156.363 7.93176 156.563 8.04591C156.768 8.16005 156.999 8.21713 157.256 8.21713ZM156.528 3.87663L157.684 2.70376H158.943L157.453 3.87663H156.528ZM163.313 4.45023C163.679 4.45023 164.004 4.52157 164.289 4.66426C164.58 4.80694 164.809 5.02668 164.974 5.32346C165.14 5.61454 165.223 5.99123 165.223 6.45353V9.07324H164.152V6.59051C164.152 6.18528 164.055 5.88279 163.861 5.68303C163.673 5.48327 163.408 5.38339 163.065 5.38339C162.814 5.38339 162.591 5.43476 162.397 5.53749C162.203 5.64023 162.052 5.79433 161.944 5.99979C161.841 6.19955 161.789 6.45353 161.789 6.76173V9.07324H160.719V4.50159H161.738V5.7344L161.558 5.35771C161.718 5.06663 161.949 4.84404 162.252 4.68994C162.56 4.53013 162.914 4.45023 163.313 4.45023ZM116.41 18.1589C115.942 18.1589 115.511 18.0847 115.117 17.9363C114.729 17.7822 114.389 17.5681 114.098 17.2942C113.807 17.0145 113.582 16.6863 113.422 16.3096C113.262 15.933 113.182 15.522 113.182 15.0768C113.182 14.6317 113.262 14.2207 113.422 13.844C113.582 13.4673 113.807 13.142 114.098 12.8681C114.395 12.5884 114.74 12.3744 115.134 12.226C115.528 12.0719 115.959 11.9948 116.427 11.9948C116.935 11.9948 117.392 12.0776 117.797 12.2431C118.208 12.4086 118.553 12.6512 118.833 12.9708L118.131 13.6557C117.897 13.4217 117.643 13.2505 117.369 13.142C117.101 13.0279 116.804 12.9708 116.478 12.9708C116.164 12.9708 115.873 13.0222 115.605 13.1249C115.337 13.2276 115.106 13.3732 114.912 13.5615C114.718 13.7499 114.566 13.9725 114.458 14.2293C114.355 14.4861 114.304 14.7686 114.304 15.0768C114.304 15.3793 114.355 15.659 114.458 15.9158C114.566 16.1727 114.718 16.3981 114.912 16.5922C115.106 16.7805 115.334 16.926 115.597 17.0288C115.859 17.1315 116.15 17.1829 116.47 17.1829C116.767 17.1829 117.052 17.1372 117.326 17.0459C117.606 16.9489 117.871 16.7891 118.122 16.5665L118.756 17.3969C118.442 17.648 118.076 17.8392 117.66 17.9705C117.249 18.0961 116.832 18.1589 116.41 18.1589ZM117.703 17.2514V15.0084H118.756V17.3969L117.703 17.2514ZM122.937 18.0732V17.1486L122.878 16.9517V15.3337C122.878 15.0198 122.783 14.7772 122.595 14.606C122.407 14.4291 122.121 14.3406 121.739 14.3406C121.482 14.3406 121.228 14.3805 120.977 14.4604C120.732 14.5403 120.523 14.6516 120.352 14.7943L119.932 14.0153C120.178 13.8269 120.469 13.6871 120.806 13.5958C121.148 13.4987 121.502 13.4502 121.867 13.4502C122.529 13.4502 123.04 13.61 123.4 13.9297C123.765 14.2436 123.948 14.7315 123.948 15.3936V18.0732H122.937ZM121.499 18.1332C121.157 18.1332 120.857 18.0761 120.6 17.9619C120.343 17.8421 120.144 17.6794 120.001 17.474C119.864 17.2628 119.795 17.0259 119.795 16.7634C119.795 16.5066 119.855 16.2754 119.975 16.0699C120.101 15.8645 120.303 15.7018 120.583 15.582C120.863 15.4621 121.234 15.4022 121.696 15.4022H123.023V16.1127H121.773C121.408 16.1127 121.162 16.1727 121.037 16.2925C120.911 16.4067 120.849 16.5494 120.849 16.7206C120.849 16.9146 120.926 17.0687 121.08 17.1829C121.234 17.297 121.448 17.3541 121.722 17.3541C121.984 17.3541 122.218 17.2942 122.424 17.1743C122.635 17.0545 122.786 16.8775 122.878 16.6435L123.057 17.2856C122.955 17.5539 122.769 17.7622 122.501 17.9106C122.238 18.059 121.904 18.1332 121.499 18.1332ZM125.321 18.0732V13.5016H126.34V14.7601L126.22 14.392C126.357 14.0838 126.571 13.8497 126.862 13.6899C127.159 13.5301 127.527 13.4502 127.966 13.4502V14.469C127.921 14.4576 127.878 14.4519 127.838 14.4519C127.798 14.4462 127.758 14.4433 127.718 14.4433C127.313 14.4433 126.99 14.5632 126.751 14.8029C126.511 15.0369 126.391 15.3879 126.391 15.8559V18.0732H125.321ZM131.365 18.0732V17.1486L131.305 16.9517V15.3337C131.305 15.0198 131.211 14.7772 131.022 14.606C130.834 14.4291 130.549 14.3406 130.166 14.3406C129.909 14.3406 129.655 14.3805 129.404 14.4604C129.159 14.5403 128.951 14.6516 128.779 14.7943L128.36 14.0153C128.605 13.8269 128.896 13.6871 129.233 13.5958C129.576 13.4987 129.929 13.4502 130.295 13.4502C130.957 13.4502 131.468 13.61 131.827 13.9297C132.192 14.2436 132.375 14.7315 132.375 15.3936V18.0732H131.365ZM129.927 18.1332C129.584 18.1332 129.284 18.0761 129.028 17.9619C128.771 17.8421 128.571 17.6794 128.428 17.474C128.291 17.2628 128.223 17.0259 128.223 16.7634C128.223 16.5066 128.283 16.2754 128.403 16.0699C128.528 15.8645 128.731 15.7018 129.01 15.582C129.29 15.4621 129.661 15.4022 130.123 15.4022H131.45V16.1127H130.2C129.835 16.1127 129.59 16.1727 129.464 16.2925C129.339 16.4067 129.276 16.5494 129.276 16.7206C129.276 16.9146 129.353 17.0687 129.507 17.1829C129.661 17.297 129.875 17.3541 130.149 17.3541C130.412 17.3541 130.646 17.2942 130.851 17.1743C131.062 17.0545 131.214 16.8775 131.305 16.6435L131.485 17.2856C131.382 17.5539 131.196 17.7622 130.928 17.9106C130.666 18.059 130.332 18.1332 129.927 18.1332ZM136.342 13.4502C136.708 13.4502 137.033 13.5216 137.318 13.6643C137.609 13.8069 137.838 14.0267 138.003 14.3235C138.169 14.6145 138.252 14.9912 138.252 15.4535V18.0732H137.181V15.5905C137.181 15.1853 137.084 14.8828 136.89 14.683C136.702 14.4833 136.437 14.3834 136.094 14.3834C135.843 14.3834 135.62 14.4348 135.426 14.5375C135.232 14.6402 135.081 14.7943 134.973 14.9998C134.87 15.1996 134.819 15.4535 134.819 15.7617V18.0732H133.748V13.5016H134.767V14.7344L134.587 14.3577C134.747 14.0666 134.978 13.844 135.281 13.6899C135.589 13.5301 135.943 13.4502 136.342 13.4502ZM141.33 18.1332C140.828 18.1332 140.44 18.0048 140.166 17.7479C139.892 17.4854 139.755 17.1001 139.755 16.5922V12.4914H140.825V16.5665C140.825 16.7834 140.879 16.9517 140.987 17.0716C141.102 17.1914 141.259 17.2514 141.458 17.2514C141.698 17.2514 141.898 17.1886 142.058 17.063L142.357 17.825C142.232 17.9277 142.078 18.0048 141.895 18.0561C141.712 18.1075 141.524 18.1332 141.33 18.1332ZM139.001 14.392V13.5358H142.049V14.392H139.001ZM143.238 18.0732V13.5016H144.308V18.0732H143.238ZM143.777 12.7482C143.577 12.7482 143.412 12.6854 143.28 12.5599C143.155 12.4343 143.092 12.2831 143.092 12.1061C143.092 11.9235 143.155 11.7722 143.28 11.6524C143.412 11.5268 143.577 11.464 143.777 11.464C143.977 11.464 144.139 11.524 144.265 11.6438C144.396 11.758 144.462 11.9035 144.462 12.0804C144.462 12.2688 144.399 12.4286 144.273 12.5599C144.148 12.6854 143.982 12.7482 143.777 12.7482ZM145.336 18.0732V17.3969L148.152 13.9896L148.349 14.3577H145.387V13.5016H149.205V14.1779L146.389 17.5853L146.175 17.2171H149.282V18.0732H145.336ZM153.085 18.0732V17.1486L153.025 16.9517V15.3337C153.025 15.0198 152.931 14.7772 152.743 14.606C152.555 14.4291 152.269 14.3406 151.887 14.3406C151.63 14.3406 151.376 14.3805 151.125 14.4604C150.879 14.5403 150.671 14.6516 150.5 14.7943L150.08 14.0153C150.326 13.8269 150.617 13.6871 150.954 13.5958C151.296 13.4987 151.65 13.4502 152.015 13.4502C152.677 13.4502 153.188 13.61 153.548 13.9297C153.913 14.2436 154.096 14.7315 154.096 15.3936V18.0732H153.085ZM151.647 18.1332C151.305 18.1332 151.005 18.0761 150.748 17.9619C150.491 17.8421 150.292 17.6794 150.149 17.474C150.012 17.2628 149.943 17.0259 149.943 16.7634C149.943 16.5066 150.003 16.2754 150.123 16.0699C150.249 15.8645 150.451 15.7018 150.731 15.582C151.011 15.4621 151.382 15.4022 151.844 15.4022H153.171V16.1127H151.921C151.556 16.1127 151.31 16.1727 151.185 16.2925C151.059 16.4067 150.996 16.5494 150.996 16.7206C150.996 16.9146 151.073 17.0687 151.228 17.1829C151.382 17.297 151.596 17.3541 151.87 17.3541C152.132 17.3541 152.366 17.2942 152.572 17.1743C152.783 17.0545 152.934 16.8775 153.025 16.6435L153.205 17.2856C153.102 17.5539 152.917 17.7622 152.649 17.9106C152.386 18.059 152.052 18.1332 151.647 18.1332ZM157.412 18.1332C156.973 18.1332 156.576 18.0361 156.222 17.8421C155.874 17.6423 155.6 17.3684 155.4 17.0202C155.201 16.6721 155.101 16.2611 155.101 15.7874C155.101 15.3137 155.201 14.9028 155.4 14.5546C155.6 14.2065 155.874 13.9354 156.222 13.7413C156.576 13.5473 156.973 13.4502 157.412 13.4502C157.795 13.4502 158.137 13.5358 158.439 13.7071C158.742 13.8726 158.982 14.1266 159.159 14.469C159.336 14.8114 159.424 15.2509 159.424 15.7874C159.424 16.3182 159.338 16.7577 159.167 17.1058C158.996 17.4483 158.759 17.7051 158.457 17.8763C158.154 18.0476 157.806 18.1332 157.412 18.1332ZM157.541 17.2171C157.797 17.2171 158.026 17.1601 158.225 17.0459C158.431 16.9318 158.594 16.7662 158.713 16.5494C158.839 16.3325 158.902 16.0785 158.902 15.7874C158.902 15.4906 158.839 15.2367 158.713 15.0255C158.594 14.8086 158.431 14.6431 158.225 14.5289C158.026 14.4148 157.797 14.3577 157.541 14.3577C157.284 14.3577 157.053 14.4148 156.847 14.5289C156.647 14.6431 156.485 14.8086 156.359 15.0255C156.239 15.2367 156.179 15.4906 156.179 15.7874C156.179 16.0785 156.239 16.3325 156.359 16.5494C156.485 16.7662 156.647 16.9318 156.847 17.0459C157.053 17.1601 157.284 17.2171 157.541 17.2171ZM158.927 18.0732V16.9945L158.97 15.7789L158.885 14.5632V11.7209H159.946V18.0732H158.927ZM164.171 18.0732V17.1486L164.111 16.9517V15.3337C164.111 15.0198 164.017 14.7772 163.829 14.606C163.641 14.4291 163.355 14.3406 162.973 14.3406C162.716 14.3406 162.462 14.3805 162.211 14.4604C161.965 14.5403 161.757 14.6516 161.586 14.7943L161.166 14.0153C161.412 13.8269 161.703 13.6871 162.04 13.5958C162.382 13.4987 162.736 13.4502 163.101 13.4502C163.763 13.4502 164.274 13.61 164.634 13.9297C164.999 14.2436 165.182 14.7315 165.182 15.3936V18.0732H164.171ZM162.733 18.1332C162.391 18.1332 162.091 18.0761 161.834 17.9619C161.577 17.8421 161.378 17.6794 161.235 17.474C161.098 17.2628 161.029 17.0259 161.029 16.7634C161.029 16.5066 161.089 16.2754 161.209 16.0699C161.335 15.8645 161.537 15.7018 161.817 15.582C162.097 15.4621 162.468 15.4022 162.93 15.4022H164.257V16.1127H163.007C162.642 16.1127 162.396 16.1727 162.271 16.2925C162.145 16.4067 162.082 16.5494 162.082 16.7206C162.082 16.9146 162.159 17.0687 162.314 17.1829C162.468 17.297 162.682 17.3541 162.956 17.3541C163.218 17.3541 163.452 17.2942 163.658 17.1743C163.869 17.0545 164.02 16.8775 164.111 16.6435L164.291 17.2856C164.188 17.5539 164.003 17.7622 163.735 17.9106C163.472 18.059 163.138 18.1332 162.733 18.1332Z" fill="black"></path><path d="M195.936 11.6084C195.577 11.611 195.229 11.7283 194.948 11.9416C194.668 12.155 194.47 12.452 194.386 12.7854C194.302 13.1188 194.338 13.4693 194.487 13.7811C194.636 14.0929 194.891 14.3479 195.209 14.5056V16.3267H196.542V14.5629C196.886 14.4282 197.17 14.1835 197.347 13.8707C197.523 13.5579 197.58 13.1963 197.509 12.8476C197.437 12.499 197.241 12.1848 196.954 11.9588C196.667 11.7328 196.307 11.609 195.936 11.6084V11.6084Z" fill="black"></path><path d="M201.204 8.04847V5.3232C201.232 3.94266 200.687 2.6075 199.688 1.60988C198.689 0.612254 197.317 0.0334074 195.873 0C194.428 0.0334074 193.056 0.612254 192.057 1.60988C191.058 2.6075 190.513 3.94266 190.542 5.3232V8.04847H188.543V18.8731C188.543 19.2109 188.683 19.5348 188.933 19.7736C189.183 20.0125 189.522 20.1466 189.876 20.1466H201.87C202.223 20.1466 202.562 20.0125 202.812 19.7736C203.062 19.5348 203.203 19.2109 203.203 18.8731V8.04847H201.204ZM191.875 5.3232C191.846 4.28036 192.25 3.26904 193 2.51023C193.749 1.75141 194.782 1.30678 195.873 1.27349C196.964 1.30678 197.997 1.75141 198.746 2.51023C199.495 3.26904 199.9 4.28036 199.871 5.3232V8.04847H191.875V5.3232ZM189.876 18.8731V9.32196H201.87V18.8731H189.876Z" fill="black"></path><path d="M212.925 9.07324V3.08045H215.39C215.921 3.08045 216.375 3.16606 216.752 3.33728C217.134 3.5085 217.428 3.75392 217.633 4.07354C217.839 4.39315 217.942 4.7727 217.942 5.21217C217.942 5.65164 217.839 6.03118 217.633 6.3508C217.428 6.67042 217.134 6.91584 216.752 7.08706C216.375 7.25828 215.921 7.34389 215.39 7.34389H213.541L214.038 6.82166V9.07324H212.925ZM214.038 6.94152L213.541 6.40217H215.339C215.83 6.40217 216.198 6.29943 216.443 6.09397C216.695 5.88279 216.82 5.58886 216.82 5.21217C216.82 4.82977 216.695 4.53584 216.443 4.33037C216.198 4.1249 215.83 4.02217 215.339 4.02217H213.541L214.038 3.47426V6.94152ZM218.909 9.07324V4.50159H219.927V5.76008L219.807 5.39195C219.944 5.08375 220.158 4.84975 220.45 4.68994C220.746 4.53013 221.114 4.45023 221.554 4.45023V5.469C221.508 5.45759 221.465 5.45188 221.426 5.45188C221.386 5.44617 221.346 5.44332 221.306 5.44332C220.9 5.44332 220.578 5.56318 220.338 5.80289C220.099 6.03689 219.979 6.3879 219.979 6.85591V9.07324H218.909ZM222.462 9.07324V4.50159H223.532V9.07324H222.462ZM223.001 3.74821C222.801 3.74821 222.636 3.68543 222.505 3.55987C222.379 3.43431 222.316 3.28306 222.316 3.10613C222.316 2.92349 222.379 2.77224 222.505 2.65239C222.636 2.52682 222.801 2.46404 223.001 2.46404C223.201 2.46404 223.364 2.52397 223.489 2.64383C223.62 2.75798 223.686 2.90352 223.686 3.08045C223.686 3.26879 223.623 3.4286 223.498 3.55987C223.372 3.68543 223.207 3.74821 223.001 3.74821ZM226.152 9.07324L224.192 4.50159H225.305L226.991 8.53389H226.443L228.19 4.50159H229.217L227.257 9.07324H226.152ZM232.56 9.07324V8.14864L232.5 7.95173V6.33368C232.5 6.01977 232.406 5.7772 232.218 5.60598C232.03 5.42905 231.744 5.34059 231.362 5.34059C231.105 5.34059 230.851 5.38054 230.6 5.46044C230.354 5.54035 230.146 5.65164 229.975 5.79433L229.555 5.01526C229.801 4.82692 230.092 4.68709 230.429 4.59577C230.771 4.49874 231.125 4.45023 231.49 4.45023C232.152 4.45023 232.663 4.61004 233.023 4.92965C233.388 5.24356 233.571 5.73154 233.571 6.39361V9.07324H232.56ZM231.122 9.13317C230.78 9.13317 230.48 9.0761 230.223 8.96195C229.966 8.84209 229.767 8.67943 229.624 8.47396C229.487 8.26279 229.418 8.02593 229.418 7.76339C229.418 7.50655 229.478 7.2754 229.598 7.06994C229.724 6.86447 229.926 6.70181 230.206 6.58195C230.486 6.46209 230.857 6.40217 231.319 6.40217H232.646V7.11274H231.396C231.031 7.11274 230.785 7.17267 230.66 7.29253C230.534 7.40667 230.471 7.54936 230.471 7.72058C230.471 7.91463 230.549 8.06874 230.703 8.18288C230.857 8.29703 231.071 8.35411 231.345 8.35411C231.607 8.35411 231.841 8.29418 232.047 8.17432C232.258 8.05447 232.409 7.87754 232.5 7.64353L232.68 8.28562C232.577 8.55387 232.392 8.76219 232.124 8.91058C231.861 9.05897 231.527 9.13317 231.122 9.13317ZM237.05 9.13317C236.57 9.13317 236.142 9.03329 235.766 8.83353C235.395 8.62806 235.104 8.3484 234.892 7.99454C234.681 7.64068 234.576 7.2383 234.576 6.78742C234.576 6.33082 234.681 5.92845 234.892 5.5803C235.104 5.22644 235.395 4.94963 235.766 4.74987C236.142 4.55011 236.57 4.45023 237.05 4.45023C237.495 4.45023 237.886 4.54155 238.223 4.72418C238.565 4.90111 238.825 5.16366 239.002 5.51181L238.18 5.99123C238.043 5.77435 237.875 5.61454 237.675 5.51181C237.481 5.40907 237.27 5.35771 237.041 5.35771C236.779 5.35771 236.542 5.41478 236.331 5.52893C236.12 5.64308 235.954 5.80859 235.834 6.02548C235.714 6.23665 235.654 6.49063 235.654 6.78742C235.654 7.0842 235.714 7.34104 235.834 7.55792C235.954 7.7691 236.12 7.93176 236.331 8.04591C236.542 8.16005 236.779 8.21713 237.041 8.21713C237.27 8.21713 237.481 8.16576 237.675 8.06303C237.875 7.96029 238.043 7.80049 238.18 7.5836L239.002 8.06303C238.825 8.40547 238.565 8.67087 238.223 8.85921C237.886 9.04185 237.495 9.13317 237.05 9.13317ZM239.885 9.07324V4.50159H240.955V9.07324H239.885ZM240.424 3.74821C240.225 3.74821 240.059 3.68543 239.928 3.55987C239.802 3.43431 239.739 3.28306 239.739 3.10613C239.739 2.92349 239.802 2.77224 239.928 2.65239C240.059 2.52682 240.225 2.46404 240.424 2.46404C240.624 2.46404 240.787 2.52397 240.912 2.64383C241.044 2.75798 241.109 2.90352 241.109 3.08045C241.109 3.26879 241.046 3.4286 240.921 3.55987C240.795 3.68543 240.63 3.74821 240.424 3.74821ZM244.295 9.13317C243.855 9.13317 243.458 9.03614 243.105 8.84209C242.756 8.64233 242.482 8.36838 242.283 8.02022C242.083 7.67207 241.983 7.26113 241.983 6.78742C241.983 6.3137 242.083 5.90277 242.283 5.55461C242.482 5.20646 242.756 4.93536 243.105 4.74131C243.458 4.54725 243.855 4.45023 244.295 4.45023C244.677 4.45023 245.019 4.53584 245.322 4.70706C245.624 4.87258 245.864 5.12656 246.041 5.469C246.218 5.81145 246.306 6.25092 246.306 6.78742C246.306 7.31821 246.221 7.75768 246.05 8.10583C245.878 8.44828 245.641 8.70511 245.339 8.87634C245.037 9.04756 244.688 9.13317 244.295 9.13317ZM244.423 8.21713C244.68 8.21713 244.908 8.16005 245.108 8.04591C245.313 7.93176 245.476 7.76624 245.596 7.54936C245.721 7.33248 245.784 7.0785 245.784 6.78742C245.784 6.49063 245.721 6.23665 245.596 6.02548C245.476 5.80859 245.313 5.64308 245.108 5.52893C244.908 5.41478 244.68 5.35771 244.423 5.35771C244.166 5.35771 243.935 5.41478 243.73 5.52893C243.53 5.64308 243.367 5.80859 243.242 6.02548C243.122 6.23665 243.062 6.49063 243.062 6.78742C243.062 7.0785 243.122 7.33248 243.242 7.54936C243.367 7.76624 243.53 7.93176 243.73 8.04591C243.935 8.16005 244.166 8.21713 244.423 8.21713ZM245.81 9.07324V7.99454L245.853 6.77886L245.767 5.56318V2.72088H246.829V9.07324H245.81ZM251.054 9.07324V8.14864L250.994 7.95173V6.33368C250.994 6.01977 250.9 5.7772 250.711 5.60598C250.523 5.42905 250.238 5.34059 249.855 5.34059C249.598 5.34059 249.344 5.38054 249.093 5.46044C248.848 5.54035 248.64 5.65164 248.468 5.79433L248.049 5.01526C248.294 4.82692 248.585 4.68709 248.922 4.59577C249.264 4.49874 249.618 4.45023 249.984 4.45023C250.646 4.45023 251.156 4.61004 251.516 4.92965C251.881 5.24356 252.064 5.73154 252.064 6.39361V9.07324H251.054ZM249.615 9.13317C249.273 9.13317 248.973 9.0761 248.717 8.96195C248.46 8.84209 248.26 8.67943 248.117 8.47396C247.98 8.26279 247.912 8.02593 247.912 7.76339C247.912 7.50655 247.972 7.2754 248.092 7.06994C248.217 6.86447 248.42 6.70181 248.699 6.58195C248.979 6.46209 249.35 6.40217 249.812 6.40217H251.139V7.11274H249.889C249.524 7.11274 249.279 7.17267 249.153 7.29253C249.028 7.40667 248.965 7.54936 248.965 7.72058C248.965 7.91463 249.042 8.06874 249.196 8.18288C249.35 8.29703 249.564 8.35411 249.838 8.35411C250.101 8.35411 250.335 8.29418 250.54 8.17432C250.751 8.05447 250.903 7.87754 250.994 7.64353L251.174 8.28562C251.071 8.55387 250.885 8.76219 250.617 8.91058C250.355 9.05897 250.021 9.13317 249.615 9.13317ZM255.381 9.13317C254.941 9.13317 254.544 9.03614 254.191 8.84209C253.842 8.64233 253.568 8.36838 253.369 8.02022C253.169 7.67207 253.069 7.26113 253.069 6.78742C253.069 6.3137 253.169 5.90277 253.369 5.55461C253.568 5.20646 253.842 4.93536 254.191 4.74131C254.544 4.54725 254.941 4.45023 255.381 4.45023C255.763 4.45023 256.105 4.53584 256.408 4.70706C256.71 4.87258 256.95 5.12656 257.127 5.469C257.304 5.81145 257.392 6.25092 257.392 6.78742C257.392 7.31821 257.307 7.75768 257.136 8.10583C256.964 8.44828 256.728 8.70511 256.425 8.87634C256.123 9.04756 255.774 9.13317 255.381 9.13317ZM255.509 8.21713C255.766 8.21713 255.994 8.16005 256.194 8.04591C256.399 7.93176 256.562 7.76624 256.682 7.54936C256.807 7.33248 256.87 7.0785 256.87 6.78742C256.87 6.49063 256.807 6.23665 256.682 6.02548C256.562 5.80859 256.399 5.64308 256.194 5.52893C255.994 5.41478 255.766 5.35771 255.509 5.35771C255.252 5.35771 255.021 5.41478 254.816 5.52893C254.616 5.64308 254.453 5.80859 254.328 6.02548C254.208 6.23665 254.148 6.49063 254.148 6.78742C254.148 7.0785 254.208 7.33248 254.328 7.54936C254.453 7.76624 254.616 7.93176 254.816 8.04591C255.021 8.16005 255.252 8.21713 255.509 8.21713ZM256.896 9.07324V7.99454L256.939 6.77886L256.853 5.56318V2.72088H257.915V9.07324H256.896ZM212.925 18.0732V12.0804H215.39C215.921 12.0804 216.375 12.1661 216.752 12.3373C217.134 12.5085 217.428 12.7539 217.633 13.0735C217.839 13.3932 217.942 13.7727 217.942 14.2122C217.942 14.6516 217.839 15.0312 217.633 15.3508C217.428 15.6704 217.134 15.9158 216.752 16.0871C216.375 16.2583 215.921 16.3439 215.39 16.3439H213.541L214.038 15.8217V18.0732H212.925ZM214.038 15.9415L213.541 15.4022H215.339C215.83 15.4022 216.198 15.2994 216.443 15.094C216.695 14.8828 216.82 14.5889 216.82 14.2122C216.82 13.8298 216.695 13.5358 216.443 13.3304C216.198 13.1249 215.83 13.0222 215.339 13.0222H213.541L214.038 12.4743V15.9415ZM218.909 18.0732V13.5016H219.927V14.7601L219.807 14.392C219.944 14.0838 220.158 13.8497 220.45 13.6899C220.746 13.5301 221.114 13.4502 221.554 13.4502V14.469C221.508 14.4576 221.465 14.4519 221.426 14.4519C221.386 14.4462 221.346 14.4433 221.306 14.4433C220.9 14.4433 220.578 14.5632 220.338 14.8029C220.099 15.0369 219.979 15.3879 219.979 15.8559V18.0732H218.909ZM224.475 18.1332C224.007 18.1332 223.59 18.0333 223.225 17.8335C222.859 17.6281 222.571 17.3484 222.36 16.9945C222.149 16.6407 222.043 16.2383 222.043 15.7874C222.043 15.3308 222.149 14.9285 222.36 14.5803C222.571 14.2264 222.859 13.9496 223.225 13.7499C223.59 13.5501 224.007 13.4502 224.475 13.4502C224.948 13.4502 225.368 13.5501 225.733 13.7499C226.104 13.9496 226.392 14.2236 226.598 14.5717C226.809 14.9199 226.915 15.3251 226.915 15.7874C226.915 16.2383 226.809 16.6407 226.598 16.9945C226.392 17.3484 226.104 17.6281 225.733 17.8335C225.368 18.0333 224.948 18.1332 224.475 18.1332ZM224.475 17.2171C224.737 17.2171 224.971 17.1601 225.177 17.0459C225.382 16.9318 225.542 16.7662 225.656 16.5494C225.776 16.3325 225.836 16.0785 225.836 15.7874C225.836 15.4906 225.776 15.2367 225.656 15.0255C225.542 14.8086 225.382 14.6431 225.177 14.5289C224.971 14.4148 224.74 14.3577 224.483 14.3577C224.221 14.3577 223.987 14.4148 223.781 14.5289C223.581 14.6431 223.422 14.8086 223.302 15.0255C223.182 15.2367 223.122 15.4906 223.122 15.7874C223.122 16.0785 223.182 16.3325 223.302 16.5494C223.422 16.7662 223.581 16.9318 223.781 17.0459C223.987 17.1601 224.218 17.2171 224.475 17.2171ZM229.659 18.1332C229.156 18.1332 228.768 18.0048 228.494 17.7479C228.22 17.4854 228.083 17.1001 228.083 16.5922V12.4914H229.154V16.5665C229.154 16.7834 229.208 16.9517 229.316 17.0716C229.43 17.1914 229.587 17.2514 229.787 17.2514C230.027 17.2514 230.227 17.1886 230.386 17.063L230.686 17.825C230.56 17.9277 230.406 18.0048 230.224 18.0561C230.041 18.1075 229.853 18.1332 229.659 18.1332ZM227.33 14.392V13.5358H230.378V14.392H227.33ZM233.565 18.1332C233.057 18.1332 232.612 18.0333 232.229 17.8335C231.852 17.6281 231.559 17.3484 231.347 16.9945C231.142 16.6407 231.039 16.2383 231.039 15.7874C231.039 15.3308 231.139 14.9285 231.339 14.5803C231.544 14.2264 231.824 13.9496 232.178 13.7499C232.537 13.5501 232.945 13.4502 233.402 13.4502C233.847 13.4502 234.244 13.5473 234.592 13.7413C234.94 13.9354 235.214 14.2093 235.414 14.5632C235.614 14.917 235.714 15.3337 235.714 15.8131C235.714 15.8588 235.711 15.9101 235.705 15.9672C235.705 16.0243 235.702 16.0785 235.696 16.1299H231.887V15.4193H235.131L234.712 15.6419C234.718 15.3793 234.663 15.1482 234.549 14.9484C234.435 14.7487 234.278 14.5917 234.078 14.4776C233.884 14.3634 233.659 14.3063 233.402 14.3063C233.139 14.3063 232.908 14.3634 232.709 14.4776C232.515 14.5917 232.36 14.7515 232.246 14.957C232.138 15.1567 232.084 15.3936 232.084 15.6676V15.8388C232.084 16.1127 232.146 16.3553 232.272 16.5665C232.398 16.7777 232.574 16.9403 232.803 17.0545C233.031 17.1686 233.294 17.2257 233.59 17.2257C233.847 17.2257 234.078 17.1857 234.284 17.1058C234.489 17.0259 234.672 16.9004 234.832 16.7291L235.405 17.3884C235.2 17.6281 234.94 17.8136 234.626 17.9448C234.318 18.0704 233.964 18.1332 233.565 18.1332ZM238.813 19.794C238.391 19.794 237.977 19.737 237.572 19.6228C237.172 19.5144 236.844 19.3546 236.587 19.1434L237.067 18.3386C237.267 18.5042 237.518 18.6354 237.82 18.7324C238.128 18.8352 238.439 18.8866 238.753 18.8866C239.256 18.8866 239.624 18.7695 239.858 18.5355C240.092 18.3072 240.209 17.9619 240.209 17.4996V16.6863L240.294 15.6504L240.26 14.6145V13.5016H241.279V17.3798C241.279 18.2074 241.068 18.8152 240.645 19.2033C240.223 19.5971 239.612 19.794 238.813 19.794ZM238.676 17.8678C238.243 17.8678 237.849 17.7765 237.495 17.5938C237.147 17.4055 236.87 17.1458 236.664 16.8148C236.465 16.4837 236.365 16.0956 236.365 15.6504C236.365 15.211 236.465 14.8257 236.664 14.4947C236.87 14.1637 237.147 13.9068 237.495 13.7242C237.849 13.5415 238.243 13.4502 238.676 13.4502C239.064 13.4502 239.413 13.5273 239.721 13.6814C240.029 13.8355 240.274 14.0752 240.457 14.4005C240.645 14.7258 240.74 15.1425 240.74 15.6504C240.74 16.1584 240.645 16.5779 240.457 16.9089C240.274 17.2343 240.029 17.4768 239.721 17.6366C239.413 17.7907 239.064 17.8678 238.676 17.8678ZM238.839 16.9603C239.107 16.9603 239.347 16.9061 239.558 16.7976C239.769 16.6835 239.932 16.5294 240.046 16.3353C240.166 16.1356 240.226 15.9073 240.226 15.6504C240.226 15.3936 240.166 15.1682 240.046 14.9741C239.932 14.7744 239.769 14.6231 239.558 14.5204C239.347 14.4119 239.107 14.3577 238.839 14.3577C238.571 14.3577 238.328 14.4119 238.111 14.5204C237.9 14.6231 237.735 14.7744 237.615 14.9741C237.501 15.1682 237.443 15.3936 237.443 15.6504C237.443 15.9073 237.501 16.1356 237.615 16.3353C237.735 16.5294 237.9 16.6835 238.111 16.7976C238.328 16.9061 238.571 16.9603 238.839 16.9603ZM242.686 18.0732V13.5016H243.756V18.0732H242.686ZM243.225 12.7482C243.025 12.7482 242.86 12.6854 242.729 12.5599C242.603 12.4343 242.54 12.2831 242.54 12.1061C242.54 11.9235 242.603 11.7722 242.729 11.6524C242.86 11.5268 243.025 11.464 243.225 11.464C243.425 11.464 243.588 11.524 243.713 11.6438C243.844 11.758 243.91 11.9035 243.91 12.0804C243.91 12.2688 243.847 12.4286 243.722 12.5599C243.596 12.6854 243.431 12.7482 243.225 12.7482ZM247.095 18.1332C246.656 18.1332 246.259 18.0361 245.905 17.8421C245.557 17.6423 245.283 17.3684 245.083 17.0202C244.884 16.6721 244.784 16.2611 244.784 15.7874C244.784 15.3137 244.884 14.9028 245.083 14.5546C245.283 14.2065 245.557 13.9354 245.905 13.7413C246.259 13.5473 246.656 13.4502 247.095 13.4502C247.478 13.4502 247.82 13.5358 248.123 13.7071C248.425 13.8726 248.665 14.1266 248.842 14.469C249.019 14.8114 249.107 15.2509 249.107 15.7874C249.107 16.3182 249.022 16.7577 248.85 17.1058C248.679 17.4483 248.442 17.7051 248.14 17.8763C247.837 18.0476 247.489 18.1332 247.095 18.1332ZM247.224 17.2171C247.481 17.2171 247.709 17.1601 247.909 17.0459C248.114 16.9318 248.277 16.7662 248.397 16.5494C248.522 16.3325 248.585 16.0785 248.585 15.7874C248.585 15.4906 248.522 15.2367 248.397 15.0255C248.277 14.8086 248.114 14.6431 247.909 14.5289C247.709 14.4148 247.481 14.3577 247.224 14.3577C246.967 14.3577 246.736 14.4148 246.53 14.5289C246.331 14.6431 246.168 14.8086 246.042 15.0255C245.922 15.2367 245.863 15.4906 245.863 15.7874C245.863 16.0785 245.922 16.3325 246.042 16.5494C246.168 16.7662 246.331 16.9318 246.53 17.0459C246.736 17.1601 246.967 17.2171 247.224 17.2171ZM248.611 18.0732V16.9945L248.653 15.7789L248.568 14.5632V11.7209H249.629V18.0732H248.611ZM253.855 18.0732V17.1486L253.795 16.9517V15.3337C253.795 15.0198 253.7 14.7772 253.512 14.606C253.324 14.4291 253.038 14.3406 252.656 14.3406C252.399 14.3406 252.145 14.3805 251.894 14.4604C251.649 14.5403 251.44 14.6516 251.269 14.7943L250.85 14.0153C251.095 13.8269 251.386 13.6871 251.723 13.5958C252.065 13.4987 252.419 13.4502 252.784 13.4502C253.446 13.4502 253.957 13.61 254.317 13.9297C254.682 14.2436 254.865 14.7315 254.865 15.3936V18.0732H253.855ZM252.416 18.1332C252.074 18.1332 251.774 18.0761 251.517 17.9619C251.261 17.8421 251.061 17.6794 250.918 17.474C250.781 17.2628 250.713 17.0259 250.713 16.7634C250.713 16.5066 250.773 16.2754 250.892 16.0699C251.018 15.8645 251.221 15.7018 251.5 15.582C251.78 15.4621 252.151 15.4022 252.613 15.4022H253.94V16.1127H252.69C252.325 16.1127 252.08 16.1727 251.954 16.2925C251.828 16.4067 251.766 16.5494 251.766 16.7206C251.766 16.9146 251.843 17.0687 251.997 17.1829C252.151 17.297 252.365 17.3541 252.639 17.3541C252.901 17.3541 253.135 17.2942 253.341 17.1743C253.552 17.0545 253.703 16.8775 253.795 16.6435L253.974 17.2856C253.872 17.5539 253.686 17.7622 253.418 17.9106C253.155 18.059 252.821 18.1332 252.416 18.1332Z" fill="black"></path></svg>