<svg xmlns="http://www.w3.org/2000/svg" width="48" height="48" viewBox="0 0 48 48" fill="none"><path d="M47 24C47 11.2975 36.7025 1 24 1C11.2975 1 1 11.2975 1 24C1 36.7025 11.2975 47 24 47C36.7025 47 47 36.7025 47 24Z" stroke="white" stroke-opacity="0.15" stroke-width="0.836364"></path><path d="M40.5322 23.6567C40.54 14.3139 32.9724 6.73373 23.6296 6.72597C14.2867 6.71821 6.7066 14.2858 6.69884 23.6286C6.69108 32.9714 14.2586 40.5516 23.6015 40.5593C32.9443 40.5671 40.5244 32.9995 40.5322 23.6567Z" fill="url(#paint0_linear_97_6528)" fill-opacity="0.15"></path><path d="M40.5322 23.6567C40.54 14.3139 32.9724 6.73373 23.6296 6.72597C14.2867 6.71821 6.7066 14.2858 6.69884 23.6286C6.69108 32.9714 14.2586 40.5516 23.6015 40.5593C32.9443 40.5671 40.5244 32.9995 40.5322 23.6567Z" stroke="url(#paint1_linear_97_6528)" stroke-opacity="0.15" stroke-width="0.867522"></path><path d="M40.5322 23.6567C40.54 14.3139 32.9724 6.73373 23.6296 6.72597C14.2867 6.71821 6.7066 14.2858 6.69884 23.6286C6.69108 32.9714 14.2586 40.5516 23.6015 40.5593C32.9443 40.5671 40.5244 32.9995 40.5322 23.6567Z" stroke="url(#paint2_radial_97_6528)" stroke-width="0.867522"></path><path d="M40.5322 23.6567C40.54 14.3139 32.9724 6.73373 23.6296 6.72597C14.2867 6.71821 6.7066 14.2858 6.69884 23.6286C6.69108 32.9714 14.2586 40.5516 23.6015 40.5593C32.9443 40.5671 40.5244 32.9995 40.5322 23.6567Z" stroke="url(#paint3_radial_97_6528)" stroke-width="0.867522"></path><path d="M23.9997 25.3337C23.6263 25.3337 23.333 25.0403 23.333 24.667V15.3337C23.333 14.9603 23.6263 14.667 23.9997 14.667C24.373 14.667 24.6663 14.9603 24.6663 15.3337V24.667C24.6663 25.0403 24.373 25.3337 23.9997 25.3337Z" fill="black"></path><path d="M23.9997 25.3337C23.6263 25.3337 23.333 25.0403 23.333 24.667V15.3337C23.333 14.9603 23.6263 14.667 23.9997 14.667C24.373 14.667 24.6663 14.9603 24.6663 15.3337V24.667C24.6663 25.0403 24.373 25.3337 23.9997 25.3337Z" fill="url(#paint4_linear_97_6528)"></path><path d="M23.9997 25.3337C23.6263 25.3337 23.333 25.0403 23.333 24.667V15.3337C23.333 14.9603 23.6263 14.667 23.9997 14.667C24.373 14.667 24.6663 14.9603 24.6663 15.3337V24.667C24.6663 25.0403 24.373 25.3337 23.9997 25.3337Z" fill="url(#paint5_linear_97_6528)"></path><path d="M23.9997 31.9999C19.2263 31.9999 15.333 28.2399 15.333 23.6265C15.333 20.4132 17.2797 17.4399 20.293 16.0532C20.6263 15.9065 21.0263 16.0532 21.173 16.3865C21.3197 16.7199 21.173 17.1199 20.8397 17.2665C18.293 18.4265 16.653 20.9199 16.653 23.6265C16.653 27.5065 19.9463 30.6665 23.9863 30.6665C28.0263 30.6665 31.3197 27.5065 31.3197 23.6265C31.3197 20.9332 29.6797 18.4265 27.133 17.2665C26.9723 17.1938 26.8471 17.0603 26.7846 16.8954C26.7221 16.7305 26.7275 16.5475 26.7997 16.3865C26.9463 16.0532 27.3463 15.9065 27.6797 16.0532C30.693 17.4265 32.6397 20.3999 32.6397 23.6265C32.6397 28.2399 28.7463 31.9999 23.973 31.9999H23.9997Z" fill="black"></path><path d="M23.9997 31.9999C19.2263 31.9999 15.333 28.2399 15.333 23.6265C15.333 20.4132 17.2797 17.4399 20.293 16.0532C20.6263 15.9065 21.0263 16.0532 21.173 16.3865C21.3197 16.7199 21.173 17.1199 20.8397 17.2665C18.293 18.4265 16.653 20.9199 16.653 23.6265C16.653 27.5065 19.9463 30.6665 23.9863 30.6665C28.0263 30.6665 31.3197 27.5065 31.3197 23.6265C31.3197 20.9332 29.6797 18.4265 27.133 17.2665C26.9723 17.1938 26.8471 17.0603 26.7846 16.8954C26.7221 16.7305 26.7275 16.5475 26.7997 16.3865C26.9463 16.0532 27.3463 15.9065 27.6797 16.0532C30.693 17.4265 32.6397 20.3999 32.6397 23.6265C32.6397 28.2399 28.7463 31.9999 23.973 31.9999H23.9997Z" fill="url(#paint6_linear_97_6528)"></path><path d="M23.9997 31.9999C19.2263 31.9999 15.333 28.2399 15.333 23.6265C15.333 20.4132 17.2797 17.4399 20.293 16.0532C20.6263 15.9065 21.0263 16.0532 21.173 16.3865C21.3197 16.7199 21.173 17.1199 20.8397 17.2665C18.293 18.4265 16.653 20.9199 16.653 23.6265C16.653 27.5065 19.9463 30.6665 23.9863 30.6665C28.0263 30.6665 31.3197 27.5065 31.3197 23.6265C31.3197 20.9332 29.6797 18.4265 27.133 17.2665C26.9723 17.1938 26.8471 17.0603 26.7846 16.8954C26.7221 16.7305 26.7275 16.5475 26.7997 16.3865C26.9463 16.0532 27.3463 15.9065 27.6797 16.0532C30.693 17.4265 32.6397 20.3999 32.6397 23.6265C32.6397 28.2399 28.7463 31.9999 23.973 31.9999H23.9997Z" fill="url(#paint7_linear_97_6528)"></path><defs><linearGradient id="paint0_linear_97_6528" x1="23.6299" y1="6.29221" x2="23.6011" y2="40.9931" gradientUnits="userSpaceOnUse"><stop stop-color="white"></stop><stop offset="1" stop-color="white" stop-opacity="0"></stop></linearGradient><linearGradient id="paint1_linear_97_6528" x1="23.6299" y1="6.29221" x2="23.6011" y2="40.9931" gradientUnits="userSpaceOnUse"><stop stop-color="white" stop-opacity="0"></stop><stop offset="1" stop-color="white"></stop></linearGradient><radialGradient id="paint2_radial_97_6528" cx="0" cy="0" r="1" gradientUnits="userSpaceOnUse" gradientTransform="translate(17.99 7.5888) rotate(80.4646) scale(33.8722 46.2084)"><stop stop-color="#7595FF"></stop><stop offset="0.201" stop-color="#7595FF" stop-opacity="0"></stop></radialGradient><radialGradient id="paint3_radial_97_6528" cx="0" cy="0" r="1" gradientUnits="userSpaceOnUse" gradientTransform="translate(33.724 37.9656) rotate(-121.56) scale(33.1053 30.0747)"><stop stop-color="#7595FF"></stop><stop offset="0.293" stop-color="#7595FF" stop-opacity="0"></stop></radialGradient><linearGradient id="paint4_linear_97_6528" x1="2.10213" y1="1.31563" x2="26.6715" y2="-11.603" gradientUnits="userSpaceOnUse"><stop stop-color="#00F9FD"></stop><stop offset="0.563101" stop-color="#8376FF"></stop><stop offset="0.885" stop-color="#E40EFF"></stop></linearGradient><linearGradient id="paint5_linear_97_6528" x1="15.7377" y1="6.90524" x2="25.1104" y2="8.14733" gradientUnits="userSpaceOnUse"><stop stop-color="white" stop-opacity="0.9"></stop><stop offset="1" stop-color="white" stop-opacity="0"></stop></linearGradient><linearGradient id="paint6_linear_97_6528" x1="2.10213" y1="1.31563" x2="26.6715" y2="-11.603" gradientUnits="userSpaceOnUse"><stop stop-color="#00F9FD"></stop><stop offset="0.563101" stop-color="#8376FF"></stop><stop offset="0.885" stop-color="#E40EFF"></stop></linearGradient><linearGradient id="paint7_linear_97_6528" x1="15.7377" y1="6.90524" x2="25.1104" y2="8.14733" gradientUnits="userSpaceOnUse"><stop stop-color="white" stop-opacity="0.9"></stop><stop offset="1" stop-color="white" stop-opacity="0"></stop></linearGradient></defs></svg>